<?xml version="1.0" encoding="utf-8"?>
<!-- Generator: Adobe Illustrator 26.3.1, SVG Export Plug-In . SVG Version: 6.00 Build 0)  -->
<svg version="1.1" id="Ebene_1" xmlns="http://www.w3.org/2000/svg" xmlns:xlink="http://www.w3.org/1999/xlink" x="0px" y="0px"
	 viewBox="0 0 537.3 523.9" style="enable-background:new 0 0 537.3 523.9;" xml:space="preserve">
<style type="text/css">
	.st0{fill:#009594;}
	.st1{fill:#FDC300;}
	.st2{fill:#4B1F0D;}
	.st3{fill:#8B1878;}
	.st4{fill:#AB632D;}
	.st5{fill:none;stroke:#FFFFFF;stroke-width:1.5796;}
	.st6{clip-path:url(#SVGID_00000152257596372106425200000015035899157560777895_);fill:#4B1F0D;}
	.st7{clip-path:url(#SVGID_00000159468551855934826860000009132747845395493252_);fill:#4B1F0D;}
	.st8{clip-path:url(#SVGID_00000027595437915938012650000015370391139896242333_);fill:#4B1F0D;}
	.st9{clip-path:url(#SVGID_00000011025466994861108170000007976923437013800081_);fill:#4B1F0D;}
	.st10{clip-path:url(#SVGID_00000159430172454136166670000001596887926351919792_);fill:#4B1F0D;}
	.st11{clip-path:url(#SVGID_00000119100599657123655410000010982123856904639393_);fill:#4B1F0D;}
	.st12{clip-path:url(#SVGID_00000072980769968392988410000008559835540327152259_);fill:#4B1F0D;}
	.st13{clip-path:url(#SVGID_00000072980769968392988410000008559835540327152259_);fill:#009594;}
</style>
<path class="st0" d="M314.4,171.5l15.5-32.2c4.7-9.8,6.8-19.9,6.7-29.7c0-44.4-32.2-72.8-68-109.5c-35.8,36.7-68,65.1-68,109.5
	c-0.1,9.8,2,20,6.7,29.7l15.5,32.2c14-6.2,29.4-9.6,45.7-9.6S300.4,165.3,314.4,171.5z"/>
<path class="st1" d="M215.8,174.9l-15.5-32.2c-4.7-9.8-11.3-17.7-19-23.8c-34.7-27.7-77-20.2-128-15.1c6.4,50.9,8.5,93.7,43.3,121.4
	c7.6,6.2,16.9,10.9,27.5,13.3l34.9,8C167,215.4,188,189.6,215.8,174.9z"/>
<path class="st2" d="M157,254.2l-34.9-8c-10.6-2.4-20.9-2.2-30.5,0c-43.3,9.9-63.8,47.5-91.7,90.7c43.8,26.7,78.6,51.8,121.9,41.9
	c9.6-2.1,19-6.4,27.5-13.2l28-22.3C163.3,324.4,155,301,155,275.6C155,268.3,155.7,261.1,157,254.2z"/>
<path class="st0" d="M182.3,349.5l-28,22.3c-8.5,6.8-14.8,15-19,23.9c-19.3,40-2.6,79.5,13.7,128.2c48.2-17.6,89.5-29.2,108.8-69.2
	c4.3-8.8,6.8-18.9,6.8-29.7v-35.8C231.8,388,202.4,372.9,182.3,349.5z"/>
<path class="st3" d="M272.6,389.1l0,35.8c0,10.8,2.5,20.9,6.8,29.7c19.3,40,60.6,51.6,108.8,69.2c16.3-48.6,33-88.2,13.7-128.2
	c-4.2-8.9-10.5-17.1-19-23.9l-28-22.3C334.9,372.9,305.6,388,272.6,389.1z"/>
<path class="st4" d="M445.7,246.2c-9.6-2.3-19.9-2.5-30.5,0l-34.9,8c1.3,6.9,2,14.1,2,21.4c0,25.4-8.3,48.8-22.4,67.7l28,22.3
	c8.5,6.8,17.9,11.1,27.5,13.2c43.3,9.9,78.1-15.2,121.9-41.9C509.5,293.8,489,256.1,445.7,246.2z"/>
<path class="st3" d="M378.5,246.4l34.9-8c10.6-2.4,19.8-7.1,27.5-13.3c34.7-27.7,36.8-70.5,43.2-121.4c-51.1-5.1-93.3-12.5-128,15.2
	c-7.7,6.1-14.3,14-19,23.8l-15.5,32.2C349.3,189.6,370.3,215.4,378.5,246.4z"/>
<path class="st1" d="M275.8,269.9L275.8,269.9L275.8,269.9l42.2-87.8c-2.3-1.2-4.7-2.4-7.1-3.4l-42.3,87.8l0,0l0,0l-42.3-87.8
	c-2.4,1.1-4.8,2.2-7.1,3.4l42.3,87.8l0,0l0,0l-95-21.7c-0.7,2.5-1.3,5.1-1.8,7.7l95,21.7l0,0l0,0l-76.2,60.7c1.6,2.1,3.2,4.2,5,6.2
	l76.1-60.7v0l0,0v97.4c1.3,0,2.6,0.1,4,0.1c1.3,0,2.7-0.1,4-0.1l0-97.4l0,0v0l76.1,60.7c1.7-2,3.4-4.1,5-6.2l-76.2-60.7l0,0l0,0
	l95-21.7c-0.5-2.6-1.1-5.2-1.8-7.7L275.8,269.9z"/>
<path class="st1" d="M268.7,266.4L268.7,266.4l42.3-87.7c-13-5.7-27.2-8.8-42.3-8.8c-15,0-29.3,3.2-42.3,8.8L268.7,266.4
	L268.7,266.4z"/>
<path class="st1" d="M261.5,269.8L261.5,269.8l-42.2-87.8c-25.7,13.6-45.1,37.4-52.7,66.1L261.5,269.8L261.5,269.8z"/>
<path class="st1" d="M259.7,277.6L259.7,277.6l-94.9-21.7c-1.2,6.4-1.8,12.9-1.8,19.6c0,23.5,7.7,45.2,20.7,62.8L259.7,277.6
	L259.7,277.6z"/>
<path class="st1" d="M264.7,283.8L264.7,283.8l-76.1,60.7c18.6,21.6,45.7,35.5,76.2,36.7L264.7,283.8L264.7,283.8z"/>
<path class="st1" d="M272.6,283.8L272.6,283.8l0,97.4c30.4-1.1,57.6-15.1,76.2-36.7L272.6,283.8L272.6,283.8z"/>
<path class="st1" d="M277.6,277.6L277.6,277.6l76.1,60.7c13-17.6,20.7-39.3,20.7-62.8c0-6.7-0.7-13.3-1.9-19.7L277.6,277.6
	L277.6,277.6z"/>
<path class="st1" d="M275.8,269.8L275.8,269.8l95-21.7c-7.7-28.7-27.1-52.5-52.7-66.1L275.8,269.8L275.8,269.8z"/>
<g>
	<polygon class="st5" points="273.5,291.1 274,302.1 271.6,313.2 260.3,317.9 254.7,303.4 261.5,288.2 274.4,281.9 	"/>
	<polygon class="st2" points="192.1,242.1 196,249.3 190.1,246.9 189.4,248.6 200.8,253.4 201.5,251.6 198.8,250.5 197.3,247.8 
		203.5,246.8 204.4,244.7 196.3,246 193,239.9 	"/>
	<g>
		<defs>
			<rect id="SVGID_1_" x="189.4" y="193.4" width="157.2" height="164.5"/>
		</defs>
		<clipPath id="SVGID_00000085957990477220584500000014196261153959610017_">
			<use xlink:href="#SVGID_1_"  style="overflow:visible;"/>
		</clipPath>
		<path style="clip-path:url(#SVGID_00000085957990477220584500000014196261153959610017_);fill:#4B1F0D;" d="M206.2,231.6l-1.3-0.9
			c-2.2-1.4-3.7-1.1-4.8,0.5c-1.1,1.6-0.8,3.2,1.4,4.6l1.3,0.9L206.2,231.6z M205.9,229.1l5.9,4l-1.1,1.6l-3-2l-3.4,5.1l3,2
			l-1.1,1.6l-5.9-4c-2.8-1.9-3.5-4.6-1.8-7.1C200.3,227.6,203.1,227.2,205.9,229.1"/>
	</g>
	<polygon class="st2" points="218.6,223 219.8,224.4 215.1,229.3 206.3,220.6 207.6,219.3 215.1,226.6 	"/>
	<g>
		<defs>
			<rect id="SVGID_00000017498087235310207260000005645432433584824467_" x="189.4" y="193.4" width="157.2" height="164.5"/>
		</defs>
		<clipPath id="SVGID_00000070096988559929409980000006012111304615788192_">
			<use xlink:href="#SVGID_00000017498087235310207260000005645432433584824467_"  style="overflow:visible;"/>
		</clipPath>
		<path style="clip-path:url(#SVGID_00000070096988559929409980000006012111304615788192_);fill:#4B1F0D;" d="M226.3,212.6l-0.9-1.3
			c-1.5-2.1-3.1-2.4-4.6-1.3s-1.8,2.7-0.3,4.8l0.9,1.3L226.3,212.6z M226.8,210.2l4.1,5.8l-1.5,1.1l-2.1-2.9l-5,3.5l2.1,2.9
			l-1.5,1.1l-4.1-5.8c-2-2.8-1.6-5.5,0.9-7.3C222.2,206.8,224.9,207.4,226.8,210.2"/>
	</g>
	<polygon class="st2" points="248.5,195.5 252.1,207.4 250.2,207.9 248.7,202.6 243.3,204.2 244.9,209.5 243.1,210.1 239.5,198.2 
		241.4,197.7 242.8,202.5 248.1,200.9 246.7,196.1 	"/>
	<polygon class="st2" points="255.8,194.2 257.1,206.5 264.6,205.7 264.3,203.9 258.8,204.5 258.3,200.3 261.9,199.9 261.7,198.1 
		258.2,198.5 257.9,195.9 263.3,195.3 263,193.5 	"/>
	
		<rect x="264.1" y="198.7" transform="matrix(3.158628e-02 -0.9995 0.9995 3.158628e-02 62.227 463.52)" class="st2" width="12.4" height="1.9"/>
	<polygon class="st2" points="283.5,205.5 283,207.3 276.3,206.2 278.3,194 280.2,194.3 278.5,204.7 	"/>
	<g>
		<defs>
			<rect id="SVGID_00000097487385237720791320000010015423696302194309_" x="189.4" y="193.4" width="157.2" height="164.5"/>
		</defs>
		<clipPath id="SVGID_00000024698892779705542080000002520936462797477550_">
			<use xlink:href="#SVGID_00000097487385237720791320000010015423696302194309_"  style="overflow:visible;"/>
		</clipPath>
		<path style="clip-path:url(#SVGID_00000024698892779705542080000002520936462797477550_);fill:#4B1F0D;" d="M296.4,205.8l0.5-1.5
			c0.9-2.4,0.2-3.9-1.6-4.5c-1.8-0.6-3.3,0-4.1,2.5l-0.5,1.4L296.4,205.8z M298.7,204.9l-2.4,6.7l-1.8-0.6l1.2-3.4l-5.7-2.1
			l-1.2,3.4l-1.8-0.6l2.4-6.7c1.1-3.2,3.6-4.5,6.5-3.5C298.8,199.1,299.9,201.7,298.7,204.9"/>
		<path style="clip-path:url(#SVGID_00000024698892779705542080000002520936462797477550_);fill:#4B1F0D;" d="M305.1,210.4l2.4,1.5
			c1.5,0.9,2.8,0.2,3.5-1c0.7-1.2,0.8-2.7-0.7-3.6l-2.4-1.5L305.1,210.4z M308.2,214.1l0.3,4.4l-1.9-1.2l-0.3-4.1l-2.1-1.3l-1.7,2.9
			l-1.6-1l6.4-10.6l4.1,2.5c2.5,1.5,2.7,3.9,1.4,6.1C311.7,213.5,310.1,214.5,308.2,214.1"/>
		<path style="clip-path:url(#SVGID_00000024698892779705542080000002520936462797477550_);fill:#4B1F0D;" d="M319.2,216.5l1.9,1.7
			c0.8,0.7,1.5,0.6,1.9,0.1c0.3-0.4,0.6-1.1-0.1-1.7l-2.1-1.9L319.2,216.5z M320.3,223.2c1.1-1.2,1.1-2.5-0.2-3.7l-2-1.8l-3.2,3.5
			l2,1.8C318.3,224.3,319.4,224.2,320.3,223.2 M321.8,224.5c-1.4,1.6-3.4,2.3-6,0l-3.5-3.2l8.3-9.1l3.7,3.4c1.6,1.5,0.9,3.1,0.3,3.9
			c-0.6,0.7-1.4,0.8-1.9,0.9C323.2,221.7,322.9,223.3,321.8,224.5"/>
	</g>
	<polygon class="st2" points="326.6,236.9 322,230.9 331.8,223.3 336.2,229.1 334.8,230.3 331.5,226 329.4,227.6 331.6,230.4 
		330.2,231.6 328,228.7 324.6,231.3 328,235.7 	"/>
	
		<rect x="328.6" y="237.6" transform="matrix(0.8693 -0.4943 0.4943 0.8693 -74.1561 196.6719)" class="st2" width="12.3" height="1.9"/>
	<polygon class="st2" points="341.7,242.2 343,245.4 333.2,249.3 333.9,251.1 343.7,247.2 345,250.4 346.6,249.6 343.4,241.6 	"/>
	<g>
		<defs>
			<rect id="SVGID_00000112610750346586199170000001441636893955721890_" x="189.4" y="193.4" width="157.2" height="164.5"/>
		</defs>
		<clipPath id="SVGID_00000082335242720759339570000010979169318507507118_">
			<use xlink:href="#SVGID_00000112610750346586199170000001441636893955721890_"  style="overflow:visible;"/>
		</clipPath>
		<path style="clip-path:url(#SVGID_00000082335242720759339570000010979169318507507118_);fill:#4B1F0D;" d="M199.4,305
			c3.1-1,4.7-3.6,3.5-7.2l-1.1-3.2l-10.7,3.5l1.1,3.2C193.4,304.9,196.3,306,199.4,305 M199.8,306.3c-3.9,1.3-7.4-0.2-8.8-4.6
			l-1.5-4.5l13.2-4.4l1.5,4.5C205.6,301.7,203.7,305,199.8,306.3"/>
		<path style="clip-path:url(#SVGID_00000082335242720759339570000010979169318507507118_);fill:#4B1F0D;" d="M203.2,311.4l5.3,8.5
			c2.3-1.7,3.4-4.3,1.8-6.8C208.8,310.8,205.8,310.2,203.2,311.4 M208.1,321.7l-6-9.6c-2.4,1.7-3.5,4.4-1.7,7.4c1,1.5,2.6,2.5,4,2.7
			l-0.3,1.2c-1.6-0.2-3.6-1.2-4.8-3.2c-2.4-3.8-0.9-7.4,2.5-9.5c3.4-2.1,7.6-1.4,9.5,1.8c2.1,3.4,0.6,6.9-2.8,9L208.1,321.7z"/>
		<path style="clip-path:url(#SVGID_00000082335242720759339570000010979169318507507118_);fill:#4B1F0D;" d="M222,327.1l-1.2,0.2
			c-0.1-0.9-0.5-1.7-1.1-2.3c-1.5-1.6-3.9-1.2-6.3,1l-5.5,5.2l-0.9-1l10.1-9.6l0.9,1l-1.5,1.4c1.5-0.4,3-0.1,4.1,1.1
			C221.4,325,221.9,325.9,222,327.1"/>
	</g>
	<polygon class="st2" points="231.7,333.8 230.1,344.7 238.2,336.8 238.3,336.9 236.9,348.1 244.6,340.2 245.9,340.9 235.5,351.4 
		235.3,351.3 236.7,339.9 228.5,347.9 228.3,347.8 230.4,333.2 	"/>
	<g>
		<defs>
			<rect id="SVGID_00000049903529212863369180000006598764467175488698_" x="189.4" y="193.4" width="157.2" height="164.5"/>
		</defs>
		<clipPath id="SVGID_00000150803363692382153430000017391730337347354507_">
			<use xlink:href="#SVGID_00000049903529212863369180000006598764467175488698_"  style="overflow:visible;"/>
		</clipPath>
		<path style="clip-path:url(#SVGID_00000150803363692382153430000017391730337347354507_);fill:#4B1F0D;" d="M248.1,347.6l9.8,2
			c0.4-2.9-0.8-5.4-3.7-6C251.5,343.1,249,344.9,248.1,347.6 M258.9,351.2l-11.1-2.3c-0.4,2.9,0.7,5.6,4.2,6.3
			c1.8,0.4,3.6-0.2,4.8-1l0.7,1c-1.3,1-3.4,1.8-5.7,1.3c-4.4-0.9-6-4.5-5.2-8.4c0.8-3.9,4.2-6.4,7.9-5.7c3.9,0.8,5.4,4.3,4.6,8.2
			L258.9,351.2z"/>
		<path style="clip-path:url(#SVGID_00000150803363692382153430000017391730337347354507_);fill:#4B1F0D;" d="M275.9,356.4
			c-1,0.8-2.6,1.5-4.8,1.6c-4.3,0.1-7.2-3-7.4-6.9c-0.1-4,2.8-7.2,6.9-7.3c1.9-0.1,3.5,0.6,4.8,1.6l-0.7,1.1c-1.1-0.9-2.6-1.4-4-1.3
			c-3.2,0.1-5.6,2.7-5.5,6c0.1,3.3,2.5,5.7,5.9,5.6c1.3,0,2.6-0.4,3.4-0.9l-0.1-4.8l-2.9,0.1l0.1-1.3l4.2-0.1L275.9,356.4z"/>
	</g>
	<polygon class="st2" points="295,338.5 293.4,352.3 299.2,350.2 299.6,351.4 291.9,354.3 291.8,354.2 293.4,340.3 287.7,342.4 
		287.4,341.2 295,338.3 	"/>
	<g>
		<defs>
			<rect id="SVGID_00000098941050325397938080000000314864339180739000_" x="189.4" y="193.4" width="157.2" height="164.5"/>
		</defs>
		<clipPath id="SVGID_00000161616100509060432950000003414751032884930702_">
			<use xlink:href="#SVGID_00000098941050325397938080000000314864339180739000_"  style="overflow:visible;"/>
		</clipPath>
		<path style="clip-path:url(#SVGID_00000161616100509060432950000003414751032884930702_);fill:#4B1F0D;" d="M307.2,331.4l7.3,11.8
			l-1.2,0.7l-0.9-1.5c0,1.4-0.9,2.8-2.5,3.8c-2.6,1.6-5.3,1.2-7-1.6l-4.8-7.7l1.2-0.7l4.5,7.4c1.5,2.4,3.5,2.6,5.3,1.5
			c1.7-1,2.9-3.2,1.7-5.2l-4.8-7.9L307.2,331.4z"/>
		<path style="clip-path:url(#SVGID_00000161616100509060432950000003414751032884930702_);fill:#4B1F0D;" d="M328.6,319.2
			c-2.5-2-5.6-2-8,1l-2.1,2.6l8.8,7l2.1-2.6C331.8,324.2,331.1,321.2,328.6,319.2 M329.4,318.1c3.2,2.5,3.9,6.3,1,9.9l-2.9,3.7
			l-10.9-8.6l2.9-3.7C322.5,315.7,326.2,315.6,329.4,318.1"/>
	</g>
	
		<rect x="331.6" y="305.9" transform="matrix(0.4846 -0.8747 0.8747 0.4846 -102.3977 451.9627)" class="st2" width="1.4" height="13.9"/>
	<g>
		<defs>
			<rect id="SVGID_00000003824507731041793650000003114822105361649329_" x="189.4" y="193.4" width="157.2" height="164.5"/>
		</defs>
		<clipPath id="SVGID_00000099649579587764577610000015951747530110910372_">
			<use xlink:href="#SVGID_00000003824507731041793650000003114822105361649329_"  style="overflow:visible;"/>
		</clipPath>
		<path style="clip-path:url(#SVGID_00000099649579587764577610000015951747530110910372_);fill:#4B1F0D;" d="M332.5,297.4l0.7,1
			c-0.8,0.5-1.3,1.1-1.6,1.9c-0.8,2.1,0.6,4.1,3.6,5.2l7,2.7l-0.5,1.3l-12.9-5l0.5-1.3l1.9,0.7c-1-1.2-1.4-2.7-0.8-4.2
			C330.8,298.9,331.5,298.1,332.5,297.4"/>
		<path style="clip-path:url(#SVGID_00000099649579587764577610000015951747530110910372_);fill:#4B1F0D;" d="M344.4,299.7
			c-0.5-0.1-0.8-0.7-0.7-1.2c0.1-0.5,0.7-0.8,1.2-0.7c0.6,0.2,0.8,0.7,0.7,1.2C345.4,299.5,344.9,299.8,344.4,299.7"/>
		<path style="clip-path:url(#SVGID_00000099649579587764577610000015951747530110910372_);fill:#009594;" d="M286,254
			c-0.3,2.9-2.2,5.4-4.4,7.4c-1.9,1.7-4.3,3.1-6.4,4.6c0.6-1.3,0.7-2.4,0.6-3.6c-0.2-1.4-0.9-2.4-1.2-3.7c-0.6-2.3,0.1-4.8,1.4-6.7
			c2.8-4,8-5.1,11-8.9c-0.7,2.4-1.2,4.4-1.2,6.9C285.8,251.2,286.2,252.7,286,254 M268.3,263c-0.3-0.4-0.6-1-1-1.4
			c-0.7-0.8-1.6-1.3-2.3-2c-2.1-1.8-3.5-4.6-3.4-7.3c0.2-3.9,2.3-7.1,1.7-10.8c0.6,1.1,1,1.6,1.7,2.6c0.7,0.9,1.5,1.7,2.3,2.6
			c1.3,1.4,2.6,3,3.2,4.8C271.5,254.7,270.6,260.3,268.3,263 M269.8,299.3c-0.3,2.5-2.1,4.8-4.2,6.3c-1.8,1.4-4.3,2.6-6.5,3
			c-0.2-1-0.2-2-0.6-3.1c-1.1-3.2-0.7-7,1.5-9.7c1.2-1.5,2.9-2.5,4.3-3.9c1.4-1.5,2.2-3.2,2.2-5.1
			C267.6,291.1,270.3,295,269.8,299.3 M245.7,289.9c-4.7-0.9-9.1-3.7-13.9-3.7c2.7-1.1,4.3-3.4,6.1-5.4c3.5-3.9,9-6.2,14-4.8
			c2.1,0.6,4,1.6,5.9,2.8c1.9,1.1,4.7,2.8,6,4.4c-2,0.6-3.5,2-5.2,3.4C255,289.4,250.2,290.7,245.7,289.9 M254,254.6
			c2.5,1.5,4.3,4.1,5.6,6.7c1.3,2.6,2.2,5.4,2.7,8.3c0.2,1.3,0.1,5.1,0.1,5.1s-1.7-1.2-2.3-1.4c-0.8-0.4-1.8-0.5-2.7-0.7
			c-3.1-0.5-6.5-1.2-8.6-3.5c-2.3-2.5-2.7-6.1-3.3-9.5c-0.6-3.4-2.1-7-5-8.5C245,252.3,250,252.2,254,254.6 M268.7,219.8
			c-29.3,0-53.1,23.8-53.1,53.1c0,29.3,23.8,53.1,53.1,53.1c29.3,0,53.1-23.8,53.1-53.1C321.8,243.6,298,219.8,268.7,219.8"/>
	</g>
</g>
</svg>
