<?xml version="1.0" encoding="UTF-8"?>
<svg id="a" data-name="Ebene 1" xmlns="http://www.w3.org/2000/svg" xmlns:xlink="http://www.w3.org/1999/xlink" viewBox="0 0 537.33 523.86">
  <defs>
    <clipPath id="b">
      <rect x="189.39" y="193.44" width="157.23" height="164.53" style="fill: none;"/>
    </clipPath>
    <clipPath id="c">
      <rect x="189.39" y="193.44" width="157.23" height="164.53" style="fill: none;"/>
    </clipPath>
    <clipPath id="d">
      <rect x="189.39" y="193.44" width="157.23" height="164.53" style="fill: none;"/>
    </clipPath>
    <clipPath id="e">
      <rect x="189.39" y="193.44" width="157.23" height="164.53" style="fill: none;"/>
    </clipPath>
    <clipPath id="f">
      <rect x="189.39" y="193.44" width="157.23" height="164.53" style="fill: none;"/>
    </clipPath>
    <clipPath id="g">
      <rect x="189.39" y="193.44" width="157.23" height="164.53" style="fill: none;"/>
    </clipPath>
    <clipPath id="h">
      <rect x="189.39" y="193.44" width="157.23" height="164.53" style="fill: none;"/>
    </clipPath>
  </defs>
  <path d="M314.37,171.5l15.52-32.23c4.7-9.77,6.83-19.89,6.75-29.74-.01-44.42-32.16-72.79-67.98-109.53-35.82,36.74-67.97,65.11-67.98,109.53-.08,9.85,2.04,19.97,6.75,29.74l15.52,32.23c13.99-6.16,29.45-9.6,45.72-9.6s31.72,3.44,45.72,9.6Z" style="fill: #009594;"/>
  <path d="M215.79,174.94l-15.53-32.23c-4.71-9.77-11.29-17.74-19.04-23.81-34.74-27.68-76.96-20.24-128.02-15.14,6.39,50.92,8.53,93.73,43.25,121.44,7.65,6.2,16.88,10.85,27.46,13.27l34.86,7.96c8.21-31.03,29.21-56.84,57.02-71.48Z" style="fill: #fdc300;"/>
  <path d="M157.03,254.17l-34.88-7.96c-10.57-2.41-20.91-2.23-30.49,.04-43.3,9.9-63.8,47.55-91.65,90.65,43.79,26.75,78.6,51.77,121.91,41.9,9.62-2.11,19.01-6.43,27.49-13.2l27.97-22.3c-14.06-18.92-22.38-42.35-22.38-67.73,0-7.32,.72-14.47,2.04-21.4Z" style="fill: #4b1f0d;"/>
  <path d="M182.34,349.49l-27.99,22.33c-8.48,6.76-14.78,14.96-18.98,23.87-19.26,40.03-2.6,79.53,13.74,128.18,48.22-17.56,89.48-29.18,108.77-69.19,4.35-8.84,6.82-18.88,6.82-29.72v-35.8c-32.94-1.13-62.31-16.27-82.36-39.65Z" style="fill: #009594;"/>
  <path d="M272.64,389.14v35.8c0,10.84,2.49,20.88,6.83,29.72,19.29,40.01,60.56,51.62,108.78,69.18,16.33-48.65,32.98-88.15,13.71-128.18-4.2-8.91-10.5-17.1-18.98-23.86l-27.99-22.32c-20.04,23.39-49.41,38.53-82.35,39.67Z" style="fill: #8b1878;"/>
  <path d="M445.66,246.22c-9.58-2.27-19.92-2.45-30.49-.04l-34.88,7.96c1.32,6.94,2.04,14.1,2.04,21.42,0,25.37-8.32,48.8-22.37,67.72l27.97,22.3c8.48,6.76,17.87,11.08,27.49,13.19,43.31,9.87,78.11-15.16,121.9-41.92-27.86-43.1-48.36-80.75-91.67-90.64Z" style="fill: #ab632d;"/>
  <path d="M378.54,246.4l34.86-7.97c10.57-2.42,19.81-7.07,27.45-13.27,34.72-27.71,36.85-70.53,43.23-121.45-51.06-5.09-93.28-12.53-128.02,15.16-7.75,6.08-14.34,14.05-19.04,23.82l-15.52,32.23c27.81,14.64,48.82,40.44,57.03,71.47Z" style="fill: #8b1878;"/>
  <path d="M275.82,269.87v-.03h-.02l42.26-87.77c-2.33-1.23-4.71-2.38-7.13-3.44l-42.26,87.78v-.03l-.03,.03-42.26-87.78c-2.43,1.06-4.82,2.21-7.15,3.45l42.28,87.77h-.03v.02l-94.97-21.68c-.68,2.54-1.26,5.13-1.75,7.74l94.97,21.66-.02,.02h.03l-76.16,60.74c1.57,2.13,3.24,4.19,4.97,6.19l76.13-60.73v.03l.02-.02v97.39c1.32,.05,2.63,.1,3.96,.1s2.66-.05,3.98-.1l-.02-97.39,.02,.02v-.03l76.14,60.72c1.73-2,3.39-4.06,4.96-6.19l-76.17-60.72h.03l-.02-.03,94.97-21.68c-.49-2.61-1.07-5.2-1.75-7.74l-94.98,21.7Z" style="fill: #fdc300;"/>
  <path d="M268.66,266.39v.03l42.28-87.78c-12.95-5.66-27.24-8.81-42.28-8.81s-29.33,3.16-42.28,8.81l42.26,87.78v-.03Z" style="fill: #fdc300;"/>
  <path d="M261.48,269.84h.03l-42.28-87.76c-25.67,13.6-45.06,37.45-52.72,66.1l94.98,21.68v-.03Z" style="fill: #fdc300;"/>
  <path d="M259.71,277.61l.02-.02-94.97-21.66c-1.2,6.37-1.85,12.93-1.85,19.64,0,23.51,7.68,45.22,20.66,62.78l76.16-60.73h-.03Z" style="fill: #fdc300;"/>
  <path d="M264.67,283.85v-.03l-76.13,60.73c18.59,21.57,45.72,35.55,76.16,36.67v-97.39l-.02,.02Z" style="fill: #fdc300;"/>
  <path d="M272.64,283.84l-.02-.02,.02,97.39c30.43-1.13,57.57-15.11,76.15-36.68l-76.14-60.72v.03Z" style="fill: #fdc300;"/>
  <path d="M277.61,277.61h-.03l76.17,60.73c12.97-17.56,20.65-39.26,20.65-62.77,0-6.72-.65-13.29-1.85-19.66l-94.97,21.68,.02,.02Z" style="fill: #fdc300;"/>
  <path d="M275.84,269.84v.03l94.96-21.7c-7.67-28.65-27.06-52.5-52.73-66.1l-42.26,87.77h.03Z" style="fill: #fdc300;"/>
  <g>
    <path d="M154.64,416.66c.08,.04,.17,.12,.27,.25l7.88,10.26c-.02-.16-.03-.32-.04-.48,0-.16,0-.31,0-.45v-9.64h1.62v13.61h-.93c-.15,0-.27-.03-.37-.08-.1-.05-.2-.14-.29-.26l-7.88-10.25c.01,.16,.02,.31,.03,.47,0,.15,0,.29,0,.42v9.7h-1.61v-13.61h.95c.17,0,.29,.02,.37,.06Z" style="fill: #fff;"/>
    <path d="M174.49,430.21h-.75c-.16,0-.3-.03-.4-.08-.1-.05-.17-.16-.2-.32l-.19-.89c-.25,.23-.5,.43-.74,.61-.24,.18-.49,.33-.76,.46-.27,.12-.55,.22-.85,.28-.3,.06-.63,.1-1,.1s-.72-.05-1.05-.16c-.33-.11-.61-.26-.85-.47-.24-.21-.43-.47-.57-.8-.14-.32-.21-.7-.21-1.14,0-.38,.1-.75,.31-1.1,.21-.35,.55-.67,1.01-.94s1.08-.5,1.83-.67c.75-.17,1.67-.26,2.76-.26v-.75c0-.75-.16-1.32-.48-1.71-.32-.39-.79-.58-1.42-.58-.41,0-.76,.05-1.04,.16-.28,.1-.53,.22-.73,.35-.21,.13-.38,.25-.53,.35-.15,.1-.3,.16-.44,.16-.11,0-.21-.03-.3-.09-.08-.06-.15-.13-.2-.22l-.3-.54c.53-.51,1.1-.9,1.72-1.15,.61-.25,1.3-.38,2.04-.38,.54,0,1.02,.09,1.43,.27,.42,.18,.77,.42,1.05,.74s.5,.7,.65,1.15,.22,.94,.22,1.48v6.16Zm-4.39-1.04c.3,0,.57-.03,.82-.09,.25-.06,.48-.15,.7-.26,.22-.11,.43-.25,.63-.4,.2-.16,.39-.34,.58-.54v-1.99c-.78,0-1.44,.05-1.99,.15-.54,.1-.99,.23-1.33,.39-.34,.16-.59,.35-.75,.56s-.23,.46-.23,.73,.04,.47,.12,.66c.08,.18,.19,.34,.33,.45,.14,.12,.3,.2,.49,.26,.19,.05,.4,.08,.62,.08Z" style="fill: #fff;"/>
    <path d="M179.98,430.37c-.76,0-1.34-.21-1.75-.64-.41-.42-.61-1.04-.61-1.83v-5.89h-1.16c-.1,0-.19-.03-.26-.09s-.1-.15-.1-.28v-.67l1.58-.2,.39-2.97c.01-.09,.05-.17,.12-.23,.07-.06,.16-.09,.27-.09h.85v3.32h2.75v1.23h-2.75v5.78c0,.41,.1,.71,.29,.9s.45,.29,.76,.29c.18,0,.33-.02,.46-.07,.13-.05,.24-.1,.34-.16s.18-.11,.24-.16c.07-.05,.12-.07,.18-.07,.09,0,.17,.05,.24,.16l.49,.81c-.29,.27-.64,.49-1.05,.64-.41,.16-.84,.23-1.27,.23Z" style="fill: #fff;"/>
    <path d="M185.61,420.59v6.14c0,.73,.17,1.29,.5,1.69,.34,.4,.84,.6,1.52,.6,.49,0,.96-.12,1.4-.35,.44-.23,.84-.56,1.21-.98v-7.1h1.69v9.62h-1.01c-.24,0-.39-.12-.46-.35l-.13-1.04c-.42,.46-.89,.83-1.41,1.12-.52,.28-1.11,.42-1.79,.42-.53,0-.99-.09-1.39-.26-.4-.17-.74-.42-1.01-.74-.27-.32-.48-.7-.61-1.15-.14-.45-.2-.95-.2-1.49v-6.14h1.69Z" style="fill: #fff;"/>
    <path d="M194.71,430.21v-9.62h.97c.18,0,.31,.04,.38,.1,.07,.07,.12,.19,.14,.36l.11,1.5c.33-.67,.74-1.2,1.22-1.57,.48-.38,1.05-.56,1.71-.56,.27,0,.51,.03,.72,.09,.21,.06,.42,.14,.6,.25l-.22,1.26c-.04,.16-.14,.24-.29,.24-.09,0-.22-.03-.41-.09-.18-.06-.44-.09-.77-.09-.59,0-1.08,.17-1.48,.51-.4,.34-.73,.84-.99,1.49v6.13h-1.69Z" style="fill: #fff;"/>
    <path d="M202.37,430.21v-13.99h1.69v5.66c.41-.44,.87-.79,1.37-1.05,.5-.26,1.08-.39,1.73-.39,.53,0,.99,.09,1.39,.26,.4,.17,.74,.42,1.01,.74,.27,.32,.47,.71,.61,1.15,.14,.45,.21,.95,.21,1.49v6.13h-1.69v-6.13c0-.73-.17-1.29-.5-1.7-.33-.4-.84-.6-1.53-.6-.5,0-.97,.12-1.4,.36-.43,.24-.83,.57-1.2,.98v7.09h-1.69Z" style="fill: #fff;"/>
    <path d="M216.74,420.44c.58,0,1.11,.1,1.6,.29,.49,.19,.91,.47,1.26,.84s.63,.81,.83,1.35c.2,.54,.3,1.15,.3,1.83,0,.27-.03,.44-.09,.53-.06,.09-.16,.13-.32,.13h-6.4c.01,.61,.09,1.14,.25,1.59,.15,.45,.36,.83,.63,1.13s.58,.53,.95,.67c.37,.15,.78,.22,1.23,.22,.42,0,.79-.05,1.1-.15,.31-.1,.57-.2,.79-.32,.22-.11,.41-.22,.56-.32,.15-.1,.28-.15,.38-.15,.14,0,.25,.05,.32,.16l.48,.62c-.21,.25-.46,.47-.75,.66s-.6,.34-.94,.46c-.33,.12-.68,.21-1.03,.27-.35,.06-.71,.09-1.05,.09-.66,0-1.28-.11-1.84-.34s-1.04-.55-1.45-.99c-.41-.43-.73-.97-.96-1.61-.23-.64-.34-1.37-.34-2.2,0-.67,.1-1.3,.31-1.88,.21-.58,.5-1.09,.89-1.51,.39-.43,.86-.76,1.42-1.01,.56-.24,1.18-.37,1.88-.37Zm.04,1.25c-.82,0-1.46,.24-1.93,.71s-.76,1.13-.87,1.96h5.23c0-.39-.05-.75-.16-1.08s-.27-.61-.47-.85-.46-.42-.76-.55-.64-.19-1.03-.19Z" style="fill: #fff;"/>
    <path d="M225.15,417.57c0,.17-.03,.32-.1,.46-.07,.14-.16,.27-.27,.38s-.24,.2-.38,.26-.3,.09-.47,.09-.32-.03-.46-.09c-.14-.06-.27-.15-.38-.26s-.2-.24-.26-.38-.09-.3-.09-.46,.03-.32,.09-.47c.06-.15,.15-.28,.26-.39,.11-.11,.24-.2,.38-.26,.14-.06,.3-.09,.46-.09s.32,.03,.47,.09c.15,.06,.27,.15,.38,.26,.11,.11,.2,.24,.27,.39,.07,.15,.1,.31,.1,.47Zm-.38,3.02v9.62h-1.69v-9.62h1.69Z" style="fill: #fff;"/>
    <path d="M229.63,416.22v13.99h-1.69v-13.99h1.69Z" style="fill: #fff;"/>
    <path d="M232.18,423.8h4.69v1.43h-4.69v-1.43Z" style="fill: #fff;"/>
    <path d="M172.25,439.02v8.24h.44c.13,0,.23-.02,.31-.05,.08-.03,.17-.11,.28-.21l3.04-3.26c.09-.1,.19-.18,.28-.25,.1-.06,.22-.09,.38-.09h1.54l-3.54,3.77c-.09,.11-.18,.2-.26,.28-.08,.08-.18,.16-.29,.22,.11,.08,.22,.16,.31,.26,.09,.1,.18,.21,.26,.34l3.76,4.75h-1.52c-.14,0-.26-.03-.36-.08-.1-.05-.19-.14-.28-.25l-3.16-3.94c-.09-.13-.19-.22-.29-.26s-.24-.06-.43-.06h-.47v4.6h-1.7v-13.99h1.7Z" style="fill: #fff;"/>
    <path d="M181.91,443.39v6.14c0,.73,.17,1.29,.5,1.69,.34,.4,.84,.6,1.52,.6,.49,0,.96-.12,1.4-.35,.44-.23,.84-.56,1.21-.98v-7.1h1.69v9.62h-1.01c-.24,0-.39-.12-.46-.35l-.13-1.04c-.42,.46-.89,.83-1.41,1.12-.52,.28-1.11,.42-1.79,.42-.53,0-.99-.09-1.39-.26-.4-.17-.74-.42-1.01-.74-.27-.32-.48-.7-.61-1.15-.14-.45-.2-.95-.2-1.49v-6.14h1.69Z" style="fill: #fff;"/>
    <path d="M191.02,453.01v-9.62h1.01c.24,0,.39,.12,.46,.35l.13,1.05c.42-.46,.88-.84,1.4-1.12,.52-.29,1.11-.43,1.79-.43,.53,0,.99,.09,1.39,.26,.4,.17,.74,.42,1.01,.74,.27,.32,.47,.71,.61,1.15,.14,.45,.21,.95,.21,1.49v6.13h-1.69v-6.13c0-.73-.17-1.29-.5-1.7-.33-.4-.84-.6-1.53-.6-.5,0-.97,.12-1.4,.36-.43,.24-.83,.57-1.2,.98v7.09h-1.69Z" style="fill: #fff;"/>
    <path d="M208.35,453.01c-.24,0-.39-.12-.46-.35l-.15-1.17c-.41,.5-.88,.9-1.41,1.2-.53,.3-1.13,.45-1.82,.45-.55,0-1.05-.11-1.5-.32-.45-.21-.83-.52-1.15-.94-.32-.41-.56-.92-.73-1.54s-.26-1.32-.26-2.12c0-.71,.1-1.37,.29-1.98,.19-.61,.46-1.14,.82-1.59,.36-.45,.79-.8,1.31-1.06,.51-.26,1.1-.38,1.75-.38,.59,0,1.09,.1,1.51,.3s.79,.48,1.12,.84v-5.34h1.69v13.99h-1.01Zm-3.28-1.24c.55,0,1.03-.13,1.45-.38,.41-.25,.8-.61,1.14-1.07v-4.66c-.31-.42-.65-.71-1.02-.88-.37-.17-.78-.25-1.23-.25-.9,0-1.59,.32-2.07,.96-.48,.64-.72,1.55-.72,2.74,0,.63,.05,1.16,.16,1.61,.11,.45,.27,.81,.47,1.1,.21,.29,.47,.5,.77,.63s.65,.2,1.04,.2Z" style="fill: #fff;"/>
    <path d="M216.01,443.24c.58,0,1.11,.1,1.6,.29,.49,.19,.91,.47,1.26,.84s.63,.81,.83,1.35c.2,.54,.3,1.14,.3,1.83,0,.27-.03,.44-.09,.53-.06,.09-.16,.13-.32,.13h-6.4c.01,.61,.09,1.14,.25,1.59,.15,.45,.36,.83,.63,1.13s.58,.53,.95,.67c.37,.15,.78,.22,1.23,.22,.42,0,.79-.05,1.1-.15,.31-.1,.57-.2,.79-.32,.22-.11,.41-.22,.56-.32,.15-.1,.28-.15,.38-.15,.14,0,.25,.05,.32,.16l.48,.62c-.21,.25-.46,.47-.75,.66s-.6,.34-.94,.46c-.33,.12-.68,.21-1.03,.27-.35,.06-.71,.09-1.05,.09-.66,0-1.28-.11-1.84-.34s-1.04-.55-1.45-.99c-.41-.43-.73-.97-.96-1.61-.23-.64-.34-1.37-.34-2.2,0-.67,.1-1.3,.31-1.88,.21-.58,.5-1.09,.89-1.51,.39-.43,.86-.76,1.42-1.01,.56-.24,1.18-.37,1.88-.37Zm.04,1.24c-.82,0-1.46,.24-1.93,.71s-.76,1.13-.87,1.96h5.23c0-.39-.05-.75-.16-1.08s-.27-.61-.47-.85-.46-.42-.76-.55-.64-.2-1.03-.2Z" style="fill: #fff;"/>
  </g>
  <g>
    <path d="M351.62,155.46c.37,0,.7-.02,1.01-.05,.31-.04,.6-.09,.87-.16,.27-.07,.53-.15,.77-.25,.24-.1,.48-.21,.72-.34v-3h-2.11c-.12,0-.22-.03-.29-.1-.07-.07-.11-.15-.11-.26v-1.04h4.18v5.23c-.34,.25-.7,.46-1.07,.65s-.77,.34-1.19,.46c-.42,.12-.87,.22-1.35,.28-.48,.06-1,.09-1.57,.09-.99,0-1.89-.17-2.72-.51s-1.53-.81-2.13-1.42c-.59-.61-1.06-1.34-1.39-2.2-.33-.85-.5-1.8-.5-2.82s.16-1.99,.49-2.84c.33-.85,.79-1.59,1.4-2.2,.6-.61,1.34-1.08,2.19-1.42,.86-.34,1.82-.5,2.88-.5,.54,0,1.04,.04,1.5,.12,.46,.08,.89,.19,1.29,.34,.4,.15,.76,.33,1.1,.54s.65,.45,.94,.72l-.52,.84c-.11,.17-.25,.26-.42,.26-.1,0-.21-.03-.33-.1-.16-.09-.33-.2-.53-.32-.2-.13-.44-.25-.72-.37-.28-.12-.61-.22-1-.3-.38-.08-.84-.12-1.36-.12-.77,0-1.46,.12-2.08,.38-.62,.25-1.15,.61-1.59,1.07-.44,.47-.77,1.03-1.01,1.69-.23,.66-.35,1.4-.35,2.23s.12,1.63,.37,2.3c.24,.67,.59,1.25,1.03,1.71s.97,.83,1.58,1.07c.61,.25,1.28,.37,2.01,.37Z" style="fill: #fff;"/>
    <path d="M366.3,156.8h-.75c-.16,0-.3-.03-.4-.08-.1-.05-.17-.16-.2-.32l-.19-.89c-.25,.23-.5,.43-.74,.61-.24,.18-.49,.33-.76,.46-.27,.12-.55,.22-.85,.28-.3,.06-.63,.1-1,.1s-.72-.05-1.05-.16c-.33-.11-.61-.26-.85-.47-.24-.21-.43-.47-.57-.8-.14-.32-.21-.7-.21-1.14,0-.38,.1-.75,.31-1.1,.21-.35,.55-.67,1.01-.94,.47-.27,1.08-.5,1.83-.67,.75-.17,1.67-.26,2.76-.26v-.75c0-.75-.16-1.32-.48-1.71-.32-.39-.79-.58-1.42-.58-.41,0-.76,.05-1.04,.16-.28,.1-.53,.22-.73,.35-.21,.13-.38,.25-.53,.35-.15,.1-.3,.16-.44,.16-.11,0-.21-.03-.3-.09-.08-.06-.15-.13-.2-.22l-.3-.54c.53-.51,1.1-.9,1.72-1.15s1.3-.38,2.04-.38c.54,0,1.02,.09,1.43,.27s.77,.42,1.05,.74c.29,.32,.5,.7,.65,1.15,.15,.45,.22,.94,.22,1.48v6.16Zm-4.39-1.04c.3,0,.57-.03,.82-.09,.25-.06,.48-.15,.7-.26,.22-.11,.43-.25,.63-.4,.2-.16,.39-.34,.58-.54v-1.99c-.78,0-1.44,.05-1.99,.15-.54,.1-.99,.23-1.33,.39-.34,.16-.59,.35-.75,.56s-.23,.46-.23,.73,.04,.47,.12,.66c.08,.18,.19,.34,.33,.45,.14,.12,.3,.2,.49,.26,.19,.05,.4,.08,.62,.08Z" style="fill: #fff;"/>
    <path d="M368.86,156.8v-9.62h1.01c.24,0,.39,.12,.46,.35l.13,1.04c.42-.46,.88-.84,1.4-1.12,.52-.28,1.11-.43,1.79-.43,.53,0,.99,.09,1.39,.26s.74,.42,1.01,.74c.27,.32,.47,.7,.61,1.15s.21,.95,.21,1.49v6.13h-1.69v-6.13c0-.73-.17-1.29-.5-1.7-.33-.4-.84-.6-1.53-.6-.5,0-.97,.12-1.4,.36-.43,.24-.83,.57-1.2,.98v7.09h-1.69Z" style="fill: #fff;"/>
    <path d="M386.15,147.89c0,.12-.02,.24-.07,.35-.04,.11-.1,.21-.17,.3l-5.21,6.94h5.25v1.32h-7.25v-.7c0-.08,.02-.18,.06-.29,.04-.11,.1-.22,.18-.32l5.23-6.98h-5.18v-1.33h7.14v.72Z" style="fill: #fff;"/>
    <path d="M388.21,156.8v-13.99h1.69v5.66c.41-.44,.87-.79,1.37-1.05,.5-.26,1.08-.39,1.73-.39,.53,0,.99,.09,1.39,.26s.74,.42,1.01,.74c.27,.32,.47,.7,.61,1.15s.21,.95,.21,1.49v6.13h-1.69v-6.13c0-.73-.17-1.29-.5-1.7-.33-.4-.84-.6-1.53-.6-.5,0-.97,.12-1.4,.36-.43,.24-.83,.57-1.2,.98v7.09h-1.69Z" style="fill: #fff;"/>
    <path d="M402.58,147.02c.58,0,1.11,.1,1.6,.29,.49,.19,.91,.47,1.26,.84,.35,.36,.63,.81,.83,1.35,.2,.54,.3,1.15,.3,1.83,0,.27-.03,.44-.09,.53-.06,.09-.16,.13-.32,.13h-6.4c.01,.61,.09,1.14,.25,1.59,.15,.45,.36,.83,.63,1.13s.58,.53,.95,.67c.37,.15,.78,.22,1.23,.22,.42,0,.79-.05,1.1-.15,.31-.1,.57-.2,.79-.32,.22-.11,.41-.22,.56-.32,.15-.1,.28-.15,.38-.15,.14,0,.25,.05,.32,.16l.48,.62c-.21,.25-.46,.47-.75,.66s-.6,.34-.94,.46c-.33,.12-.68,.21-1.03,.27-.35,.06-.71,.09-1.05,.09-.66,0-1.28-.11-1.84-.34s-1.04-.55-1.45-.99c-.41-.43-.73-.97-.96-1.61-.23-.64-.34-1.37-.34-2.2,0-.67,.1-1.3,.31-1.88,.21-.58,.5-1.09,.89-1.52,.39-.43,.86-.76,1.42-1.01s1.18-.37,1.88-.37Zm.04,1.24c-.82,0-1.46,.24-1.93,.71s-.76,1.13-.87,1.96h5.23c0-.39-.05-.75-.16-1.08-.11-.33-.27-.61-.47-.85-.21-.24-.46-.42-.76-.55-.3-.13-.64-.19-1.03-.19Z" style="fill: #fff;"/>
    <path d="M410.99,144.15c0,.17-.03,.32-.1,.46-.07,.14-.16,.27-.27,.38-.11,.11-.24,.2-.38,.26s-.3,.1-.47,.1-.32-.03-.46-.1c-.14-.06-.27-.15-.38-.26-.11-.11-.2-.24-.26-.38s-.09-.3-.09-.46,.03-.32,.09-.47,.15-.28,.26-.39c.11-.11,.24-.2,.38-.26,.14-.06,.3-.09,.46-.09s.32,.03,.47,.09c.15,.06,.27,.15,.38,.26,.11,.11,.2,.24,.27,.39,.07,.15,.1,.31,.1,.47Zm-.38,3.02v9.62h-1.69v-9.62h1.69Z" style="fill: #fff;"/>
    <path d="M416.51,156.95c-.76,0-1.34-.21-1.75-.64-.41-.42-.61-1.04-.61-1.83v-5.89h-1.16c-.1,0-.19-.03-.26-.09-.07-.06-.1-.15-.1-.28v-.67l1.58-.2,.39-2.97c.01-.1,.05-.17,.12-.23s.16-.09,.27-.09h.85v3.32h2.75v1.23h-2.75v5.78c0,.41,.1,.71,.29,.9s.45,.29,.76,.29c.18,0,.33-.02,.46-.07,.13-.05,.24-.1,.34-.16s.18-.11,.24-.16c.07-.05,.12-.07,.18-.07,.09,0,.17,.05,.24,.16l.49,.81c-.29,.27-.64,.49-1.05,.64-.41,.16-.84,.23-1.27,.23Z" style="fill: #fff;"/>
    <path d="M422.56,142.8v13.99h-1.69v-13.99h1.69Z" style="fill: #fff;"/>
    <path d="M427.8,144.15c0,.17-.03,.32-.1,.46-.07,.14-.16,.27-.27,.38-.11,.11-.24,.2-.38,.26s-.3,.1-.47,.1-.32-.03-.46-.1c-.14-.06-.27-.15-.38-.26-.11-.11-.2-.24-.26-.38s-.09-.3-.09-.46,.03-.32,.09-.47,.15-.28,.26-.39c.11-.11,.24-.2,.38-.26,.14-.06,.3-.09,.46-.09s.32,.03,.47,.09c.15,.06,.27,.15,.38,.26,.11,.11,.2,.24,.27,.39,.07,.15,.1,.31,.1,.47Zm-.38,3.02v9.62h-1.69v-9.62h1.69Z" style="fill: #fff;"/>
    <path d="M436.97,148.88c-.05,.07-.1,.12-.15,.16s-.12,.06-.22,.06-.2-.04-.31-.12c-.11-.08-.25-.17-.42-.26-.17-.09-.38-.18-.62-.26-.24-.08-.54-.12-.9-.12-.47,0-.88,.08-1.24,.25s-.66,.41-.91,.73c-.24,.32-.43,.7-.55,1.15-.12,.45-.19,.95-.19,1.51s.07,1.1,.2,1.55c.13,.45,.32,.83,.56,1.14,.24,.31,.53,.54,.88,.7,.35,.16,.73,.24,1.16,.24s.75-.05,1.02-.15c.27-.1,.49-.21,.67-.33,.18-.12,.32-.23,.44-.33,.11-.1,.23-.15,.34-.15,.15,0,.25,.05,.32,.16l.48,.62c-.42,.51-.94,.89-1.57,1.12-.63,.24-1.29,.36-1.99,.36-.6,0-1.16-.11-1.68-.33-.52-.22-.96-.54-1.34-.96-.38-.42-.68-.94-.9-1.55-.22-.61-.33-1.31-.33-2.1,0-.72,.1-1.38,.3-1.99,.2-.61,.49-1.13,.87-1.57,.38-.44,.86-.78,1.42-1.03,.56-.25,1.21-.37,1.94-.37,.67,0,1.27,.11,1.79,.33s.98,.53,1.38,.93l-.45,.61Z" style="fill: #fff;"/>
    <path d="M439.28,156.8v-13.99h1.69v5.66c.41-.44,.87-.79,1.37-1.05,.5-.26,1.08-.39,1.73-.39,.53,0,.99,.09,1.39,.26s.74,.42,1.01,.74c.27,.32,.47,.7,.61,1.15s.21,.95,.21,1.49v6.13h-1.69v-6.13c0-.73-.17-1.29-.5-1.7-.33-.4-.84-.6-1.53-.6-.5,0-.97,.12-1.4,.36-.43,.24-.83,.57-1.2,.98v7.09h-1.69Z" style="fill: #fff;"/>
    <path d="M453.65,147.02c.58,0,1.11,.1,1.6,.29,.49,.19,.91,.47,1.26,.84,.35,.36,.63,.81,.83,1.35,.2,.54,.3,1.15,.3,1.83,0,.27-.03,.44-.09,.53-.06,.09-.16,.13-.32,.13h-6.4c.01,.61,.09,1.14,.25,1.59,.15,.45,.36,.83,.63,1.13s.58,.53,.95,.67c.37,.15,.78,.22,1.23,.22,.42,0,.79-.05,1.1-.15,.31-.1,.57-.2,.79-.32,.22-.11,.41-.22,.56-.32,.15-.1,.28-.15,.38-.15,.14,0,.25,.05,.32,.16l.48,.62c-.21,.25-.46,.47-.75,.66s-.6,.34-.94,.46c-.33,.12-.68,.21-1.03,.27-.35,.06-.71,.09-1.05,.09-.66,0-1.28-.11-1.84-.34s-1.04-.55-1.45-.99c-.41-.43-.73-.97-.96-1.61-.23-.64-.34-1.37-.34-2.2,0-.67,.1-1.3,.31-1.88,.21-.58,.5-1.09,.89-1.52,.39-.43,.86-.76,1.42-1.01s1.18-.37,1.88-.37Zm.04,1.24c-.82,0-1.46,.24-1.93,.71s-.76,1.13-.87,1.96h5.23c0-.39-.05-.75-.16-1.08-.11-.33-.27-.61-.47-.85-.21-.24-.46-.42-.76-.55-.3-.13-.64-.19-1.03-.19Z" style="fill: #fff;"/>
    <path d="M340.24,174.5v5.09h-1.83v-13.61h4.02c.86,0,1.61,.1,2.25,.3s1.16,.48,1.58,.85,.73,.81,.94,1.33c.21,.52,.31,1.1,.31,1.74s-.11,1.21-.33,1.74c-.22,.53-.55,.98-.97,1.36-.43,.38-.96,.68-1.59,.89-.63,.21-1.36,.32-2.18,.32h-2.18Zm0-1.46h2.18c.53,0,.99-.07,1.39-.21,.4-.14,.74-.33,1.01-.58,.27-.25,.48-.55,.62-.9,.14-.35,.21-.73,.21-1.15,0-.87-.27-1.54-.8-2.03-.54-.49-1.34-.73-2.43-.73h-2.18v5.61Z" style="fill: #fff;"/>
    <path d="M355.07,171.56c-.08,.14-.19,.21-.35,.21-.1,0-.2-.03-.32-.1-.12-.07-.27-.15-.44-.23-.17-.09-.38-.17-.62-.24-.24-.07-.53-.11-.85-.11-.29,0-.54,.04-.77,.11-.23,.07-.42,.17-.58,.3-.16,.13-.29,.27-.37,.44-.08,.17-.13,.35-.13,.55,0,.25,.07,.45,.21,.62s.33,.31,.57,.43c.23,.12,.5,.23,.8,.32,.3,.09,.6,.19,.92,.29s.62,.22,.92,.35c.3,.13,.56,.29,.8,.48,.23,.19,.42,.42,.57,.7s.21,.61,.21,.99c0,.44-.08,.85-.24,1.23s-.39,.7-.7,.98-.69,.49-1.14,.65c-.45,.16-.97,.24-1.56,.24-.67,0-1.28-.11-1.82-.33-.54-.22-1.01-.5-1.39-.84l.4-.65c.05-.08,.11-.15,.18-.19,.07-.04,.16-.07,.28-.07s.23,.04,.36,.13c.13,.09,.28,.19,.46,.29s.4,.21,.66,.29c.26,.09,.58,.13,.96,.13,.33,0,.62-.04,.86-.13,.25-.08,.45-.2,.62-.35,.17-.15,.29-.31,.37-.5,.08-.19,.12-.39,.12-.61,0-.27-.07-.49-.21-.66-.14-.17-.33-.32-.57-.45-.23-.12-.5-.23-.8-.32s-.61-.19-.92-.29-.62-.22-.92-.35c-.3-.13-.57-.29-.8-.49s-.42-.44-.56-.73-.21-.64-.21-1.05c0-.37,.08-.72,.23-1.06,.15-.34,.37-.64,.67-.89,.29-.26,.65-.46,1.07-.61,.42-.15,.91-.23,1.45-.23,.63,0,1.2,.1,1.71,.3,.5,.2,.94,.47,1.31,.82l-.38,.62Z" style="fill: #fff;"/>
    <path d="M360.63,182.44c-.06,.13-.13,.23-.21,.3-.09,.08-.22,.11-.39,.11h-1.25l1.76-3.82-3.97-9.06h1.46c.15,0,.26,.04,.34,.11,.08,.07,.14,.15,.18,.24l2.58,6.06c.06,.14,.11,.28,.15,.42,.04,.14,.08,.28,.11,.43,.04-.15,.09-.29,.13-.43,.04-.14,.1-.28,.15-.43l2.5-6.05c.04-.1,.1-.18,.19-.25s.19-.1,.3-.1h1.35l-5.37,12.46Z" style="fill: #fff;"/>
    <path d="M373.85,171.68c-.05,.07-.1,.12-.15,.16s-.12,.06-.22,.06-.2-.04-.31-.12c-.11-.08-.25-.17-.42-.26s-.38-.18-.62-.26c-.24-.08-.54-.12-.9-.12-.47,0-.88,.08-1.24,.25s-.66,.41-.91,.73-.43,.7-.55,1.15c-.12,.45-.19,.95-.19,1.51s.07,1.1,.2,1.55c.13,.45,.32,.83,.56,1.14,.24,.31,.53,.54,.88,.7,.35,.16,.73,.24,1.16,.24s.75-.05,1.02-.15c.27-.1,.49-.21,.67-.33,.18-.12,.32-.23,.44-.33,.11-.1,.23-.15,.34-.15,.15,0,.25,.05,.32,.16l.48,.62c-.42,.51-.94,.89-1.57,1.12-.63,.24-1.29,.36-1.99,.36-.6,0-1.16-.11-1.68-.33-.52-.22-.96-.54-1.34-.96-.38-.42-.68-.94-.9-1.55-.22-.61-.33-1.31-.33-2.1,0-.72,.1-1.38,.3-1.99,.2-.61,.49-1.13,.87-1.57,.38-.44,.86-.78,1.42-1.03,.56-.25,1.21-.37,1.94-.37,.67,0,1.27,.11,1.79,.33,.52,.22,.98,.53,1.38,.93l-.45,.61Z" style="fill: #fff;"/>
    <path d="M376.16,179.6v-13.99h1.69v5.66c.41-.44,.87-.79,1.37-1.05,.5-.26,1.08-.39,1.73-.39,.53,0,.99,.09,1.39,.26,.4,.17,.74,.42,1.01,.74,.27,.32,.47,.71,.61,1.15,.14,.45,.21,.95,.21,1.49v6.13h-1.69v-6.13c0-.73-.17-1.29-.5-1.7-.33-.4-.84-.6-1.53-.6-.5,0-.97,.12-1.4,.36-.43,.24-.83,.57-1.2,.98v7.09h-1.69Z" style="fill: #fff;"/>
    <path d="M390.62,169.82c.7,0,1.34,.12,1.9,.35,.57,.23,1.05,.57,1.44,1s.7,.95,.91,1.56c.21,.61,.32,1.29,.32,2.05s-.11,1.44-.32,2.05c-.21,.61-.52,1.13-.91,1.56s-.88,.76-1.44,.99c-.57,.23-1.2,.35-1.9,.35s-1.34-.12-1.91-.35c-.57-.23-1.05-.56-1.45-.99-.4-.43-.71-.95-.92-1.56-.21-.61-.32-1.29-.32-2.05s.11-1.44,.32-2.05c.22-.61,.52-1.13,.92-1.56,.4-.43,.88-.76,1.45-1,.57-.23,1.2-.35,1.91-.35Zm0,8.59c.95,0,1.66-.32,2.13-.96,.47-.64,.7-1.52,.7-2.66s-.23-2.04-.7-2.68-1.18-.96-2.13-.96c-.48,0-.9,.08-1.25,.25-.36,.16-.65,.4-.89,.71-.24,.31-.42,.69-.53,1.15-.12,.45-.18,.96-.18,1.53s.06,1.08,.18,1.53c.12,.45,.29,.83,.53,1.13,.24,.31,.53,.54,.89,.71,.35,.17,.77,.25,1.25,.25Z" style="fill: #fff;"/>
    <path d="M400.21,179.75c-.76,0-1.34-.21-1.75-.64-.41-.42-.61-1.04-.61-1.83v-5.89h-1.16c-.1,0-.19-.03-.26-.09-.07-.06-.1-.15-.1-.28v-.67l1.58-.2,.39-2.97c.01-.1,.05-.17,.12-.23,.07-.06,.16-.09,.27-.09h.85v3.32h2.75v1.23h-2.75v5.78c0,.41,.1,.71,.29,.9s.45,.29,.76,.29c.18,0,.33-.02,.46-.07,.13-.05,.24-.1,.34-.16s.18-.11,.24-.16c.07-.05,.12-.07,.18-.07,.09,0,.17,.05,.24,.16l.49,.81c-.29,.27-.64,.49-1.05,.64-.41,.16-.84,.23-1.27,.23Z" style="fill: #fff;"/>
    <path d="M404.38,179.6v-13.99h1.69v5.66c.41-.44,.87-.79,1.37-1.05,.5-.26,1.08-.39,1.73-.39,.53,0,.99,.09,1.39,.26,.4,.17,.74,.42,1.01,.74,.27,.32,.47,.71,.61,1.15,.14,.45,.21,.95,.21,1.49v6.13h-1.69v-6.13c0-.73-.17-1.29-.5-1.7-.33-.4-.84-.6-1.53-.6-.5,0-.97,.12-1.4,.36-.43,.24-.83,.57-1.2,.98v7.09h-1.69Z" style="fill: #fff;"/>
    <path d="M418.75,169.82c.58,0,1.11,.1,1.6,.29,.49,.19,.91,.47,1.26,.84s.63,.81,.83,1.35c.2,.54,.3,1.14,.3,1.83,0,.27-.03,.44-.09,.53-.06,.09-.16,.13-.32,.13h-6.4c.01,.61,.09,1.14,.25,1.59,.15,.45,.36,.83,.63,1.13,.27,.3,.58,.53,.95,.67,.37,.15,.78,.22,1.23,.22,.42,0,.79-.05,1.1-.15,.31-.1,.57-.2,.79-.32,.22-.11,.41-.22,.56-.32,.15-.1,.28-.15,.38-.15,.14,0,.25,.05,.32,.16l.48,.62c-.21,.25-.46,.47-.75,.66s-.6,.34-.94,.46c-.33,.12-.68,.21-1.03,.27-.35,.06-.71,.09-1.05,.09-.66,0-1.28-.11-1.84-.34s-1.04-.55-1.45-.99c-.41-.43-.73-.97-.96-1.61-.23-.64-.34-1.37-.34-2.2,0-.67,.1-1.3,.31-1.88,.21-.58,.5-1.09,.89-1.51,.39-.43,.86-.76,1.42-1.01,.56-.24,1.18-.37,1.88-.37Zm.04,1.24c-.82,0-1.46,.24-1.93,.71s-.76,1.13-.87,1.96h5.23c0-.39-.05-.75-.16-1.08s-.27-.61-.47-.85-.46-.42-.76-.55-.64-.2-1.03-.2Z" style="fill: #fff;"/>
    <path d="M424.9,179.6v-9.62h.97c.18,0,.31,.03,.38,.1s.12,.19,.14,.36l.11,1.5c.33-.67,.74-1.2,1.22-1.57s1.05-.57,1.71-.57c.27,0,.51,.03,.72,.09,.21,.06,.42,.14,.6,.25l-.22,1.26c-.04,.16-.14,.24-.29,.24-.09,0-.22-.03-.41-.09-.18-.06-.44-.09-.77-.09-.59,0-1.08,.17-1.48,.51-.4,.34-.73,.84-.99,1.49v6.13h-1.69Z" style="fill: #fff;"/>
    <path d="M439.26,179.6h-.75c-.16,0-.3-.03-.4-.08-.1-.05-.17-.16-.2-.32l-.19-.89c-.25,.23-.5,.43-.74,.61-.24,.18-.49,.33-.76,.46-.27,.12-.55,.22-.85,.28-.3,.06-.63,.1-1,.1s-.72-.05-1.05-.16c-.33-.11-.61-.26-.85-.47-.24-.21-.43-.47-.57-.8-.14-.32-.21-.7-.21-1.14,0-.38,.1-.75,.31-1.1,.21-.35,.55-.67,1.01-.94s1.08-.5,1.83-.67c.75-.17,1.67-.26,2.76-.26v-.75c0-.75-.16-1.32-.48-1.71-.32-.39-.79-.58-1.42-.58-.41,0-.76,.05-1.04,.16-.28,.1-.53,.22-.73,.35-.21,.13-.38,.25-.53,.35-.15,.1-.3,.16-.44,.16-.11,0-.21-.03-.3-.09-.08-.06-.15-.13-.2-.22l-.3-.54c.53-.51,1.1-.9,1.72-1.15,.61-.25,1.3-.38,2.04-.38,.54,0,1.02,.09,1.43,.27,.42,.18,.77,.42,1.05,.74,.29,.32,.5,.7,.65,1.15,.15,.45,.22,.94,.22,1.48v6.16Zm-4.39-1.04c.3,0,.57-.03,.82-.09,.25-.06,.48-.15,.7-.26,.22-.11,.43-.25,.63-.4,.2-.16,.39-.34,.58-.54v-1.99c-.78,0-1.44,.05-1.99,.15-.54,.1-.99,.23-1.33,.39-.34,.16-.59,.35-.75,.56s-.23,.46-.23,.73,.04,.47,.12,.66c.08,.18,.19,.34,.33,.45,.14,.12,.3,.2,.49,.26,.19,.05,.4,.08,.62,.08Z" style="fill: #fff;"/>
    <path d="M441.83,182.85v-12.88h1.01c.24,0,.39,.12,.46,.35l.14,1.14c.41-.5,.88-.9,1.41-1.21,.53-.3,1.14-.46,1.83-.46,.55,0,1.05,.11,1.5,.32,.45,.21,.83,.53,1.15,.94,.32,.42,.56,.93,.73,1.54s.26,1.32,.26,2.12c0,.71-.09,1.37-.28,1.98-.19,.61-.46,1.14-.82,1.59-.35,.45-.79,.8-1.31,1.05-.52,.26-1.1,.38-1.74,.38-.59,0-1.1-.1-1.52-.29s-.79-.48-1.12-.84v4.26h-1.69Zm4.29-11.69c-.55,0-1.03,.13-1.45,.38-.42,.25-.8,.61-1.14,1.07v4.65c.31,.42,.65,.71,1.02,.88,.37,.17,.78,.26,1.24,.26,.89,0,1.58-.32,2.06-.96s.72-1.55,.72-2.74c0-.63-.05-1.17-.17-1.62-.11-.45-.27-.82-.48-1.11-.21-.29-.47-.5-.77-.63-.3-.13-.65-.2-1.04-.2Z" style="fill: #fff;"/>
    <path d="M454.57,166.95c0,.17-.03,.32-.1,.46-.07,.14-.16,.27-.27,.38s-.24,.2-.38,.26c-.15,.06-.3,.1-.47,.1s-.32-.03-.46-.1c-.14-.06-.27-.15-.38-.26s-.2-.24-.26-.38-.09-.3-.09-.46,.03-.32,.09-.47c.06-.15,.15-.28,.26-.39s.24-.2,.38-.26c.14-.06,.3-.09,.46-.09s.32,.03,.47,.09,.27,.15,.38,.26,.2,.24,.27,.39c.07,.15,.1,.31,.1,.47Zm-.38,3.02v9.62h-1.69v-9.62h1.69Z" style="fill: #fff;"/>
    <path d="M460.99,169.82c.58,0,1.11,.1,1.6,.29,.49,.19,.91,.47,1.26,.84s.63,.81,.83,1.35c.2,.54,.3,1.14,.3,1.83,0,.27-.03,.44-.09,.53-.06,.09-.16,.13-.32,.13h-6.4c.01,.61,.09,1.14,.25,1.59,.15,.45,.36,.83,.63,1.13s.58,.53,.95,.67c.37,.15,.78,.22,1.23,.22,.42,0,.79-.05,1.1-.15,.31-.1,.57-.2,.79-.32,.22-.11,.41-.22,.56-.32,.15-.1,.28-.15,.38-.15,.14,0,.25,.05,.32,.16l.48,.62c-.21,.25-.46,.47-.75,.66s-.6,.34-.94,.46c-.33,.12-.68,.21-1.03,.27-.35,.06-.71,.09-1.05,.09-.66,0-1.28-.11-1.84-.34s-1.04-.55-1.45-.99c-.41-.43-.73-.97-.96-1.61-.23-.64-.34-1.37-.34-2.2,0-.67,.1-1.3,.31-1.88,.21-.58,.5-1.09,.89-1.51,.39-.43,.86-.76,1.42-1.01,.56-.24,1.18-.37,1.88-.37Zm.04,1.24c-.82,0-1.46,.24-1.93,.71s-.76,1.13-.87,1.96h5.23c0-.39-.05-.75-.16-1.08s-.27-.61-.47-.85-.46-.42-.76-.55-.64-.2-1.03-.2Z" style="fill: #fff;"/>
  </g>
  <g>
    <path d="M92.56,131.81v1.5h-6.54v4.52h5.29v1.44h-5.29v4.65h6.54v1.5h-8.39v-13.61h8.39Z" style="fill: #4b1f0d;"/>
    <path d="M94.94,145.43v-9.62h1.01c.24,0,.39,.12,.46,.35l.13,1.04c.42-.46,.88-.84,1.4-1.12,.52-.28,1.11-.43,1.79-.43,.53,0,.99,.09,1.39,.26s.74,.42,1.01,.74c.27,.32,.47,.7,.61,1.15s.21,.95,.21,1.49v6.13h-1.69v-6.13c0-.73-.17-1.29-.5-1.7-.33-.4-.84-.6-1.53-.6-.5,0-.97,.12-1.4,.36-.43,.24-.83,.57-1.2,.98v7.09h-1.69Z" style="fill: #4b1f0d;"/>
    <path d="M109.32,135.65c.58,0,1.11,.1,1.6,.29,.49,.19,.91,.47,1.26,.84,.35,.36,.63,.81,.83,1.35,.2,.54,.3,1.15,.3,1.83,0,.27-.03,.44-.09,.53-.06,.09-.16,.13-.32,.13h-6.4c.01,.61,.09,1.14,.25,1.59,.15,.45,.36,.83,.63,1.13s.58,.53,.95,.67c.37,.15,.78,.22,1.23,.22,.42,0,.79-.05,1.1-.15,.31-.1,.57-.2,.79-.32,.22-.11,.41-.22,.56-.32,.15-.1,.28-.15,.38-.15,.14,0,.25,.05,.32,.16l.48,.62c-.21,.25-.46,.47-.75,.66s-.6,.34-.94,.46c-.33,.12-.68,.21-1.03,.27-.35,.06-.71,.09-1.05,.09-.66,0-1.28-.11-1.84-.34s-1.04-.55-1.45-.99c-.41-.43-.73-.97-.96-1.61-.23-.64-.34-1.37-.34-2.2,0-.67,.1-1.3,.31-1.88,.21-.58,.5-1.09,.89-1.52,.39-.43,.86-.76,1.42-1.01s1.18-.37,1.88-.37Zm.04,1.24c-.82,0-1.46,.24-1.93,.71s-.76,1.13-.87,1.96h5.23c0-.39-.05-.75-.16-1.08-.11-.33-.27-.61-.47-.85-.21-.24-.46-.42-.76-.55-.3-.13-.64-.19-1.03-.19Z" style="fill: #4b1f0d;"/>
    <path d="M115.46,145.43v-9.62h.97c.18,0,.31,.04,.38,.1,.07,.07,.12,.19,.14,.36l.11,1.5c.33-.67,.74-1.2,1.22-1.57,.48-.38,1.05-.56,1.71-.56,.27,0,.51,.03,.72,.09,.21,.06,.42,.14,.6,.25l-.22,1.26c-.04,.16-.14,.24-.29,.24-.09,0-.22-.03-.41-.09-.18-.06-.44-.09-.77-.09-.59,0-1.08,.17-1.48,.51-.4,.34-.73,.84-.99,1.49v6.13h-1.69Z" style="fill: #4b1f0d;"/>
    <path d="M126.36,135.64c.42,0,.81,.05,1.17,.14,.36,.09,.7,.23,.99,.4h2.61v.63c0,.21-.13,.34-.4,.4l-1.09,.15c.22,.41,.32,.87,.32,1.38,0,.47-.09,.89-.27,1.28s-.43,.71-.75,.98c-.32,.27-.7,.48-1.14,.63-.44,.15-.92,.22-1.45,.22-.45,0-.87-.05-1.27-.16-.2,.13-.36,.27-.46,.42-.1,.15-.16,.3-.16,.44,0,.24,.09,.41,.28,.54s.43,.21,.73,.26,.65,.08,1.04,.08h1.18c.4,0,.8,.04,1.18,.11,.39,.07,.73,.19,1.04,.35s.55,.38,.73,.66,.28,.65,.28,1.1c0,.42-.1,.82-.31,1.21-.21,.39-.5,.74-.89,1.04-.39,.3-.86,.55-1.42,.73-.56,.18-1.19,.27-1.89,.27s-1.32-.07-1.85-.21c-.53-.14-.97-.33-1.32-.56-.35-.23-.61-.51-.78-.81-.17-.31-.26-.63-.26-.96,0-.48,.15-.88,.45-1.21,.3-.33,.71-.6,1.24-.79-.27-.13-.49-.29-.65-.51-.16-.21-.24-.5-.24-.85,0-.14,.02-.28,.08-.43,.05-.15,.13-.29,.23-.44,.1-.14,.23-.28,.38-.42,.15-.13,.33-.25,.53-.35-.47-.27-.85-.62-1.12-1.06-.27-.44-.4-.96-.4-1.54,0-.47,.09-.89,.27-1.28,.18-.38,.43-.71,.76-.98,.32-.27,.71-.48,1.15-.62,.45-.15,.94-.22,1.47-.22Zm3,10.27c0-.25-.07-.44-.2-.59s-.31-.26-.54-.34c-.23-.08-.49-.14-.79-.18s-.61-.06-.94-.06h-1.01c-.34,0-.67-.04-.98-.13-.36,.17-.65,.38-.88,.63s-.34,.54-.34,.88c0,.22,.06,.42,.17,.6,.11,.19,.28,.35,.51,.49,.23,.14,.51,.24,.86,.32,.34,.08,.75,.12,1.22,.12s.86-.04,1.23-.13,.67-.2,.92-.36c.25-.16,.44-.34,.57-.55,.13-.21,.2-.45,.2-.71Zm-3-5.19c.34,0,.64-.05,.91-.14,.26-.09,.48-.23,.66-.4,.18-.17,.31-.38,.4-.61,.09-.24,.13-.5,.13-.78,0-.59-.18-1.06-.54-1.41-.36-.35-.88-.52-1.56-.52s-1.2,.17-1.55,.52-.54,.82-.54,1.41c0,.29,.05,.55,.14,.78,.09,.24,.23,.44,.4,.61,.18,.17,.4,.3,.66,.4,.26,.1,.56,.14,.89,.14Z" style="fill: #4b1f0d;"/>
    <path d="M136.64,135.65c.58,0,1.11,.1,1.6,.29,.49,.19,.91,.47,1.26,.84,.35,.36,.63,.81,.83,1.35,.2,.54,.3,1.15,.3,1.83,0,.27-.03,.44-.09,.53-.06,.09-.16,.13-.32,.13h-6.4c.01,.61,.09,1.14,.25,1.59,.15,.45,.36,.83,.63,1.13s.58,.53,.95,.67c.37,.15,.78,.22,1.23,.22,.42,0,.79-.05,1.1-.15,.31-.1,.57-.2,.79-.32,.22-.11,.41-.22,.56-.32,.15-.1,.28-.15,.38-.15,.14,0,.25,.05,.32,.16l.48,.62c-.21,.25-.46,.47-.75,.66s-.6,.34-.94,.46c-.33,.12-.68,.21-1.03,.27-.35,.06-.71,.09-1.05,.09-.66,0-1.28-.11-1.84-.34s-1.04-.55-1.45-.99c-.41-.43-.73-.97-.96-1.61-.23-.64-.34-1.37-.34-2.2,0-.67,.1-1.3,.31-1.88,.21-.58,.5-1.09,.89-1.52,.39-.43,.86-.76,1.42-1.01s1.18-.37,1.88-.37Zm.04,1.24c-.82,0-1.46,.24-1.93,.71s-.76,1.13-.87,1.96h5.23c0-.39-.05-.75-.16-1.08-.11-.33-.27-.61-.47-.85-.21-.24-.46-.42-.76-.55-.3-.13-.64-.19-1.03-.19Z" style="fill: #4b1f0d;"/>
    <path d="M145.7,145.58c-.76,0-1.34-.21-1.75-.64-.41-.42-.61-1.04-.61-1.83v-5.89h-1.16c-.1,0-.19-.03-.26-.09-.07-.06-.1-.15-.1-.28v-.67l1.58-.2,.39-2.97c.01-.1,.05-.17,.12-.23s.16-.09,.27-.09h.85v3.32h2.75v1.23h-2.75v5.78c0,.41,.1,.71,.29,.9s.45,.29,.76,.29c.18,0,.33-.02,.46-.07,.13-.05,.24-.1,.34-.16s.18-.11,.24-.16c.07-.05,.12-.07,.18-.07,.09,0,.17,.05,.24,.16l.49,.81c-.29,.27-.64,.49-1.05,.64-.41,.16-.84,.23-1.27,.23Z" style="fill: #4b1f0d;"/>
    <path d="M152.14,132.78c0,.17-.03,.32-.1,.46-.07,.14-.16,.27-.27,.38-.11,.11-.24,.2-.38,.26s-.3,.1-.47,.1-.32-.03-.46-.1c-.14-.06-.27-.15-.38-.26-.11-.11-.2-.24-.26-.38s-.09-.3-.09-.46,.03-.32,.09-.47,.15-.28,.26-.39c.11-.11,.24-.2,.38-.26,.14-.06,.3-.09,.46-.09s.32,.03,.47,.09c.15,.06,.27,.15,.38,.26,.11,.11,.2,.24,.27,.39,.07,.15,.1,.31,.1,.47Zm-.38,3.02v9.62h-1.69v-9.62h1.69Z" style="fill: #4b1f0d;"/>
    <path d="M160.25,137.39c-.08,.14-.19,.21-.35,.21-.1,0-.2-.03-.32-.1-.12-.07-.27-.15-.44-.23-.17-.09-.38-.17-.62-.24-.24-.07-.53-.11-.85-.11-.29,0-.54,.04-.77,.11-.23,.07-.42,.17-.58,.3-.16,.13-.29,.27-.37,.44-.08,.17-.13,.35-.13,.55,0,.25,.07,.45,.21,.62,.14,.17,.33,.31,.57,.43,.23,.12,.5,.23,.8,.32,.3,.09,.6,.19,.92,.29s.62,.22,.92,.35c.3,.13,.56,.28,.8,.47,.23,.19,.42,.42,.57,.7,.14,.28,.21,.61,.21,.99,0,.44-.08,.85-.24,1.23s-.39,.7-.7,.98-.69,.49-1.14,.65c-.45,.16-.97,.24-1.56,.24-.67,0-1.28-.11-1.82-.33-.54-.22-1.01-.5-1.39-.84l.4-.65c.05-.08,.11-.15,.18-.19,.07-.04,.16-.07,.28-.07s.23,.04,.36,.13c.13,.09,.28,.19,.46,.29s.4,.21,.66,.29c.26,.09,.58,.13,.96,.13,.33,0,.62-.04,.86-.13,.25-.08,.45-.2,.62-.35,.17-.15,.29-.31,.37-.5,.08-.19,.12-.39,.12-.61,0-.27-.07-.49-.21-.66-.14-.17-.33-.32-.57-.45s-.5-.23-.8-.32-.61-.19-.92-.29c-.31-.1-.62-.22-.92-.35-.3-.13-.57-.29-.8-.49s-.42-.44-.56-.73-.21-.64-.21-1.05c0-.37,.08-.72,.23-1.06,.15-.34,.37-.64,.67-.89,.29-.26,.65-.46,1.07-.61,.42-.15,.91-.23,1.45-.23,.63,0,1.2,.1,1.71,.3,.5,.2,.94,.47,1.31,.82l-.38,.62Z" style="fill: #4b1f0d;"/>
    <path d="M169.55,137.51c-.05,.07-.1,.12-.15,.16s-.12,.06-.22,.06-.2-.04-.31-.12c-.11-.08-.25-.17-.42-.26-.17-.09-.38-.18-.62-.26-.24-.08-.54-.12-.9-.12-.47,0-.88,.08-1.24,.25s-.66,.41-.91,.73c-.24,.32-.43,.7-.55,1.15-.12,.45-.19,.95-.19,1.51s.07,1.1,.2,1.55c.13,.45,.32,.83,.56,1.14,.24,.31,.53,.54,.88,.7,.35,.16,.73,.24,1.16,.24s.75-.05,1.02-.15c.27-.1,.49-.21,.67-.33,.18-.12,.32-.23,.44-.33,.11-.1,.23-.15,.34-.15,.15,0,.25,.05,.32,.16l.48,.62c-.42,.51-.94,.89-1.57,1.12-.63,.24-1.29,.36-1.99,.36-.6,0-1.16-.11-1.68-.33-.52-.22-.96-.54-1.34-.96-.38-.42-.68-.94-.9-1.55-.22-.61-.33-1.31-.33-2.1,0-.72,.1-1.38,.3-1.99,.2-.61,.49-1.13,.87-1.57,.38-.44,.86-.78,1.42-1.03,.56-.25,1.21-.37,1.94-.37,.67,0,1.27,.11,1.79,.33s.98,.53,1.38,.93l-.45,.61Z" style="fill: #4b1f0d;"/>
    <path d="M171.86,145.43v-13.99h1.69v5.66c.41-.44,.87-.79,1.37-1.05,.5-.26,1.08-.39,1.73-.39,.53,0,.99,.09,1.39,.26s.74,.42,1.01,.74c.27,.32,.47,.7,.61,1.15s.21,.95,.21,1.49v6.13h-1.69v-6.13c0-.73-.17-1.29-.5-1.7-.33-.4-.84-.6-1.53-.6-.5,0-.97,.12-1.4,.36-.43,.24-.83,.57-1.2,.98v7.09h-1.69Z" style="fill: #4b1f0d;"/>
    <path d="M186.23,135.65c.58,0,1.11,.1,1.6,.29,.49,.19,.91,.47,1.26,.84,.35,.36,.63,.81,.83,1.35,.2,.54,.3,1.15,.3,1.83,0,.27-.03,.44-.09,.53-.06,.09-.16,.13-.32,.13h-6.4c.01,.61,.09,1.14,.25,1.59,.15,.45,.36,.83,.63,1.13s.58,.53,.95,.67c.37,.15,.78,.22,1.23,.22,.42,0,.79-.05,1.1-.15,.31-.1,.57-.2,.79-.32,.22-.11,.41-.22,.56-.32,.15-.1,.28-.15,.38-.15,.14,0,.25,.05,.32,.16l.48,.62c-.21,.25-.46,.47-.75,.66s-.6,.34-.94,.46c-.33,.12-.68,.21-1.03,.27-.35,.06-.71,.09-1.05,.09-.66,0-1.28-.11-1.84-.34s-1.04-.55-1.45-.99c-.41-.43-.73-.97-.96-1.61-.23-.64-.34-1.37-.34-2.2,0-.67,.1-1.3,.31-1.88,.21-.58,.5-1.09,.89-1.52,.39-.43,.86-.76,1.42-1.01s1.18-.37,1.88-.37Zm.04,1.24c-.82,0-1.46,.24-1.93,.71s-.76,1.13-.87,1.96h5.23c0-.39-.05-.75-.16-1.08-.11-.33-.27-.61-.47-.85-.21-.24-.46-.42-.76-.55-.3-.13-.64-.19-1.03-.19Z" style="fill: #4b1f0d;"/>
    <path d="M76.7,154.46c.5,0,.96,.08,1.37,.24,.41,.16,.77,.38,1.07,.64,.3,.27,.54,.57,.71,.93,.17,.35,.27,.72,.3,1.1l-1.05,.21s-.06,0-.09,0c-.08,0-.16-.02-.23-.07-.07-.04-.12-.12-.16-.24-.04-.16-.12-.33-.21-.51-.1-.18-.23-.34-.38-.48-.16-.15-.34-.27-.56-.36-.22-.09-.47-.14-.77-.14-.32,0-.6,.05-.85,.15-.25,.1-.47,.24-.65,.42-.18,.18-.32,.39-.42,.64-.1,.24-.15,.51-.15,.79,0,.22,.03,.43,.08,.64,.05,.2,.13,.41,.24,.61,.11,.21,.25,.42,.42,.64,.17,.22,.38,.45,.62,.69l3.91,3.98c.24-.42,.43-.87,.57-1.33,.14-.46,.24-.93,.29-1.4,.01-.12,.05-.22,.11-.29,.06-.07,.15-.1,.27-.1h1.04c-.01,.73-.13,1.44-.35,2.15s-.54,1.36-.96,1.98l2.85,2.89h-1.63c-.18,0-.33-.02-.45-.07s-.24-.14-.38-.28l-1.37-1.38c-.6,.58-1.28,1.03-2.06,1.37-.78,.34-1.63,.5-2.56,.5-.51,0-1-.09-1.49-.26-.49-.17-.92-.42-1.31-.75s-.69-.72-.93-1.19c-.23-.47-.35-1-.35-1.59,0-.44,.07-.86,.22-1.26,.15-.4,.35-.76,.62-1.1,.26-.33,.57-.64,.94-.9,.36-.27,.76-.49,1.19-.68-.39-.49-.67-.96-.86-1.42-.18-.46-.28-.94-.28-1.43,0-.46,.08-.9,.25-1.3s.41-.76,.73-1.06,.7-.54,1.15-.71c.45-.17,.96-.26,1.52-.26Zm-3.77,10c0,.41,.08,.77,.23,1.09s.35,.58,.6,.79c.25,.21,.53,.38,.85,.49,.32,.11,.64,.17,.97,.17,.71,0,1.35-.13,1.91-.39s1.06-.6,1.49-1.04l-4.02-4.06c-.67,.36-1.18,.79-1.52,1.3-.34,.5-.51,1.05-.51,1.65Z" style="fill: #4b1f0d;"/>
    <path d="M94.36,160.19c-.08,.14-.19,.21-.35,.21-.1,0-.2-.03-.32-.1-.12-.07-.27-.15-.44-.23-.17-.09-.38-.17-.62-.24-.24-.07-.53-.11-.85-.11-.29,0-.54,.04-.77,.11-.23,.07-.42,.17-.58,.3-.16,.13-.29,.27-.37,.44-.08,.17-.13,.35-.13,.55,0,.25,.07,.45,.21,.62s.33,.31,.57,.43c.23,.12,.5,.23,.8,.32,.3,.09,.6,.19,.92,.29s.62,.22,.92,.35c.3,.13,.56,.29,.8,.48,.23,.19,.42,.42,.57,.7s.21,.61,.21,.99c0,.44-.08,.85-.24,1.23s-.39,.7-.7,.98-.69,.49-1.14,.65c-.45,.16-.97,.24-1.56,.24-.67,0-1.28-.11-1.82-.33-.54-.22-1.01-.5-1.39-.84l.4-.65c.05-.08,.11-.15,.18-.19,.07-.04,.16-.07,.28-.07s.23,.04,.36,.13c.13,.09,.28,.19,.46,.29s.4,.21,.66,.29c.26,.09,.58,.13,.96,.13,.33,0,.62-.04,.86-.13,.25-.08,.45-.2,.62-.35,.17-.15,.29-.31,.37-.5,.08-.19,.12-.39,.12-.61,0-.27-.07-.49-.21-.66-.14-.17-.33-.32-.57-.45-.23-.12-.5-.23-.8-.32s-.61-.19-.92-.29-.62-.22-.92-.35c-.3-.13-.57-.29-.8-.49s-.42-.44-.56-.73-.21-.64-.21-1.05c0-.37,.08-.72,.23-1.06,.15-.34,.37-.64,.67-.89,.29-.26,.65-.46,1.07-.61,.42-.15,.91-.23,1.45-.23,.63,0,1.2,.1,1.71,.3,.5,.2,.94,.47,1.31,.82l-.38,.62Z" style="fill: #4b1f0d;"/>
    <path d="M103.66,160.31c-.05,.07-.1,.12-.15,.16s-.12,.06-.22,.06-.2-.04-.31-.12c-.11-.08-.25-.17-.42-.26s-.38-.18-.62-.26c-.24-.08-.54-.12-.9-.12-.47,0-.88,.08-1.24,.25s-.66,.41-.91,.73-.43,.7-.55,1.15c-.12,.45-.19,.95-.19,1.51s.07,1.1,.2,1.55c.13,.45,.32,.83,.56,1.14,.24,.31,.53,.54,.88,.7,.35,.16,.73,.24,1.16,.24s.75-.05,1.02-.15c.27-.1,.49-.21,.67-.33,.18-.12,.32-.23,.44-.33,.11-.1,.23-.15,.34-.15,.15,0,.25,.05,.32,.16l.48,.62c-.42,.51-.94,.89-1.57,1.12-.63,.24-1.29,.36-1.99,.36-.6,0-1.16-.11-1.68-.33-.52-.22-.96-.54-1.34-.96-.38-.42-.68-.94-.9-1.55-.22-.61-.33-1.31-.33-2.1,0-.72,.1-1.38,.3-1.99,.2-.61,.49-1.13,.87-1.57,.38-.44,.86-.78,1.42-1.03,.56-.25,1.21-.37,1.94-.37,.67,0,1.27,.11,1.79,.33,.52,.22,.98,.53,1.38,.93l-.45,.61Z" style="fill: #4b1f0d;"/>
    <path d="M105.96,168.23v-13.99h1.69v5.66c.41-.44,.87-.79,1.37-1.05,.5-.26,1.08-.39,1.73-.39,.53,0,.99,.09,1.39,.26,.4,.17,.74,.42,1.01,.74,.27,.32,.47,.71,.61,1.15,.14,.45,.21,.95,.21,1.49v6.13h-1.69v-6.13c0-.73-.17-1.29-.5-1.7-.33-.4-.84-.6-1.53-.6-.5,0-.97,.12-1.4,.36-.43,.24-.83,.57-1.2,.98v7.09h-1.69Z" style="fill: #4b1f0d;"/>
    <path d="M123.6,168.23h-.75c-.16,0-.3-.03-.4-.08-.1-.05-.17-.16-.2-.32l-.19-.89c-.25,.23-.5,.43-.74,.61-.24,.18-.49,.33-.76,.46-.27,.12-.55,.22-.85,.28-.3,.06-.63,.1-1,.1s-.72-.05-1.05-.16c-.33-.11-.61-.26-.85-.47-.24-.21-.43-.47-.57-.8-.14-.32-.21-.7-.21-1.14,0-.38,.1-.75,.31-1.1,.21-.35,.55-.67,1.01-.94s1.08-.5,1.83-.67c.75-.17,1.67-.26,2.76-.26v-.75c0-.75-.16-1.32-.48-1.71-.32-.39-.79-.58-1.42-.58-.41,0-.76,.05-1.04,.16-.28,.1-.53,.22-.73,.35-.21,.13-.38,.25-.53,.35-.15,.1-.3,.16-.44,.16-.11,0-.21-.03-.3-.09-.08-.06-.15-.13-.2-.22l-.3-.54c.53-.51,1.1-.9,1.72-1.15,.61-.25,1.3-.38,2.04-.38,.54,0,1.02,.09,1.43,.27,.42,.18,.77,.42,1.05,.74,.29,.32,.5,.7,.65,1.15,.15,.45,.22,.94,.22,1.48v6.16Zm-4.39-1.04c.3,0,.57-.03,.82-.09,.25-.06,.48-.15,.7-.26,.22-.11,.43-.25,.63-.4,.2-.16,.39-.34,.58-.54v-1.99c-.78,0-1.44,.05-1.99,.15-.54,.1-.99,.23-1.33,.39-.34,.16-.59,.35-.75,.56s-.23,.46-.23,.73,.04,.47,.12,.66c.08,.18,.19,.34,.33,.45,.14,.12,.3,.2,.49,.26,.19,.05,.4,.08,.62,.08Z" style="fill: #4b1f0d;"/>
    <path d="M126.16,168.23v-9.62h1.01c.24,0,.39,.12,.46,.35l.12,.99c.35-.44,.75-.79,1.19-1.07,.44-.28,.95-.42,1.53-.42,.65,0,1.18,.18,1.58,.54,.4,.36,.69,.85,.87,1.46,.13-.35,.31-.65,.53-.9,.22-.25,.46-.46,.74-.63,.27-.16,.56-.29,.87-.36,.31-.08,.62-.11,.94-.11,.51,0,.96,.08,1.35,.24s.73,.4,1.01,.71,.49,.69,.63,1.14,.22,.97,.22,1.55v6.13h-1.69v-6.13c0-.75-.16-1.33-.49-1.71-.33-.39-.81-.58-1.43-.58-.28,0-.54,.05-.79,.15-.25,.1-.47,.24-.66,.43s-.34,.43-.45,.72c-.11,.29-.17,.62-.17,1v6.13h-1.69v-6.13c0-.77-.16-1.35-.46-1.73-.31-.38-.76-.57-1.36-.57-.42,0-.81,.11-1.16,.34-.36,.22-.69,.53-.98,.92v7.17h-1.69Z" style="fill: #4b1f0d;"/>
    <path d="M148.83,168.23h-.75c-.16,0-.3-.03-.4-.08-.1-.05-.17-.16-.2-.32l-.19-.89c-.25,.23-.5,.43-.74,.61-.24,.18-.49,.33-.76,.46-.27,.12-.55,.22-.85,.28-.3,.06-.63,.1-1,.1s-.72-.05-1.05-.16c-.33-.11-.61-.26-.85-.47-.24-.21-.43-.47-.57-.8-.14-.32-.21-.7-.21-1.14,0-.38,.1-.75,.31-1.1,.21-.35,.55-.67,1.01-.94s1.08-.5,1.83-.67c.75-.17,1.67-.26,2.76-.26v-.75c0-.75-.16-1.32-.48-1.71-.32-.39-.79-.58-1.42-.58-.41,0-.76,.05-1.04,.16-.28,.1-.53,.22-.73,.35-.21,.13-.38,.25-.53,.35-.15,.1-.3,.16-.44,.16-.11,0-.21-.03-.3-.09-.08-.06-.15-.13-.2-.22l-.3-.54c.53-.51,1.1-.9,1.72-1.15,.61-.25,1.3-.38,2.04-.38,.54,0,1.02,.09,1.43,.27,.42,.18,.77,.42,1.05,.74,.29,.32,.5,.7,.65,1.15,.15,.45,.22,.94,.22,1.48v6.16Zm-4.39-1.04c.3,0,.57-.03,.82-.09,.25-.06,.48-.15,.7-.26,.22-.11,.43-.25,.63-.4,.2-.16,.39-.34,.58-.54v-1.99c-.78,0-1.44,.05-1.99,.15-.54,.1-.99,.23-1.33,.39-.34,.16-.59,.35-.75,.56s-.23,.46-.23,.73,.04,.47,.12,.66c.08,.18,.19,.34,.33,.45,.14,.12,.3,.2,.49,.26,.19,.05,.4,.08,.62,.08Z" style="fill: #4b1f0d;"/>
    <path d="M151.39,168.23v-9.62h1.01c.24,0,.39,.12,.46,.35l.13,1.05c.42-.46,.88-.84,1.4-1.12,.52-.29,1.11-.43,1.79-.43,.53,0,.99,.09,1.39,.26,.4,.17,.74,.42,1.01,.74,.27,.32,.47,.71,.61,1.15,.14,.45,.21,.95,.21,1.49v6.13h-1.69v-6.13c0-.73-.17-1.29-.5-1.7-.33-.4-.84-.6-1.53-.6-.5,0-.97,.12-1.4,.36-.43,.24-.83,.57-1.2,.98v7.09h-1.69Z" style="fill: #4b1f0d;"/>
    <path d="M164.22,155.58c0,.17-.03,.32-.1,.46-.07,.14-.16,.27-.27,.38s-.24,.2-.38,.26c-.15,.06-.3,.1-.47,.1s-.32-.03-.46-.1c-.14-.06-.27-.15-.38-.26s-.2-.24-.26-.38-.09-.3-.09-.46,.03-.32,.09-.47c.06-.15,.15-.28,.26-.39s.24-.2,.38-.26c.14-.06,.3-.09,.46-.09s.32,.03,.47,.09,.27,.15,.38,.26,.2,.24,.27,.39c.07,.15,.1,.31,.1,.47Zm-.38,3.02v9.62h-1.69v-9.62h1.69Z" style="fill: #4b1f0d;"/>
    <path d="M172.33,160.19c-.08,.14-.19,.21-.35,.21-.1,0-.2-.03-.32-.1-.12-.07-.27-.15-.44-.23-.17-.09-.38-.17-.62-.24-.24-.07-.53-.11-.85-.11-.29,0-.54,.04-.77,.11-.23,.07-.42,.17-.58,.3-.16,.13-.29,.27-.37,.44-.08,.17-.13,.35-.13,.55,0,.25,.07,.45,.21,.62s.33,.31,.57,.43c.23,.12,.5,.23,.8,.32,.3,.09,.6,.19,.92,.29s.62,.22,.92,.35c.3,.13,.56,.29,.8,.48,.23,.19,.42,.42,.57,.7s.21,.61,.21,.99c0,.44-.08,.85-.24,1.23s-.39,.7-.7,.98-.69,.49-1.14,.65c-.45,.16-.97,.24-1.56,.24-.67,0-1.28-.11-1.82-.33-.54-.22-1.01-.5-1.39-.84l.4-.65c.05-.08,.11-.15,.18-.19,.07-.04,.16-.07,.28-.07s.23,.04,.36,.13c.13,.09,.28,.19,.46,.29s.4,.21,.66,.29c.26,.09,.58,.13,.96,.13,.33,0,.62-.04,.86-.13,.25-.08,.45-.2,.62-.35,.17-.15,.29-.31,.37-.5,.08-.19,.12-.39,.12-.61,0-.27-.07-.49-.21-.66-.14-.17-.33-.32-.57-.45-.23-.12-.5-.23-.8-.32s-.61-.19-.92-.29-.62-.22-.92-.35c-.3-.13-.57-.29-.8-.49s-.42-.44-.56-.73-.21-.64-.21-1.05c0-.37,.08-.72,.23-1.06,.15-.34,.37-.64,.67-.89,.29-.26,.65-.46,1.07-.61,.42-.15,.91-.23,1.45-.23,.63,0,1.2,.1,1.71,.3,.5,.2,.94,.47,1.31,.82l-.38,.62Z" style="fill: #4b1f0d;"/>
    <path d="M181.63,160.31c-.05,.07-.1,.12-.15,.16s-.12,.06-.22,.06-.2-.04-.31-.12c-.11-.08-.25-.17-.42-.26s-.38-.18-.62-.26c-.24-.08-.54-.12-.9-.12-.47,0-.88,.08-1.24,.25s-.66,.41-.91,.73-.43,.7-.55,1.15c-.12,.45-.19,.95-.19,1.51s.07,1.1,.2,1.55c.13,.45,.32,.83,.56,1.14,.24,.31,.53,.54,.88,.7,.35,.16,.73,.24,1.16,.24s.75-.05,1.02-.15c.27-.1,.49-.21,.67-.33,.18-.12,.32-.23,.44-.33,.11-.1,.23-.15,.34-.15,.15,0,.25,.05,.32,.16l.48,.62c-.42,.51-.94,.89-1.57,1.12-.63,.24-1.29,.36-1.99,.36-.6,0-1.16-.11-1.68-.33-.52-.22-.96-.54-1.34-.96-.38-.42-.68-.94-.9-1.55-.22-.61-.33-1.31-.33-2.1,0-.72,.1-1.38,.3-1.99,.2-.61,.49-1.13,.87-1.57,.38-.44,.86-.78,1.42-1.03,.56-.25,1.21-.37,1.94-.37,.67,0,1.27,.11,1.79,.33,.52,.22,.98,.53,1.38,.93l-.45,.61Z" style="fill: #4b1f0d;"/>
    <path d="M183.94,168.23v-13.99h1.69v5.66c.41-.44,.87-.79,1.37-1.05,.5-.26,1.08-.39,1.73-.39,.53,0,.99,.09,1.39,.26,.4,.17,.74,.42,1.01,.74,.27,.32,.47,.71,.61,1.15,.14,.45,.21,.95,.21,1.49v6.13h-1.69v-6.13c0-.73-.17-1.29-.5-1.7-.33-.4-.84-.6-1.53-.6-.5,0-.97,.12-1.4,.36-.43,.24-.83,.57-1.2,.98v7.09h-1.69Z" style="fill: #4b1f0d;"/>
    <path d="M198.31,158.45c.58,0,1.11,.1,1.6,.29,.49,.19,.91,.47,1.26,.84s.63,.81,.83,1.35c.2,.54,.3,1.14,.3,1.83,0,.27-.03,.44-.09,.53-.06,.09-.16,.13-.32,.13h-6.4c.01,.61,.09,1.14,.25,1.59,.15,.45,.36,.83,.63,1.13s.58,.53,.95,.67c.37,.15,.78,.22,1.23,.22,.42,0,.79-.05,1.1-.15,.31-.1,.57-.2,.79-.32,.22-.11,.41-.22,.56-.32,.15-.1,.28-.15,.38-.15,.14,0,.25,.05,.32,.16l.48,.62c-.21,.25-.46,.47-.75,.66s-.6,.34-.94,.46c-.33,.12-.68,.21-1.03,.27-.35,.06-.71,.09-1.05,.09-.66,0-1.28-.11-1.84-.34s-1.04-.55-1.45-.99c-.41-.43-.73-.97-.96-1.61-.23-.64-.34-1.37-.34-2.2,0-.67,.1-1.3,.31-1.88,.21-.58,.5-1.09,.89-1.51,.39-.43,.86-.76,1.42-1.01,.56-.24,1.18-.37,1.88-.37Zm.04,1.24c-.82,0-1.46,.24-1.93,.71s-.76,1.13-.87,1.96h5.23c0-.39-.05-.75-.16-1.08s-.27-.61-.47-.85-.46-.42-.76-.55-.64-.2-1.03-.2Z" style="fill: #4b1f0d;"/>
    <path d="M103.35,191.03h-1.85v-6.19h-7.33v6.19h-1.85v-13.61h1.85v6.07h7.33v-6.07h1.85v13.61Z" style="fill: #4b1f0d;"/>
    <path d="M110.22,181.25c.58,0,1.11,.1,1.6,.29,.49,.19,.91,.47,1.26,.84s.63,.81,.83,1.35c.2,.54,.3,1.14,.3,1.83,0,.27-.03,.44-.09,.53-.06,.09-.16,.13-.32,.13h-6.4c.01,.61,.09,1.14,.25,1.59,.15,.45,.36,.83,.63,1.13s.58,.53,.95,.67c.37,.15,.78,.22,1.23,.22,.42,0,.79-.05,1.1-.15,.31-.1,.57-.2,.79-.32,.22-.11,.41-.22,.56-.32,.15-.1,.28-.15,.38-.15,.14,0,.25,.05,.32,.16l.48,.62c-.21,.25-.46,.47-.75,.66s-.6,.34-.94,.46c-.33,.12-.68,.21-1.03,.27-.35,.06-.71,.09-1.05,.09-.66,0-1.28-.11-1.84-.34s-1.04-.55-1.45-.99c-.41-.43-.73-.97-.96-1.61-.23-.64-.34-1.37-.34-2.2,0-.67,.1-1.3,.31-1.88,.21-.58,.5-1.09,.89-1.51,.39-.43,.86-.76,1.42-1.01,.56-.24,1.18-.37,1.88-.37Zm.04,1.24c-.82,0-1.46,.24-1.93,.71s-.76,1.13-.87,1.96h5.23c0-.39-.05-.75-.16-1.08s-.27-.61-.47-.85-.46-.42-.76-.55-.64-.2-1.03-.2Z" style="fill: #4b1f0d;"/>
    <path d="M118.63,178.38c0,.17-.03,.32-.1,.46-.07,.14-.16,.27-.27,.38s-.24,.2-.38,.26c-.15,.06-.3,.1-.47,.1s-.32-.03-.46-.1c-.14-.06-.27-.15-.38-.26s-.2-.24-.26-.38-.09-.3-.09-.46,.03-.32,.09-.47c.06-.15,.15-.28,.26-.39s.24-.2,.38-.26c.14-.06,.3-.09,.46-.09s.32,.03,.47,.09,.27,.15,.38,.26,.2,.24,.27,.39c.07,.15,.1,.31,.1,.47Zm-.38,3.02v9.62h-1.69v-9.62h1.69Z" style="fill: #4b1f0d;"/>
    <path d="M123.11,177.03v13.99h-1.69v-13.99h1.69Z" style="fill: #4b1f0d;"/>
    <path d="M124.84,181.4h1.33c.14,0,.25,.03,.34,.1,.09,.07,.15,.15,.18,.25l1.84,6.19c.05,.23,.1,.45,.14,.66,.04,.21,.08,.43,.11,.64,.05-.22,.11-.43,.17-.64,.06-.21,.13-.43,.2-.66l2.03-6.23c.03-.1,.09-.17,.17-.24,.08-.06,.18-.09,.3-.09h.73c.13,0,.23,.03,.31,.09,.08,.06,.14,.14,.17,.24l1.99,6.23c.07,.22,.13,.44,.19,.66,.05,.22,.11,.43,.16,.64,.03-.21,.07-.43,.12-.66,.05-.23,.1-.44,.16-.64l1.88-6.19c.03-.1,.09-.18,.18-.25s.19-.1,.31-.1h1.27l-3.12,9.62h-1.34c-.16,0-.28-.11-.34-.32l-2.13-6.53c-.05-.15-.09-.29-.12-.44-.03-.15-.06-.3-.1-.44-.03,.15-.06,.29-.09,.45-.03,.15-.07,.3-.12,.45l-2.16,6.52c-.07,.22-.2,.32-.39,.32h-1.27l-3.12-9.62Z" style="fill: #4b1f0d;"/>
    <path d="M144.46,181.25c.58,0,1.11,.1,1.6,.29,.49,.19,.91,.47,1.26,.84s.63,.81,.83,1.35c.2,.54,.3,1.14,.3,1.83,0,.27-.03,.44-.09,.53-.06,.09-.16,.13-.32,.13h-6.4c.01,.61,.09,1.14,.25,1.59,.15,.45,.36,.83,.63,1.13s.58,.53,.95,.67c.37,.15,.78,.22,1.23,.22,.42,0,.79-.05,1.1-.15,.31-.1,.57-.2,.79-.32,.22-.11,.41-.22,.56-.32,.15-.1,.28-.15,.38-.15,.14,0,.25,.05,.32,.16l.48,.62c-.21,.25-.46,.47-.75,.66s-.6,.34-.94,.46c-.33,.12-.68,.21-1.03,.27-.35,.06-.71,.09-1.05,.09-.66,0-1.28-.11-1.84-.34s-1.04-.55-1.45-.99c-.41-.43-.73-.97-.96-1.61-.23-.64-.34-1.37-.34-2.2,0-.67,.1-1.3,.31-1.88,.21-.58,.5-1.09,.89-1.51,.39-.43,.86-.76,1.42-1.01,.56-.24,1.18-.37,1.88-.37Zm.04,1.24c-.82,0-1.46,.24-1.93,.71s-.76,1.13-.87,1.96h5.23c0-.39-.05-.75-.16-1.08s-.27-.61-.47-.85-.46-.42-.76-.55-.64-.2-1.03-.2Z" style="fill: #4b1f0d;"/>
    <path d="M152.87,178.38c0,.17-.03,.32-.1,.46-.07,.14-.16,.27-.27,.38s-.24,.2-.38,.26c-.15,.06-.3,.1-.47,.1s-.32-.03-.46-.1c-.14-.06-.27-.15-.38-.26s-.2-.24-.26-.38-.09-.3-.09-.46,.03-.32,.09-.47c.06-.15,.15-.28,.26-.39s.24-.2,.38-.26c.14-.06,.3-.09,.46-.09s.32,.03,.47,.09,.27,.15,.38,.26,.2,.24,.27,.39c.07,.15,.1,.31,.1,.47Zm-.38,3.02v9.62h-1.69v-9.62h1.69Z" style="fill: #4b1f0d;"/>
    <path d="M160.98,182.99c-.08,.14-.19,.21-.35,.21-.1,0-.2-.03-.32-.1-.12-.07-.27-.15-.44-.23-.17-.09-.38-.17-.62-.24-.24-.07-.53-.11-.85-.11-.29,0-.54,.04-.77,.11-.23,.07-.42,.17-.58,.3-.16,.13-.29,.27-.37,.44-.08,.17-.13,.35-.13,.55,0,.25,.07,.45,.21,.62s.33,.31,.57,.43c.23,.12,.5,.23,.8,.32,.3,.09,.6,.19,.92,.29s.62,.22,.92,.35c.3,.13,.56,.29,.8,.48,.23,.19,.42,.42,.57,.7s.21,.61,.21,.99c0,.44-.08,.85-.24,1.23s-.39,.7-.7,.98-.69,.49-1.14,.65c-.45,.16-.97,.24-1.56,.24-.67,0-1.28-.11-1.82-.33-.54-.22-1.01-.5-1.39-.84l.4-.65c.05-.08,.11-.15,.18-.19,.07-.04,.16-.07,.28-.07s.23,.04,.36,.13c.13,.09,.28,.19,.46,.29s.4,.21,.66,.29c.26,.09,.58,.13,.96,.13,.33,0,.62-.04,.86-.13,.25-.08,.45-.2,.62-.35,.17-.15,.29-.31,.37-.5,.08-.19,.12-.39,.12-.61,0-.27-.07-.49-.21-.66-.14-.17-.33-.32-.57-.45-.23-.12-.5-.23-.8-.32s-.61-.19-.92-.29-.62-.22-.92-.35c-.3-.13-.57-.29-.8-.49s-.42-.44-.56-.73-.21-.64-.21-1.05c0-.37,.08-.72,.23-1.06,.15-.34,.37-.64,.67-.89,.29-.26,.65-.46,1.07-.61,.42-.15,.91-.23,1.45-.23,.63,0,1.2,.1,1.71,.3,.5,.2,.94,.47,1.31,.82l-.38,.62Z" style="fill: #4b1f0d;"/>
    <path d="M167.52,181.25c.58,0,1.11,.1,1.6,.29,.49,.19,.91,.47,1.26,.84s.63,.81,.83,1.35c.2,.54,.3,1.14,.3,1.83,0,.27-.03,.44-.09,.53-.06,.09-.16,.13-.32,.13h-6.4c.01,.61,.09,1.14,.25,1.59,.15,.45,.36,.83,.63,1.13s.58,.53,.95,.67c.37,.15,.78,.22,1.23,.22,.42,0,.79-.05,1.1-.15,.31-.1,.57-.2,.79-.32,.22-.11,.41-.22,.56-.32,.15-.1,.28-.15,.38-.15,.14,0,.25,.05,.32,.16l.48,.62c-.21,.25-.46,.47-.75,.66s-.6,.34-.94,.46c-.33,.12-.68,.21-1.03,.27-.35,.06-.71,.09-1.05,.09-.66,0-1.28-.11-1.84-.34s-1.04-.55-1.45-.99c-.41-.43-.73-.97-.96-1.61-.23-.64-.34-1.37-.34-2.2,0-.67,.1-1.3,.31-1.88,.21-.58,.5-1.09,.89-1.51,.39-.43,.86-.76,1.42-1.01,.56-.24,1.18-.37,1.88-.37Zm.04,1.24c-.82,0-1.46,.24-1.93,.71s-.76,1.13-.87,1.96h5.23c0-.39-.05-.75-.16-1.08s-.27-.61-.47-.85-.46-.42-.76-.55-.64-.2-1.03-.2Z" style="fill: #4b1f0d;"/>
    <path d="M173.67,191.03v-9.62h1.01c.24,0,.39,.12,.46,.35l.13,1.05c.42-.46,.88-.84,1.4-1.12,.52-.29,1.11-.43,1.79-.43,.53,0,.99,.09,1.39,.26,.4,.17,.74,.42,1.01,.74,.27,.32,.47,.71,.61,1.15,.14,.45,.21,.95,.21,1.49v6.13h-1.69v-6.13c0-.73-.17-1.29-.5-1.7-.33-.4-.84-.6-1.53-.6-.5,0-.97,.12-1.4,.36-.43,.24-.83,.57-1.2,.98v7.09h-1.69Z" style="fill: #4b1f0d;"/>
  </g>
  <g>
    <path d="M249.11,83.78c.1,0,.19,.04,.28,.12l.72,.79c-.56,.65-1.23,1.15-2.03,1.51-.79,.36-1.75,.54-2.87,.54-.98,0-1.87-.17-2.67-.51s-1.48-.81-2.04-1.42c-.56-.61-1-1.34-1.31-2.2-.31-.85-.46-1.8-.46-2.82s.17-1.97,.5-2.82c.33-.85,.8-1.59,1.4-2.2,.6-.61,1.32-1.09,2.16-1.43s1.77-.51,2.78-.51,1.86,.16,2.59,.47c.72,.31,1.37,.73,1.93,1.26l-.6,.85c-.04,.06-.09,.12-.15,.16-.06,.04-.14,.06-.25,.06-.08,0-.17-.03-.26-.09-.09-.06-.2-.13-.33-.22-.13-.09-.28-.18-.45-.28-.17-.1-.37-.2-.61-.29s-.51-.16-.82-.22-.67-.09-1.07-.09c-.73,0-1.4,.12-2,.38-.6,.25-1.13,.61-1.56,1.07-.44,.46-.78,1.03-1.02,1.69s-.37,1.41-.37,2.23,.12,1.61,.37,2.27c.24,.67,.58,1.23,1,1.69,.42,.46,.92,.81,1.5,1.05,.58,.24,1.2,.36,1.86,.36,.41,0,.77-.02,1.09-.07s.62-.12,.9-.22c.28-.1,.53-.23,.77-.38,.24-.16,.48-.34,.72-.56,.11-.09,.21-.14,.31-.14Z" style="fill: #fff;"/>
    <path d="M252.26,86.6v-9.62h.97c.18,0,.31,.04,.38,.1,.07,.07,.12,.19,.14,.36l.11,1.5c.33-.67,.74-1.2,1.22-1.57,.48-.38,1.05-.56,1.71-.56,.27,0,.51,.03,.72,.09,.21,.06,.42,.14,.6,.25l-.22,1.26c-.04,.16-.14,.24-.29,.24-.09,0-.22-.03-.41-.09-.18-.06-.44-.09-.77-.09-.59,0-1.08,.17-1.48,.51-.4,.34-.73,.84-.99,1.49v6.13h-1.69Z" style="fill: #fff;"/>
    <path d="M266.63,86.6h-.75c-.16,0-.3-.03-.4-.08-.1-.05-.17-.16-.2-.32l-.19-.89c-.25,.23-.5,.43-.74,.61-.24,.18-.49,.33-.76,.46-.27,.12-.55,.22-.85,.28-.3,.06-.63,.1-1,.1s-.72-.05-1.05-.16c-.33-.11-.61-.26-.85-.47-.24-.21-.43-.47-.57-.8-.14-.32-.21-.7-.21-1.14,0-.38,.1-.75,.31-1.1,.21-.35,.55-.67,1.01-.94,.47-.27,1.08-.5,1.83-.67,.75-.17,1.67-.26,2.76-.26v-.75c0-.75-.16-1.32-.48-1.71-.32-.39-.79-.58-1.42-.58-.41,0-.76,.05-1.04,.16-.28,.1-.53,.22-.73,.35-.21,.13-.38,.25-.53,.35-.15,.1-.3,.16-.44,.16-.11,0-.21-.03-.3-.09-.08-.06-.15-.13-.2-.22l-.3-.54c.53-.51,1.1-.9,1.72-1.15s1.3-.38,2.04-.38c.54,0,1.02,.09,1.43,.27s.77,.42,1.05,.74c.29,.32,.5,.7,.65,1.15,.15,.45,.22,.94,.22,1.48v6.16Zm-4.39-1.04c.3,0,.57-.03,.82-.09,.25-.06,.48-.15,.7-.26,.22-.11,.43-.25,.63-.4,.2-.16,.39-.34,.58-.54v-1.99c-.78,0-1.44,.05-1.99,.15-.54,.1-.99,.23-1.33,.39-.34,.16-.59,.35-.75,.56-.16,.22-.23,.46-.23,.73s.04,.47,.12,.66c.08,.18,.19,.34,.33,.45,.14,.12,.3,.2,.49,.26,.19,.05,.4,.08,.62,.08Z" style="fill: #fff;"/>
    <path d="M269.19,86.6v-9.62h1.01c.24,0,.39,.12,.46,.35l.13,1.04c.42-.46,.88-.84,1.4-1.12,.52-.28,1.11-.43,1.79-.43,.53,0,.99,.09,1.39,.26s.74,.42,1.01,.74c.27,.32,.47,.7,.61,1.15s.21,.95,.21,1.49v6.13h-1.69v-6.13c0-.73-.17-1.29-.5-1.7-.33-.4-.84-.6-1.53-.6-.5,0-.97,.12-1.4,.36-.43,.24-.83,.57-1.2,.98v7.09h-1.69Z" style="fill: #fff;"/>
    <path d="M282.02,73.95c0,.17-.03,.32-.1,.46-.07,.14-.16,.27-.27,.38-.11,.11-.24,.2-.38,.26s-.3,.1-.47,.1-.32-.03-.46-.1c-.14-.06-.27-.15-.38-.26-.11-.11-.2-.24-.26-.38s-.09-.3-.09-.46,.03-.32,.09-.47,.15-.28,.26-.39c.11-.11,.24-.2,.38-.26,.14-.06,.3-.09,.46-.09s.32,.03,.47,.09c.15,.06,.27,.15,.38,.26,.11,.11,.2,.24,.27,.39,.07,.15,.1,.31,.1,.47Zm-.38,3.02v9.62h-1.69v-9.62h1.69Z" style="fill: #fff;"/>
    <path d="M288.52,76.82c.7,0,1.34,.12,1.9,.35,.57,.23,1.05,.57,1.44,1s.7,.95,.91,1.56c.21,.61,.32,1.29,.32,2.05s-.11,1.44-.32,2.05c-.21,.61-.52,1.13-.91,1.56s-.88,.76-1.44,.99c-.57,.23-1.2,.35-1.9,.35s-1.34-.12-1.91-.35c-.57-.23-1.05-.56-1.45-.99-.4-.43-.71-.95-.92-1.56-.21-.61-.32-1.29-.32-2.05s.11-1.44,.32-2.05c.22-.61,.52-1.13,.92-1.56,.4-.43,.88-.76,1.45-1,.57-.23,1.2-.35,1.91-.35Zm0,8.59c.95,0,1.66-.32,2.13-.96,.47-.64,.7-1.52,.7-2.66s-.23-2.04-.7-2.68-1.18-.96-2.13-.96c-.48,0-.9,.08-1.25,.25-.36,.17-.65,.4-.89,.71-.24,.31-.42,.69-.53,1.14-.12,.45-.18,.96-.18,1.53s.06,1.08,.18,1.53c.12,.45,.29,.83,.53,1.13,.24,.31,.53,.54,.89,.71,.35,.17,.77,.25,1.25,.25Z" style="fill: #fff;"/>
    <path d="M294.75,80.18h4.69v1.43h-4.69v-1.43Z" style="fill: #fff;"/>
    <path d="M226.84,101.36c-.08,.14-.19,.21-.35,.21-.1,0-.2-.03-.32-.1-.12-.07-.27-.15-.44-.23-.17-.09-.38-.17-.62-.24-.24-.07-.53-.11-.85-.11-.29,0-.54,.04-.77,.11-.23,.07-.42,.17-.58,.3-.16,.13-.29,.27-.37,.44-.08,.17-.13,.35-.13,.55,0,.25,.07,.45,.21,.62s.33,.31,.57,.43c.23,.12,.5,.23,.8,.32,.3,.09,.6,.19,.92,.29s.62,.22,.92,.35c.3,.13,.56,.29,.8,.48,.23,.19,.42,.42,.57,.7s.21,.61,.21,.99c0,.44-.08,.85-.24,1.23s-.39,.7-.7,.98-.69,.49-1.14,.65c-.45,.16-.97,.24-1.56,.24-.67,0-1.28-.11-1.82-.33-.54-.22-1.01-.5-1.39-.84l.4-.65c.05-.08,.11-.15,.18-.19,.07-.04,.16-.07,.28-.07s.23,.04,.36,.13c.13,.09,.28,.19,.46,.29s.4,.21,.66,.29c.26,.09,.58,.13,.96,.13,.33,0,.62-.04,.86-.13,.25-.08,.45-.2,.62-.35,.17-.15,.29-.31,.37-.5,.08-.19,.12-.39,.12-.61,0-.27-.07-.49-.21-.66-.14-.17-.33-.32-.57-.45-.23-.12-.5-.23-.8-.32s-.61-.19-.92-.29-.62-.22-.92-.35c-.3-.13-.57-.29-.8-.49s-.42-.44-.56-.73-.21-.64-.21-1.05c0-.37,.08-.72,.23-1.06,.15-.34,.37-.64,.67-.89,.29-.26,.65-.46,1.07-.61,.42-.15,.91-.23,1.45-.23,.63,0,1.2,.1,1.71,.3,.5,.2,.94,.47,1.31,.82l-.38,.62Z" style="fill: #fff;"/>
    <path d="M236.65,109.4h-.75c-.16,0-.3-.03-.4-.08-.1-.05-.17-.16-.2-.32l-.19-.89c-.25,.23-.5,.43-.74,.61-.24,.18-.49,.33-.76,.46-.27,.12-.55,.22-.85,.28-.3,.06-.63,.1-1,.1s-.72-.05-1.05-.16c-.33-.11-.61-.26-.85-.47-.24-.21-.43-.47-.57-.8-.14-.32-.21-.7-.21-1.14,0-.38,.1-.75,.31-1.1,.21-.35,.55-.67,1.01-.94s1.08-.5,1.83-.67c.75-.17,1.67-.26,2.76-.26v-.75c0-.75-.16-1.32-.48-1.71-.32-.39-.79-.58-1.42-.58-.41,0-.76,.05-1.04,.16-.28,.1-.53,.22-.73,.35-.21,.13-.38,.25-.53,.35-.15,.1-.3,.16-.44,.16-.11,0-.21-.03-.3-.09-.08-.06-.15-.13-.2-.22l-.3-.54c.53-.51,1.1-.9,1.72-1.15,.61-.25,1.3-.38,2.04-.38,.54,0,1.02,.09,1.43,.27,.42,.18,.77,.42,1.05,.74,.29,.32,.5,.7,.65,1.15,.15,.45,.22,.94,.22,1.48v6.16Zm-4.39-1.04c.3,0,.57-.03,.82-.09,.25-.06,.48-.15,.7-.26,.22-.11,.43-.25,.63-.4,.2-.16,.39-.34,.58-.54v-1.99c-.78,0-1.44,.05-1.99,.15-.54,.1-.99,.23-1.33,.39-.34,.16-.59,.35-.75,.56s-.23,.46-.23,.73,.04,.47,.12,.66c.08,.18,.19,.34,.33,.45,.14,.12,.3,.2,.49,.26,.19,.05,.4,.08,.62,.08Z" style="fill: #fff;"/>
    <path d="M245.78,101.48c-.05,.07-.1,.12-.15,.16s-.12,.06-.22,.06-.2-.04-.31-.12c-.11-.08-.25-.17-.42-.26s-.38-.18-.62-.26c-.24-.08-.54-.12-.9-.12-.47,0-.88,.08-1.24,.25s-.66,.41-.91,.73-.43,.7-.55,1.15c-.12,.45-.19,.95-.19,1.51s.07,1.1,.2,1.55c.13,.45,.32,.83,.56,1.14,.24,.31,.53,.54,.88,.7,.35,.16,.73,.24,1.16,.24s.75-.05,1.02-.15c.27-.1,.49-.21,.67-.33,.18-.12,.32-.23,.44-.33,.11-.1,.23-.15,.34-.15,.15,0,.25,.05,.32,.16l.48,.62c-.42,.51-.94,.89-1.57,1.12-.63,.24-1.29,.36-1.99,.36-.6,0-1.16-.11-1.68-.33-.52-.22-.96-.54-1.34-.96-.38-.42-.68-.94-.9-1.55-.22-.61-.33-1.31-.33-2.1,0-.72,.1-1.38,.3-1.99,.2-.61,.49-1.13,.87-1.57,.38-.44,.86-.78,1.42-1.03,.56-.25,1.21-.37,1.94-.37,.67,0,1.27,.11,1.79,.33,.52,.22,.98,.53,1.38,.93l-.45,.61Z" style="fill: #fff;"/>
    <path d="M248.08,109.4v-9.62h.97c.18,0,.31,.03,.38,.1s.12,.19,.14,.36l.11,1.5c.33-.67,.74-1.2,1.22-1.57s1.05-.57,1.71-.57c.27,0,.51,.03,.72,.09,.21,.06,.42,.14,.6,.25l-.22,1.26c-.04,.16-.14,.24-.29,.24-.09,0-.22-.03-.41-.09-.18-.06-.44-.09-.77-.09-.59,0-1.08,.17-1.48,.51-.4,.34-.73,.84-.99,1.49v6.13h-1.69Z" style="fill: #fff;"/>
    <path d="M262.45,109.4h-.75c-.16,0-.3-.03-.4-.08-.1-.05-.17-.16-.2-.32l-.19-.89c-.25,.23-.5,.43-.74,.61-.24,.18-.49,.33-.76,.46-.27,.12-.55,.22-.85,.28-.3,.06-.63,.1-1,.1s-.72-.05-1.05-.16c-.33-.11-.61-.26-.85-.47-.24-.21-.43-.47-.57-.8-.14-.32-.21-.7-.21-1.14,0-.38,.1-.75,.31-1.1,.21-.35,.55-.67,1.01-.94s1.08-.5,1.83-.67c.75-.17,1.67-.26,2.76-.26v-.75c0-.75-.16-1.32-.48-1.71-.32-.39-.79-.58-1.42-.58-.41,0-.76,.05-1.04,.16-.28,.1-.53,.22-.73,.35-.21,.13-.38,.25-.53,.35-.15,.1-.3,.16-.44,.16-.11,0-.21-.03-.3-.09-.08-.06-.15-.13-.2-.22l-.3-.54c.53-.51,1.1-.9,1.72-1.15,.61-.25,1.3-.38,2.04-.38,.54,0,1.02,.09,1.43,.27,.42,.18,.77,.42,1.05,.74,.29,.32,.5,.7,.65,1.15,.15,.45,.22,.94,.22,1.48v6.16Zm-4.39-1.04c.3,0,.57-.03,.82-.09,.25-.06,.48-.15,.7-.26,.22-.11,.43-.25,.63-.4,.2-.16,.39-.34,.58-.54v-1.99c-.78,0-1.44,.05-1.99,.15-.54,.1-.99,.23-1.33,.39-.34,.16-.59,.35-.75,.56s-.23,.46-.23,.73,.04,.47,.12,.66c.08,.18,.19,.34,.33,.45,.14,.12,.3,.2,.49,.26,.19,.05,.4,.08,.62,.08Z" style="fill: #fff;"/>
    <path d="M266.89,95.4v13.99h-1.69v-13.99h1.69Z" style="fill: #fff;"/>
    <path d="M276.95,109.4h-.75c-.16,0-.3-.03-.4-.08-.1-.05-.17-.16-.2-.32l-.19-.89c-.25,.23-.5,.43-.74,.61-.24,.18-.49,.33-.76,.46-.27,.12-.55,.22-.85,.28-.3,.06-.63,.1-1,.1s-.72-.05-1.05-.16c-.33-.11-.61-.26-.85-.47-.24-.21-.43-.47-.57-.8-.14-.32-.21-.7-.21-1.14,0-.38,.1-.75,.31-1.1,.21-.35,.55-.67,1.01-.94s1.08-.5,1.83-.67c.75-.17,1.67-.26,2.76-.26v-.75c0-.75-.16-1.32-.48-1.71-.32-.39-.79-.58-1.42-.58-.41,0-.76,.05-1.04,.16-.28,.1-.53,.22-.73,.35-.21,.13-.38,.25-.53,.35-.15,.1-.3,.16-.44,.16-.11,0-.21-.03-.3-.09-.08-.06-.15-.13-.2-.22l-.3-.54c.53-.51,1.1-.9,1.72-1.15,.61-.25,1.3-.38,2.04-.38,.54,0,1.02,.09,1.43,.27,.42,.18,.77,.42,1.05,.74,.29,.32,.5,.7,.65,1.15,.15,.45,.22,.94,.22,1.48v6.16Zm-4.39-1.04c.3,0,.57-.03,.82-.09,.25-.06,.48-.15,.7-.26,.22-.11,.43-.25,.63-.4,.2-.16,.39-.34,.58-.54v-1.99c-.78,0-1.44,.05-1.99,.15-.54,.1-.99,.23-1.33,.39-.34,.16-.59,.35-.75,.56s-.23,.46-.23,.73,.04,.47,.12,.66c.08,.18,.19,.34,.33,.45,.14,.12,.3,.2,.49,.26,.19,.05,.4,.08,.62,.08Z" style="fill: #fff;"/>
    <path d="M279.51,109.4v-9.62h.97c.18,0,.31,.03,.38,.1s.12,.19,.14,.36l.11,1.5c.33-.67,.74-1.2,1.22-1.57s1.05-.57,1.71-.57c.27,0,.51,.03,.72,.09,.21,.06,.42,.14,.6,.25l-.22,1.26c-.04,.16-.14,.24-.29,.24-.09,0-.22-.03-.41-.09-.18-.06-.44-.09-.77-.09-.59,0-1.08,.17-1.48,.51-.4,.34-.73,.84-.99,1.49v6.13h-1.69Z" style="fill: #fff;"/>
    <path d="M287.23,109.4v-13.99h1.7v5.76c.4-.46,.86-.83,1.37-1.12,.52-.28,1.11-.42,1.77-.42,.56,0,1.06,.1,1.51,.31,.45,.21,.83,.52,1.15,.94,.32,.42,.56,.93,.73,1.54s.26,1.32,.26,2.11c0,.71-.09,1.37-.28,1.98-.19,.61-.46,1.14-.82,1.59-.36,.45-.79,.8-1.31,1.05-.52,.26-1.1,.38-1.74,.38s-1.15-.12-1.58-.36c-.43-.24-.81-.58-1.14-1.01l-.08,.87c-.05,.24-.2,.36-.44,.36h-1.09Zm4.29-8.43c-.55,0-1.03,.13-1.45,.38-.42,.25-.8,.61-1.14,1.07v4.65c.3,.42,.64,.71,1.01,.88s.78,.26,1.24,.26c.9,0,1.59-.32,2.07-.96s.72-1.55,.72-2.74c0-.63-.06-1.17-.17-1.62-.11-.45-.27-.82-.48-1.11-.21-.29-.47-.5-.77-.63-.3-.13-.65-.2-1.04-.2Z" style="fill: #fff;"/>
    <path d="M301.6,99.62c.58,0,1.11,.1,1.6,.29,.49,.19,.91,.47,1.26,.84s.63,.81,.83,1.35c.2,.54,.3,1.14,.3,1.83,0,.27-.03,.44-.09,.53-.06,.09-.16,.13-.32,.13h-6.4c.01,.61,.09,1.14,.25,1.59,.15,.45,.36,.83,.63,1.13s.58,.53,.95,.67c.37,.15,.78,.22,1.23,.22,.42,0,.79-.05,1.1-.15,.31-.1,.57-.2,.79-.32,.22-.11,.41-.22,.56-.32,.15-.1,.28-.15,.38-.15,.14,0,.25,.05,.32,.16l.48,.62c-.21,.25-.46,.47-.75,.66s-.6,.34-.94,.46c-.33,.12-.68,.21-1.03,.27-.35,.06-.71,.09-1.05,.09-.66,0-1.28-.11-1.84-.34s-1.04-.55-1.45-.99c-.41-.43-.73-.97-.96-1.61-.23-.64-.34-1.37-.34-2.2,0-.67,.1-1.3,.31-1.88,.21-.58,.5-1.09,.89-1.51,.39-.43,.86-.76,1.42-1.01,.56-.24,1.18-.37,1.88-.37Zm.04,1.24c-.82,0-1.46,.24-1.93,.71s-.76,1.13-.87,1.96h5.23c0-.39-.05-.75-.16-1.08s-.27-.61-.47-.85-.46-.42-.76-.55-.64-.2-1.03-.2Z" style="fill: #fff;"/>
    <path d="M310.01,96.75c0,.17-.03,.32-.1,.46-.07,.14-.16,.27-.27,.38s-.24,.2-.38,.26c-.15,.06-.3,.1-.47,.1s-.32-.03-.46-.1c-.14-.06-.27-.15-.38-.26s-.2-.24-.26-.38-.09-.3-.09-.46,.03-.32,.09-.47c.06-.15,.15-.28,.26-.39s.24-.2,.38-.26c.14-.06,.3-.09,.46-.09s.32,.03,.47,.09,.27,.15,.38,.26,.2,.24,.27,.39c.07,.15,.1,.31,.1,.47Zm-.38,3.02v9.62h-1.69v-9.62h1.69Z" style="fill: #fff;"/>
    <path d="M315.53,109.55c-.76,0-1.34-.21-1.75-.64-.41-.42-.61-1.04-.61-1.83v-5.89h-1.16c-.1,0-.19-.03-.26-.09-.07-.06-.1-.15-.1-.28v-.67l1.58-.2,.39-2.97c.01-.1,.05-.17,.12-.23,.07-.06,.16-.09,.27-.09h.85v3.32h2.75v1.23h-2.75v5.78c0,.41,.1,.71,.29,.9s.45,.29,.76,.29c.18,0,.33-.02,.46-.07,.13-.05,.24-.1,.34-.16s.18-.11,.24-.16c.07-.05,.12-.07,.18-.07,.09,0,.17,.05,.24,.16l.49,.81c-.29,.27-.64,.49-1.05,.64-.41,.16-.84,.23-1.27,.23Z" style="fill: #fff;"/>
  </g>
  <g>
    <path d="M404.84,309.01h-1.42c-.17,0-.3-.04-.4-.12-.1-.08-.18-.19-.23-.31l-1.27-3.29h-6.11l-1.27,3.29c-.04,.11-.12,.21-.23,.3s-.24,.13-.4,.13h-1.42l5.44-13.61h1.87l5.44,13.61Zm-8.92-5.05h5.08l-2.14-5.54c-.14-.34-.28-.77-.41-1.28-.07,.26-.14,.5-.2,.72-.07,.22-.13,.41-.2,.57l-2.14,5.53Z" style="fill: #fff;"/>
    <path d="M407.75,299.39v6.14c0,.73,.17,1.29,.5,1.69,.34,.4,.84,.6,1.52,.6,.49,0,.96-.12,1.4-.35,.44-.23,.84-.56,1.21-.98v-7.1h1.69v9.62h-1.01c-.24,0-.39-.12-.46-.35l-.13-1.04c-.42,.46-.89,.83-1.41,1.12-.52,.28-1.11,.42-1.79,.42-.53,0-.99-.09-1.39-.26-.4-.17-.74-.42-1.01-.74-.27-.32-.48-.7-.61-1.15-.14-.45-.2-.95-.2-1.49v-6.14h1.69Z" style="fill: #fff;"/>
    <path d="M417.23,309.01v-8.18l-1.06-.12c-.13-.03-.24-.08-.33-.15-.08-.07-.13-.16-.13-.29v-.69h1.52v-.93c0-.55,.08-1.04,.23-1.47s.38-.79,.67-1.08,.63-.52,1.04-.67c.41-.15,.86-.23,1.37-.23,.43,0,.83,.06,1.2,.19l-.04,.85c0,.13-.06,.2-.16,.23s-.24,.04-.43,.04h-.29c-.29,0-.56,.04-.79,.11-.24,.08-.44,.2-.61,.37-.17,.17-.3,.4-.39,.67-.09,.28-.14,.62-.14,1.04v.88h2.78v1.23h-2.73v8.21h-1.7Z" style="fill: #fff;"/>
    <path d="M428.77,300.97c-.08,.14-.19,.21-.35,.21-.1,0-.2-.03-.32-.1-.12-.07-.27-.15-.44-.23-.17-.09-.38-.17-.62-.24-.24-.07-.53-.11-.85-.11-.29,0-.54,.04-.77,.11-.23,.07-.42,.17-.58,.3-.16,.13-.29,.27-.37,.44-.08,.17-.13,.35-.13,.55,0,.25,.07,.45,.21,.62,.14,.17,.33,.31,.57,.43,.23,.12,.5,.23,.8,.32,.3,.09,.6,.19,.92,.29s.62,.22,.92,.35c.3,.13,.56,.28,.8,.47s.42,.42,.57,.7,.21,.61,.21,.99c0,.44-.08,.85-.24,1.23s-.39,.7-.7,.98-.69,.49-1.14,.65c-.45,.16-.97,.24-1.56,.24-.67,0-1.28-.11-1.82-.33-.54-.22-1.01-.5-1.39-.84l.4-.65c.05-.08,.11-.15,.18-.19,.07-.04,.16-.07,.28-.07s.23,.04,.36,.13c.13,.09,.28,.19,.46,.29s.4,.21,.66,.29c.26,.09,.58,.13,.96,.13,.33,0,.62-.04,.86-.13,.25-.08,.45-.2,.62-.35,.17-.15,.29-.31,.37-.5,.08-.19,.12-.39,.12-.61,0-.27-.07-.49-.21-.66-.14-.17-.33-.32-.57-.45-.23-.12-.5-.23-.8-.32s-.61-.19-.92-.29c-.31-.1-.62-.22-.92-.35-.3-.13-.57-.29-.8-.49s-.42-.44-.56-.73-.21-.64-.21-1.05c0-.37,.08-.72,.23-1.06,.15-.34,.37-.64,.67-.89s.65-.46,1.07-.61c.42-.15,.91-.23,1.45-.23,.63,0,1.2,.1,1.71,.3,.5,.2,.94,.47,1.31,.82l-.38,.62Z" style="fill: #fff;"/>
    <path d="M434.42,309.16c-.76,0-1.34-.21-1.75-.64-.41-.42-.61-1.04-.61-1.83v-5.89h-1.16c-.1,0-.19-.03-.26-.09s-.1-.15-.1-.28v-.67l1.58-.2,.39-2.97c.01-.09,.05-.17,.12-.23,.07-.06,.16-.09,.27-.09h.85v3.32h2.75v1.23h-2.75v5.78c0,.41,.1,.71,.29,.9s.45,.29,.76,.29c.18,0,.33-.02,.46-.07,.13-.05,.24-.1,.34-.16s.18-.11,.24-.16c.07-.05,.12-.07,.18-.07,.09,0,.17,.05,.24,.16l.49,.81c-.29,.27-.64,.49-1.05,.64-.41,.16-.84,.23-1.27,.23Z" style="fill: #fff;"/>
    <path d="M442.4,299.23c.58,0,1.11,.1,1.6,.29,.49,.19,.91,.47,1.26,.84s.63,.81,.83,1.35c.2,.54,.3,1.15,.3,1.83,0,.27-.03,.44-.09,.53-.06,.09-.16,.13-.32,.13h-6.4c.01,.61,.09,1.14,.25,1.59,.15,.45,.36,.83,.63,1.13s.58,.53,.95,.67c.37,.15,.78,.22,1.23,.22,.42,0,.79-.05,1.1-.15,.31-.1,.57-.2,.79-.32,.22-.11,.41-.22,.56-.32,.15-.1,.28-.15,.38-.15,.14,0,.25,.05,.32,.16l.48,.62c-.21,.25-.46,.47-.75,.66s-.6,.34-.94,.46c-.33,.12-.68,.21-1.03,.27-.35,.06-.71,.09-1.05,.09-.66,0-1.28-.11-1.84-.34s-1.04-.55-1.45-.99c-.41-.43-.73-.97-.96-1.61-.23-.64-.34-1.37-.34-2.2,0-.67,.1-1.3,.31-1.88,.21-.58,.5-1.09,.89-1.51,.39-.43,.86-.76,1.42-1.01,.56-.24,1.18-.37,1.88-.37Zm.04,1.25c-.82,0-1.46,.24-1.93,.71s-.76,1.13-.87,1.96h5.23c0-.39-.05-.75-.16-1.08s-.27-.61-.47-.85-.46-.42-.76-.55-.64-.19-1.03-.19Z" style="fill: #fff;"/>
    <path d="M450.43,295.01v13.99h-1.69v-13.99h1.69Z" style="fill: #fff;"/>
    <path d="M455.29,295.01v13.99h-1.69v-13.99h1.69Z" style="fill: #fff;"/>
    <path d="M459.74,299.39v6.14c0,.73,.17,1.29,.5,1.69,.34,.4,.84,.6,1.52,.6,.49,0,.96-.12,1.4-.35,.44-.23,.84-.56,1.21-.98v-7.1h1.69v9.62h-1.01c-.24,0-.39-.12-.46-.35l-.13-1.04c-.42,.46-.89,.83-1.41,1.12-.52,.28-1.11,.42-1.79,.42-.53,0-.99-.09-1.39-.26-.4-.17-.74-.42-1.01-.74-.27-.32-.48-.7-.61-1.15-.14-.45-.2-.95-.2-1.49v-6.14h1.69Z" style="fill: #fff;"/>
    <path d="M468.84,309.01v-9.62h1.01c.24,0,.39,.12,.46,.35l.13,1.04c.42-.46,.88-.84,1.4-1.12,.52-.29,1.11-.43,1.79-.43,.53,0,.99,.09,1.39,.26,.4,.17,.74,.42,1.01,.74,.27,.32,.47,.71,.61,1.15,.14,.45,.21,.95,.21,1.49v6.13h-1.69v-6.13c0-.73-.17-1.29-.5-1.7-.33-.4-.84-.6-1.53-.6-.5,0-.97,.12-1.4,.36-.43,.24-.83,.57-1.2,.98v7.09h-1.69Z" style="fill: #fff;"/>
    <path d="M482.64,299.22c.42,0,.81,.05,1.17,.14,.36,.09,.7,.23,.99,.4h2.61v.63c0,.21-.13,.34-.4,.4l-1.09,.15c.22,.41,.32,.87,.32,1.38,0,.47-.09,.89-.27,1.28-.18,.38-.43,.71-.75,.98-.32,.27-.7,.48-1.14,.63s-.92,.22-1.45,.22c-.45,0-.87-.05-1.27-.16-.2,.13-.36,.27-.46,.42s-.16,.3-.16,.44c0,.24,.09,.41,.28,.54s.43,.21,.73,.26,.65,.08,1.04,.08h1.18c.4,0,.8,.04,1.18,.11,.39,.07,.73,.19,1.04,.35s.55,.38,.73,.66,.28,.65,.28,1.1c0,.42-.1,.82-.31,1.21-.21,.39-.5,.74-.89,1.04-.39,.3-.86,.55-1.42,.73-.56,.18-1.19,.27-1.89,.27s-1.32-.07-1.85-.21c-.53-.14-.97-.33-1.32-.56-.35-.23-.61-.51-.78-.81-.17-.31-.26-.63-.26-.96,0-.48,.15-.88,.45-1.21,.3-.33,.71-.6,1.24-.79-.27-.13-.49-.29-.65-.51-.16-.21-.24-.5-.24-.85,0-.14,.02-.28,.08-.43,.05-.15,.13-.3,.23-.44,.1-.15,.23-.28,.38-.42,.15-.13,.33-.25,.53-.35-.47-.27-.85-.62-1.12-1.06-.27-.44-.4-.96-.4-1.54,0-.47,.09-.89,.27-1.28,.18-.38,.43-.71,.76-.98,.32-.27,.71-.48,1.15-.62,.45-.15,.94-.22,1.47-.22Zm3,10.27c0-.25-.07-.44-.2-.59s-.31-.26-.54-.34c-.23-.08-.49-.14-.79-.18s-.61-.06-.94-.06h-1.01c-.34,0-.67-.04-.98-.13-.36,.17-.65,.38-.88,.63s-.34,.54-.34,.88c0,.22,.06,.42,.17,.6,.11,.19,.28,.35,.51,.49,.23,.14,.51,.24,.86,.32,.34,.08,.75,.12,1.22,.12s.86-.04,1.23-.13,.67-.2,.92-.36c.25-.16,.44-.34,.57-.55,.13-.21,.2-.45,.2-.71Zm-3-5.19c.34,0,.64-.05,.91-.14,.26-.09,.48-.23,.66-.4,.18-.17,.31-.38,.4-.61s.13-.5,.13-.78c0-.59-.18-1.06-.54-1.41-.36-.35-.88-.52-1.56-.52s-1.2,.17-1.55,.52c-.36,.35-.54,.82-.54,1.41,0,.29,.05,.55,.14,.78s.23,.44,.4,.61c.18,.17,.4,.3,.66,.4s.56,.14,.89,.14Z" style="fill: #fff;"/>
    <path d="M489.26,309.21c-.09,.22-.22,.39-.39,.49-.17,.11-.35,.16-.54,.16h-.71l5.71-14.22c.08-.2,.2-.36,.35-.47,.15-.11,.33-.16,.54-.16h.71l-5.67,14.19Z" style="fill: #fff;"/>
    <path d="M415.75,329c.1,0,.19,.04,.28,.12l.72,.79c-.56,.65-1.23,1.15-2.03,1.51-.79,.36-1.75,.54-2.87,.54-.98,0-1.87-.17-2.67-.51s-1.48-.81-2.04-1.42c-.56-.61-1-1.34-1.31-2.2-.31-.86-.46-1.8-.46-2.82s.17-1.97,.5-2.82c.33-.86,.8-1.59,1.4-2.2s1.32-1.09,2.16-1.43,1.77-.51,2.78-.51,1.86,.16,2.59,.47c.72,.31,1.37,.73,1.93,1.26l-.6,.84c-.04,.06-.09,.12-.15,.16-.06,.04-.14,.06-.25,.06-.08,0-.17-.03-.26-.09-.09-.06-.2-.13-.33-.22-.13-.09-.28-.18-.45-.29-.17-.1-.37-.2-.61-.29-.23-.09-.51-.16-.82-.22s-.67-.09-1.07-.09c-.73,0-1.4,.13-2,.38s-1.13,.61-1.56,1.07c-.44,.46-.78,1.03-1.02,1.69s-.37,1.41-.37,2.23,.12,1.61,.37,2.27,.58,1.23,1,1.69c.42,.46,.92,.81,1.5,1.05,.58,.24,1.2,.36,1.86,.36,.41,0,.77-.02,1.09-.07s.62-.12,.9-.22c.28-.1,.53-.23,.77-.38,.24-.16,.48-.34,.72-.56,.11-.09,.21-.14,.31-.14Z" style="fill: #fff;"/>
    <path d="M422.8,322.03c.7,0,1.34,.12,1.9,.35,.57,.23,1.05,.57,1.44,1s.7,.95,.91,1.56c.21,.61,.32,1.29,.32,2.05s-.11,1.44-.32,2.05c-.21,.61-.52,1.13-.91,1.56s-.88,.76-1.44,.99c-.57,.23-1.2,.35-1.9,.35s-1.34-.12-1.91-.35c-.57-.23-1.05-.56-1.45-.99-.4-.43-.71-.95-.92-1.56-.21-.61-.32-1.29-.32-2.05s.11-1.44,.32-2.05c.22-.61,.52-1.13,.92-1.56,.4-.43,.88-.76,1.45-1,.57-.23,1.2-.35,1.91-.35Zm0,8.59c.95,0,1.66-.32,2.13-.96,.47-.64,.7-1.52,.7-2.66s-.23-2.04-.7-2.68-1.18-.96-2.13-.96c-.48,0-.9,.08-1.25,.25-.36,.16-.65,.4-.89,.71-.24,.31-.42,.69-.53,1.15-.12,.45-.18,.96-.18,1.53s.06,1.08,.18,1.53c.12,.45,.29,.83,.53,1.13,.24,.31,.53,.54,.89,.71,.35,.17,.77,.25,1.25,.25Z" style="fill: #fff;"/>
    <path d="M436.54,331.81h-.75c-.16,0-.3-.03-.4-.08-.1-.05-.17-.16-.2-.32l-.19-.89c-.25,.23-.5,.43-.74,.61-.24,.18-.49,.33-.76,.46-.27,.12-.55,.22-.85,.28-.3,.06-.63,.1-1,.1s-.72-.05-1.05-.16c-.33-.11-.61-.26-.85-.47-.24-.21-.43-.47-.57-.8-.14-.32-.21-.7-.21-1.14,0-.38,.1-.75,.31-1.1,.21-.35,.55-.67,1.01-.94s1.08-.5,1.83-.67c.75-.17,1.67-.26,2.76-.26v-.75c0-.75-.16-1.32-.48-1.71-.32-.39-.79-.58-1.42-.58-.41,0-.76,.05-1.04,.16-.28,.1-.53,.22-.73,.35-.21,.13-.38,.25-.53,.35-.15,.1-.3,.16-.44,.16-.11,0-.21-.03-.3-.09-.08-.06-.15-.13-.2-.22l-.3-.54c.53-.51,1.1-.9,1.72-1.15,.61-.25,1.3-.38,2.04-.38,.54,0,1.02,.09,1.43,.27,.42,.18,.77,.42,1.05,.74,.29,.32,.5,.7,.65,1.15,.15,.45,.22,.94,.22,1.48v6.16Zm-4.39-1.04c.3,0,.57-.03,.82-.09,.25-.06,.48-.15,.7-.26,.22-.11,.43-.25,.63-.4,.2-.16,.39-.34,.58-.54v-1.99c-.78,0-1.44,.05-1.99,.15-.54,.1-.99,.23-1.33,.39-.34,.16-.59,.35-.75,.56s-.23,.46-.23,.73,.04,.47,.12,.66c.08,.18,.19,.34,.33,.45,.14,.12,.3,.2,.49,.26,.19,.05,.4,.08,.62,.08Z" style="fill: #fff;"/>
    <path d="M445.67,323.89c-.05,.07-.1,.12-.15,.16s-.12,.06-.22,.06-.2-.04-.31-.12c-.11-.08-.25-.17-.42-.26s-.38-.18-.62-.26c-.24-.08-.54-.12-.9-.12-.47,0-.88,.08-1.24,.25s-.66,.41-.91,.73-.43,.7-.55,1.15c-.12,.45-.19,.95-.19,1.51s.07,1.1,.2,1.55c.13,.45,.32,.83,.56,1.14,.24,.31,.53,.54,.88,.7,.35,.16,.73,.24,1.16,.24s.75-.05,1.02-.15c.27-.1,.49-.21,.67-.33,.18-.12,.32-.23,.44-.33,.11-.1,.23-.15,.34-.15,.15,0,.25,.05,.32,.16l.48,.62c-.42,.51-.94,.89-1.57,1.12-.63,.24-1.29,.36-1.99,.36-.6,0-1.16-.11-1.68-.33-.52-.22-.96-.54-1.34-.96-.38-.42-.68-.94-.9-1.55-.22-.61-.33-1.31-.33-2.1,0-.72,.1-1.38,.3-1.99,.2-.61,.49-1.13,.87-1.57,.38-.44,.86-.78,1.42-1.03,.56-.25,1.21-.37,1.94-.37,.67,0,1.27,.11,1.79,.33,.52,.22,.98,.53,1.38,.93l-.45,.61Z" style="fill: #fff;"/>
    <path d="M447.98,331.81v-13.99h1.69v5.66c.41-.44,.87-.79,1.37-1.05,.5-.26,1.08-.39,1.73-.39,.53,0,.99,.09,1.39,.26,.4,.17,.74,.42,1.01,.74,.27,.32,.47,.71,.61,1.15,.14,.45,.21,.95,.21,1.49v6.13h-1.69v-6.13c0-.73-.17-1.29-.5-1.7-.33-.4-.84-.6-1.53-.6-.5,0-.97,.12-1.4,.36-.43,.24-.83,.57-1.2,.98v7.09h-1.69Z" style="fill: #fff;"/>
    <path d="M460.8,319.16c0,.17-.03,.32-.1,.46-.07,.14-.16,.27-.27,.38s-.24,.2-.38,.26c-.15,.06-.3,.1-.47,.1s-.32-.03-.46-.1c-.14-.06-.27-.15-.38-.26s-.2-.24-.26-.38-.09-.3-.09-.46,.03-.32,.09-.47c.06-.15,.15-.28,.26-.39s.24-.2,.38-.26c.14-.06,.3-.09,.46-.09s.32,.03,.47,.09,.27,.15,.38,.26,.2,.24,.27,.39c.07,.15,.1,.31,.1,.47Zm-.38,3.02v9.62h-1.69v-9.62h1.69Z" style="fill: #fff;"/>
    <path d="M463.4,331.81v-9.62h1.01c.24,0,.39,.12,.46,.35l.13,1.05c.42-.46,.88-.84,1.4-1.12,.52-.29,1.11-.43,1.79-.43,.53,0,.99,.09,1.39,.26,.4,.17,.74,.42,1.01,.74,.27,.32,.47,.71,.61,1.15,.14,.45,.21,.95,.21,1.49v6.13h-1.69v-6.13c0-.73-.17-1.29-.5-1.7-.33-.4-.84-.6-1.53-.6-.5,0-.97,.12-1.4,.36-.43,.24-.83,.57-1.2,.98v7.09h-1.69Z" style="fill: #fff;"/>
    <path d="M477.21,322.02c.42,0,.81,.05,1.17,.14s.7,.23,.99,.4h2.61v.63c0,.21-.13,.34-.4,.4l-1.09,.15c.22,.41,.32,.87,.32,1.38,0,.47-.09,.9-.27,1.28s-.43,.71-.75,.98c-.32,.27-.7,.48-1.14,.63s-.92,.22-1.45,.22c-.45,0-.87-.05-1.27-.16-.2,.13-.36,.27-.46,.42-.1,.15-.16,.3-.16,.44,0,.24,.09,.41,.28,.54s.43,.21,.73,.26,.65,.08,1.04,.08h1.18c.4,0,.8,.04,1.18,.11,.39,.07,.73,.19,1.04,.35s.55,.38,.73,.66c.18,.28,.28,.65,.28,1.1,0,.42-.1,.82-.31,1.21-.21,.39-.5,.74-.89,1.04-.39,.3-.86,.55-1.42,.73-.56,.18-1.19,.27-1.89,.27s-1.32-.07-1.85-.21c-.53-.14-.97-.33-1.32-.56-.35-.23-.61-.51-.78-.81-.17-.31-.26-.63-.26-.96,0-.48,.15-.88,.45-1.21,.3-.33,.71-.6,1.24-.79-.27-.13-.49-.29-.65-.51-.16-.21-.24-.5-.24-.85,0-.14,.02-.28,.08-.43,.05-.15,.13-.29,.23-.44s.23-.29,.38-.42c.15-.13,.33-.25,.53-.35-.47-.27-.85-.62-1.12-1.06-.27-.44-.4-.95-.4-1.54,0-.47,.09-.89,.27-1.28,.18-.38,.43-.71,.76-.98,.32-.27,.71-.48,1.15-.62,.45-.15,.94-.22,1.47-.22Zm3,10.27c0-.25-.07-.44-.2-.59s-.31-.26-.54-.34c-.23-.08-.49-.14-.79-.18s-.61-.06-.94-.06h-1.01c-.34,0-.67-.04-.98-.13-.36,.17-.65,.38-.88,.63s-.34,.54-.34,.88c0,.22,.06,.42,.17,.6,.11,.19,.28,.35,.51,.49,.23,.14,.51,.24,.86,.32,.34,.08,.75,.12,1.22,.12s.86-.04,1.23-.13,.67-.2,.92-.36c.25-.16,.44-.34,.57-.55,.13-.21,.2-.45,.2-.71Zm-3-5.19c.34,0,.64-.05,.91-.14,.26-.1,.48-.23,.66-.4,.18-.17,.31-.38,.4-.61,.09-.24,.13-.5,.13-.78,0-.59-.18-1.06-.54-1.41-.36-.35-.88-.52-1.56-.52s-1.2,.17-1.55,.52c-.36,.35-.54,.82-.54,1.41,0,.29,.05,.55,.14,.78,.09,.24,.23,.44,.4,.61,.18,.17,.4,.3,.66,.4,.26,.09,.56,.14,.89,.14Z" style="fill: #fff;"/>
  </g>
  <g>
    <path d="M320.74,429.13c-.06,.09-.12,.17-.18,.21-.06,.05-.15,.07-.25,.07-.11,0-.23-.05-.38-.16s-.32-.23-.54-.36c-.22-.13-.48-.25-.79-.36-.31-.11-.68-.16-1.12-.16-.41,0-.78,.06-1.09,.17-.32,.11-.58,.26-.79,.45-.21,.19-.37,.41-.48,.67-.11,.26-.16,.53-.16,.83,0,.38,.09,.7,.28,.95,.19,.25,.43,.46,.74,.64,.31,.18,.66,.33,1.04,.46s.79,.26,1.2,.4c.41,.14,.81,.3,1.2,.47,.39,.17,.74,.39,1.04,.66,.31,.27,.55,.59,.74,.98,.19,.39,.28,.86,.28,1.42,0,.6-.1,1.15-.3,1.68-.2,.52-.5,.98-.89,1.36-.39,.39-.87,.69-1.43,.91-.57,.22-1.21,.33-1.93,.33-.88,0-1.68-.16-2.41-.48-.73-.32-1.34-.75-1.86-1.3l.53-.87c.05-.07,.11-.13,.19-.18,.07-.05,.15-.07,.24-.07,.13,0,.29,.07,.46,.21,.17,.14,.38,.3,.64,.47,.26,.17,.57,.33,.93,.47,.36,.14,.81,.21,1.33,.21,.44,0,.83-.06,1.17-.18,.34-.12,.63-.29,.87-.51s.42-.48,.55-.78c.13-.3,.19-.64,.19-1.02,0-.41-.09-.75-.28-1.01-.19-.26-.43-.48-.74-.66-.3-.18-.65-.33-1.04-.45-.39-.12-.79-.25-1.2-.38-.41-.13-.81-.28-1.2-.45-.39-.17-.74-.39-1.04-.67-.3-.27-.55-.61-.74-1.02-.19-.41-.28-.91-.28-1.51,0-.48,.09-.95,.28-1.4,.19-.45,.46-.85,.81-1.2s.79-.63,1.32-.84,1.12-.31,1.8-.31c.76,0,1.45,.12,2.08,.36,.63,.24,1.17,.59,1.64,1.04l-.45,.87Z" style="fill: #fff;"/>
    <path d="M323.57,440.62v-13.99h1.69v5.66c.41-.44,.87-.79,1.37-1.05,.5-.26,1.08-.39,1.73-.39,.53,0,.99,.09,1.39,.26,.4,.17,.74,.42,1.01,.74,.27,.32,.47,.7,.61,1.15,.14,.45,.21,.95,.21,1.49v6.13h-1.69v-6.13c0-.73-.17-1.29-.5-1.7-.33-.4-.84-.6-1.53-.6-.5,0-.97,.12-1.4,.36-.43,.24-.83,.57-1.2,.98v7.09h-1.69Z" style="fill: #fff;"/>
    <path d="M336.4,427.97c0,.17-.03,.32-.1,.46-.07,.14-.16,.27-.27,.38-.11,.11-.24,.2-.38,.26s-.3,.1-.47,.1-.32-.03-.46-.1c-.14-.06-.27-.15-.38-.26-.11-.11-.2-.24-.26-.38s-.09-.3-.09-.46,.03-.32,.09-.47c.06-.15,.15-.28,.26-.39,.11-.11,.24-.2,.38-.26,.14-.06,.3-.09,.46-.09s.32,.03,.47,.09,.27,.15,.38,.26c.11,.11,.2,.24,.27,.39,.07,.15,.1,.31,.1,.47Zm-.38,3.02v9.62h-1.69v-9.62h1.69Z" style="fill: #fff;"/>
    <path d="M346.07,440.62h-.75c-.16,0-.3-.03-.4-.08-.1-.05-.17-.16-.2-.32l-.19-.89c-.25,.23-.5,.43-.74,.61-.24,.18-.49,.33-.76,.46-.27,.12-.55,.22-.85,.28-.3,.06-.63,.1-1,.1s-.72-.05-1.05-.16c-.33-.11-.61-.26-.85-.47-.24-.21-.43-.47-.57-.8-.14-.32-.21-.7-.21-1.14,0-.38,.1-.75,.31-1.1,.21-.35,.55-.67,1.01-.94,.47-.27,1.08-.5,1.83-.67,.75-.17,1.67-.26,2.76-.26v-.75c0-.75-.16-1.32-.48-1.71-.32-.39-.79-.58-1.42-.58-.41,0-.76,.05-1.04,.16-.28,.1-.53,.22-.73,.35-.21,.13-.38,.25-.53,.35-.15,.1-.3,.16-.44,.16-.11,0-.21-.03-.3-.09-.08-.06-.15-.13-.2-.22l-.3-.54c.53-.51,1.1-.9,1.72-1.15,.61-.25,1.3-.38,2.04-.38,.54,0,1.02,.09,1.43,.27,.42,.18,.77,.42,1.05,.74,.29,.32,.5,.7,.65,1.15,.15,.45,.22,.94,.22,1.48v6.16Zm-4.39-1.04c.3,0,.57-.03,.82-.09,.25-.06,.48-.15,.7-.26,.22-.11,.43-.25,.63-.4,.2-.16,.39-.34,.58-.54v-1.99c-.78,0-1.44,.05-1.99,.15-.54,.1-.99,.23-1.33,.39-.34,.16-.59,.35-.75,.56-.16,.22-.23,.46-.23,.73s.04,.47,.12,.66c.08,.18,.19,.34,.33,.45,.14,.12,.3,.2,.49,.26,.19,.05,.4,.08,.62,.08Z" style="fill: #fff;"/>
    <path d="M351.55,440.77c-.76,0-1.34-.21-1.75-.64-.41-.42-.61-1.04-.61-1.83v-5.89h-1.16c-.1,0-.19-.03-.26-.09-.07-.06-.1-.15-.1-.28v-.67l1.58-.2,.39-2.97c.01-.1,.05-.17,.12-.23,.07-.06,.16-.09,.27-.09h.85v3.32h2.75v1.23h-2.75v5.78c0,.41,.1,.71,.29,.9s.45,.29,.76,.29c.18,0,.33-.02,.46-.07,.13-.05,.24-.1,.34-.16s.18-.11,.24-.16c.07-.05,.12-.07,.18-.07,.09,0,.17,.05,.24,.16l.49,.81c-.29,.27-.64,.49-1.05,.64-.41,.16-.84,.23-1.27,.23Z" style="fill: #fff;"/>
    <path d="M361.23,432.58c-.08,.14-.19,.21-.35,.21-.1,0-.2-.04-.32-.1s-.27-.15-.44-.23c-.17-.09-.38-.17-.62-.24-.24-.07-.53-.11-.85-.11-.29,0-.54,.04-.77,.11-.23,.07-.42,.17-.58,.3-.16,.13-.29,.27-.37,.44-.08,.17-.13,.35-.13,.55,0,.25,.07,.45,.21,.62s.33,.31,.57,.43c.23,.12,.5,.23,.8,.32,.3,.09,.6,.19,.92,.29s.62,.22,.92,.35,.56,.29,.8,.47c.23,.19,.42,.42,.57,.7,.14,.28,.21,.61,.21,.99,0,.44-.08,.85-.24,1.23s-.39,.7-.7,.98-.69,.49-1.14,.65c-.45,.16-.97,.24-1.56,.24-.67,0-1.28-.11-1.82-.33-.54-.22-1.01-.5-1.39-.84l.4-.65c.05-.08,.11-.15,.18-.19,.07-.04,.16-.07,.28-.07s.23,.04,.36,.13c.13,.09,.28,.19,.46,.29s.4,.21,.66,.29c.26,.09,.58,.13,.96,.13,.33,0,.62-.04,.86-.13,.25-.08,.45-.2,.62-.35,.17-.15,.29-.31,.37-.5,.08-.19,.12-.39,.12-.61,0-.27-.07-.49-.21-.66-.14-.17-.33-.32-.57-.45-.23-.12-.5-.23-.8-.32s-.61-.19-.92-.29-.62-.22-.92-.35c-.3-.13-.57-.29-.8-.49s-.42-.44-.56-.73-.21-.64-.21-1.05c0-.37,.08-.72,.23-1.06,.15-.34,.37-.64,.67-.89,.29-.26,.65-.46,1.07-.61,.42-.15,.91-.23,1.45-.23,.63,0,1.2,.1,1.71,.3s.94,.47,1.31,.82l-.38,.62Z" style="fill: #fff;"/>
    <path d="M365.43,430.99v6.14c0,.73,.17,1.29,.5,1.69,.34,.4,.84,.6,1.52,.6,.49,0,.96-.12,1.4-.35,.44-.23,.84-.56,1.21-.98v-7.1h1.69v9.62h-1.01c-.24,0-.39-.12-.46-.35l-.13-1.04c-.42,.46-.89,.83-1.41,1.12-.52,.28-1.11,.42-1.79,.42-.53,0-.99-.09-1.39-.26-.4-.17-.74-.42-1.01-.74-.27-.32-.48-.7-.61-1.15-.14-.45-.2-.95-.2-1.49v-6.14h1.69Z" style="fill: #fff;"/>
  </g>
  <g>
    <path d="M70.23,295.4v1.5h-6.54v4.52h5.29v1.44h-5.29v4.65h6.54v1.5h-8.39v-13.61h8.39Z" style="fill: #fff;"/>
    <path d="M72.61,309.01v-9.62h1.01c.24,0,.39,.12,.46,.35l.13,1.04c.42-.46,.88-.84,1.4-1.12,.52-.28,1.11-.43,1.79-.43,.53,0,.99,.09,1.39,.26,.4,.17,.74,.42,1.01,.74,.27,.32,.47,.7,.61,1.15,.14,.45,.21,.95,.21,1.49v6.13h-1.69v-6.13c0-.73-.17-1.29-.5-1.7-.33-.4-.84-.6-1.53-.6-.5,0-.97,.12-1.4,.36-.43,.24-.83,.57-1.2,.98v7.09h-1.69Z" style="fill: #fff;"/>
    <path d="M86.98,299.23c.58,0,1.11,.1,1.6,.29,.49,.19,.91,.47,1.26,.84,.35,.36,.63,.81,.83,1.35,.2,.54,.3,1.14,.3,1.83,0,.27-.03,.44-.09,.53-.06,.09-.16,.13-.32,.13h-6.4c.01,.61,.09,1.14,.25,1.59,.15,.45,.36,.83,.63,1.13s.58,.53,.95,.67c.37,.15,.78,.22,1.23,.22,.42,0,.79-.05,1.1-.15,.31-.1,.57-.2,.79-.32,.22-.11,.41-.22,.56-.32,.15-.1,.28-.15,.38-.15,.14,0,.25,.05,.32,.16l.48,.62c-.21,.25-.46,.47-.75,.66s-.6,.34-.94,.46c-.33,.12-.68,.21-1.03,.27-.35,.06-.71,.09-1.05,.09-.66,0-1.28-.11-1.84-.34s-1.04-.55-1.45-.99c-.41-.43-.73-.97-.96-1.61-.23-.64-.34-1.37-.34-2.2,0-.67,.1-1.3,.31-1.88s.5-1.09,.89-1.52c.39-.43,.86-.76,1.42-1.01,.56-.24,1.18-.37,1.88-.37Zm.04,1.24c-.82,0-1.46,.24-1.93,.71s-.76,1.13-.87,1.96h5.23c0-.39-.05-.75-.16-1.08-.11-.33-.27-.61-.47-.84-.21-.24-.46-.42-.76-.55-.3-.13-.64-.19-1.03-.19Z" style="fill: #fff;"/>
    <path d="M93.13,309.01v-9.62h.97c.18,0,.31,.04,.38,.1,.07,.07,.12,.19,.14,.36l.11,1.5c.33-.67,.74-1.2,1.22-1.57s1.05-.57,1.71-.57c.27,0,.51,.03,.72,.09,.21,.06,.42,.14,.6,.25l-.22,1.26c-.04,.16-.14,.24-.29,.24-.09,0-.22-.03-.41-.09s-.44-.09-.77-.09c-.59,0-1.08,.17-1.48,.51-.4,.34-.73,.84-.99,1.49v6.13h-1.69Z" style="fill: #fff;"/>
    <path d="M104.03,299.22c.42,0,.81,.05,1.17,.14s.7,.23,.99,.4h2.61v.63c0,.21-.13,.34-.4,.4l-1.09,.15c.22,.41,.32,.87,.32,1.38,0,.47-.09,.89-.27,1.28-.18,.38-.43,.71-.75,.98-.32,.27-.7,.48-1.14,.63-.44,.15-.92,.22-1.45,.22-.45,0-.87-.05-1.27-.16-.2,.13-.36,.27-.46,.42-.1,.15-.16,.3-.16,.44,0,.24,.09,.41,.28,.54s.43,.21,.73,.26,.65,.08,1.04,.08h1.18c.4,0,.8,.04,1.18,.11,.39,.07,.73,.19,1.04,.35s.55,.38,.73,.66,.28,.65,.28,1.1c0,.42-.1,.82-.31,1.21-.21,.39-.5,.74-.89,1.04-.39,.3-.86,.55-1.42,.73-.56,.18-1.19,.27-1.89,.27s-1.32-.07-1.85-.21c-.53-.14-.97-.33-1.32-.56-.35-.23-.61-.51-.78-.81-.17-.31-.26-.63-.26-.96,0-.48,.15-.88,.45-1.21,.3-.33,.71-.6,1.24-.79-.27-.13-.49-.29-.65-.51-.16-.21-.24-.5-.24-.85,0-.14,.02-.28,.08-.43,.05-.15,.13-.29,.23-.44,.1-.14,.23-.28,.38-.42,.15-.13,.33-.25,.53-.35-.47-.27-.85-.62-1.12-1.06-.27-.44-.4-.96-.4-1.54,0-.47,.09-.89,.27-1.28s.43-.71,.76-.98c.32-.27,.71-.48,1.15-.62,.45-.15,.94-.22,1.47-.22Zm3,10.27c0-.25-.07-.44-.2-.59s-.31-.26-.54-.34c-.23-.08-.49-.14-.79-.18s-.61-.06-.94-.06h-1.01c-.34,0-.67-.04-.98-.13-.36,.17-.65,.38-.88,.63s-.34,.54-.34,.88c0,.22,.06,.42,.17,.6,.11,.19,.28,.35,.51,.49,.23,.14,.51,.24,.86,.32,.34,.08,.75,.12,1.22,.12s.86-.04,1.23-.13,.67-.2,.92-.36c.25-.16,.44-.34,.57-.55,.13-.21,.2-.45,.2-.71Zm-3-5.19c.34,0,.64-.05,.91-.14,.26-.09,.48-.23,.66-.4,.18-.17,.31-.38,.4-.61,.09-.24,.13-.5,.13-.78,0-.59-.18-1.06-.54-1.41-.36-.35-.88-.52-1.56-.52s-1.2,.17-1.55,.52c-.36,.35-.54,.82-.54,1.41,0,.29,.05,.55,.14,.78,.09,.24,.23,.44,.4,.61,.18,.17,.4,.3,.66,.4,.26,.1,.56,.14,.89,.14Z" style="fill: #fff;"/>
    <path d="M112.76,296.36c0,.17-.03,.32-.1,.46-.07,.14-.16,.27-.27,.38-.11,.11-.24,.2-.38,.26s-.3,.1-.47,.1-.32-.03-.46-.1c-.14-.06-.27-.15-.38-.26-.11-.11-.2-.24-.26-.38s-.09-.3-.09-.46,.03-.32,.09-.47c.06-.15,.15-.28,.26-.39,.11-.11,.24-.2,.38-.26,.14-.06,.3-.09,.46-.09s.32,.03,.47,.09,.27,.15,.38,.26c.11,.11,.2,.24,.27,.39,.07,.15,.1,.31,.1,.47Zm-.38,3.02v9.62h-1.69v-9.62h1.69Z" style="fill: #fff;"/>
    <path d="M119.17,299.23c.58,0,1.11,.1,1.6,.29,.49,.19,.91,.47,1.26,.84,.35,.36,.63,.81,.83,1.35,.2,.54,.3,1.14,.3,1.83,0,.27-.03,.44-.09,.53-.06,.09-.16,.13-.32,.13h-6.4c.01,.61,.09,1.14,.25,1.59,.15,.45,.36,.83,.63,1.13s.58,.53,.95,.67c.37,.15,.78,.22,1.23,.22,.42,0,.79-.05,1.1-.15,.31-.1,.57-.2,.79-.32,.22-.11,.41-.22,.56-.32,.15-.1,.28-.15,.38-.15,.14,0,.25,.05,.32,.16l.48,.62c-.21,.25-.46,.47-.75,.66s-.6,.34-.94,.46c-.33,.12-.68,.21-1.03,.27-.35,.06-.71,.09-1.05,.09-.66,0-1.28-.11-1.84-.34s-1.04-.55-1.45-.99c-.41-.43-.73-.97-.96-1.61-.23-.64-.34-1.37-.34-2.2,0-.67,.1-1.3,.31-1.88s.5-1.09,.89-1.52c.39-.43,.86-.76,1.42-1.01,.56-.24,1.18-.37,1.88-.37Zm.04,1.24c-.82,0-1.46,.24-1.93,.71s-.76,1.13-.87,1.96h5.23c0-.39-.05-.75-.16-1.08-.11-.33-.27-.61-.47-.84-.21-.24-.46-.42-.76-.55-.3-.13-.64-.19-1.03-.19Z" style="fill: #fff;"/>
    <path d="M124.88,302.6h4.69v1.43h-4.69v-1.43Z" style="fill: #fff;"/>
    <path d="M62.42,322.03c.58,0,1.11,.1,1.6,.29,.49,.19,.91,.47,1.26,.84s.63,.81,.83,1.35c.2,.54,.3,1.14,.3,1.83,0,.27-.03,.44-.09,.53-.06,.09-.16,.13-.32,.13h-6.4c.01,.61,.09,1.14,.25,1.59,.15,.45,.36,.83,.63,1.13s.58,.53,.95,.67c.37,.15,.78,.22,1.23,.22,.42,0,.79-.05,1.1-.15,.31-.1,.57-.2,.79-.32,.22-.11,.41-.22,.56-.32,.15-.1,.28-.15,.38-.15,.14,0,.25,.05,.32,.16l.48,.62c-.21,.25-.46,.47-.75,.66s-.6,.34-.94,.46c-.33,.12-.68,.21-1.03,.27-.35,.06-.71,.09-1.05,.09-.66,0-1.28-.11-1.84-.34s-1.04-.55-1.45-.99c-.41-.43-.73-.97-.96-1.61-.23-.64-.34-1.37-.34-2.2,0-.67,.1-1.3,.31-1.88,.21-.58,.5-1.09,.89-1.51,.39-.43,.86-.76,1.42-1.01,.56-.24,1.18-.37,1.88-.37Zm.04,1.24c-.82,0-1.46,.24-1.93,.71s-.76,1.13-.87,1.96h5.23c0-.39-.05-.75-.16-1.08s-.27-.61-.47-.85-.46-.42-.76-.55-.64-.2-1.03-.2Z" style="fill: #fff;"/>
    <path d="M74.07,323.77c-.08,.14-.19,.21-.35,.21-.1,0-.2-.03-.32-.1-.12-.07-.27-.15-.44-.23-.17-.09-.38-.17-.62-.24-.24-.07-.53-.11-.85-.11-.29,0-.54,.04-.77,.11-.23,.07-.42,.17-.58,.3-.16,.13-.29,.27-.37,.44-.08,.17-.13,.35-.13,.55,0,.25,.07,.45,.21,.62s.33,.31,.57,.43c.23,.12,.5,.23,.8,.32,.3,.09,.6,.19,.92,.29s.62,.22,.92,.35c.3,.13,.56,.29,.8,.48,.23,.19,.42,.42,.57,.7s.21,.61,.21,.99c0,.44-.08,.85-.24,1.23s-.39,.7-.7,.98-.69,.49-1.14,.65c-.45,.16-.97,.24-1.56,.24-.67,0-1.28-.11-1.82-.33-.54-.22-1.01-.5-1.39-.84l.4-.65c.05-.08,.11-.15,.18-.19,.07-.04,.16-.07,.28-.07s.23,.04,.36,.13c.13,.09,.28,.19,.46,.29s.4,.21,.66,.29c.26,.09,.58,.13,.96,.13,.33,0,.62-.04,.86-.13,.25-.08,.45-.2,.62-.35,.17-.15,.29-.31,.37-.5,.08-.19,.12-.39,.12-.61,0-.27-.07-.49-.21-.66-.14-.17-.33-.32-.57-.45-.23-.12-.5-.23-.8-.32s-.61-.19-.92-.29-.62-.22-.92-.35c-.3-.13-.57-.29-.8-.49s-.42-.44-.56-.73-.21-.64-.21-1.05c0-.37,.08-.72,.23-1.06,.15-.34,.37-.64,.67-.89,.29-.26,.65-.46,1.07-.61,.42-.15,.91-.23,1.45-.23,.63,0,1.2,.1,1.71,.3,.5,.2,.94,.47,1.31,.82l-.38,.62Z" style="fill: #fff;"/>
    <path d="M82.32,323.77c-.08,.14-.19,.21-.35,.21-.1,0-.2-.03-.32-.1-.12-.07-.27-.15-.44-.23-.17-.09-.38-.17-.62-.24-.24-.07-.53-.11-.85-.11-.29,0-.54,.04-.77,.11-.23,.07-.42,.17-.58,.3-.16,.13-.29,.27-.37,.44-.08,.17-.13,.35-.13,.55,0,.25,.07,.45,.21,.62s.33,.31,.57,.43c.23,.12,.5,.23,.8,.32,.3,.09,.6,.19,.92,.29s.62,.22,.92,.35c.3,.13,.56,.29,.8,.48,.23,.19,.42,.42,.57,.7s.21,.61,.21,.99c0,.44-.08,.85-.24,1.23s-.39,.7-.7,.98-.69,.49-1.14,.65c-.45,.16-.97,.24-1.56,.24-.67,0-1.28-.11-1.82-.33-.54-.22-1.01-.5-1.39-.84l.4-.65c.05-.08,.11-.15,.18-.19,.07-.04,.16-.07,.28-.07s.23,.04,.36,.13c.13,.09,.28,.19,.46,.29s.4,.21,.66,.29c.26,.09,.58,.13,.96,.13,.33,0,.62-.04,.86-.13,.25-.08,.45-.2,.62-.35,.17-.15,.29-.31,.37-.5,.08-.19,.12-.39,.12-.61,0-.27-.07-.49-.21-.66-.14-.17-.33-.32-.57-.45-.23-.12-.5-.23-.8-.32s-.61-.19-.92-.29-.62-.22-.92-.35c-.3-.13-.57-.29-.8-.49s-.42-.44-.56-.73-.21-.64-.21-1.05c0-.37,.08-.72,.23-1.06,.15-.34,.37-.64,.67-.89,.29-.26,.65-.46,1.07-.61,.42-.15,.91-.23,1.45-.23,.63,0,1.2,.1,1.71,.3,.5,.2,.94,.47,1.31,.82l-.38,.62Z" style="fill: #fff;"/>
    <path d="M88.87,322.03c.58,0,1.11,.1,1.6,.29,.49,.19,.91,.47,1.26,.84s.63,.81,.83,1.35c.2,.54,.3,1.14,.3,1.83,0,.27-.03,.44-.09,.53-.06,.09-.16,.13-.32,.13h-6.4c.01,.61,.09,1.14,.25,1.59,.15,.45,.36,.83,.63,1.13s.58,.53,.95,.67c.37,.15,.78,.22,1.23,.22,.42,0,.79-.05,1.1-.15,.31-.1,.57-.2,.79-.32,.22-.11,.41-.22,.56-.32,.15-.1,.28-.15,.38-.15,.14,0,.25,.05,.32,.16l.48,.62c-.21,.25-.46,.47-.75,.66s-.6,.34-.94,.46c-.33,.12-.68,.21-1.03,.27-.35,.06-.71,.09-1.05,.09-.66,0-1.28-.11-1.84-.34s-1.04-.55-1.45-.99c-.41-.43-.73-.97-.96-1.61-.23-.64-.34-1.37-.34-2.2,0-.67,.1-1.3,.31-1.88,.21-.58,.5-1.09,.89-1.51,.39-.43,.86-.76,1.42-1.01,.56-.24,1.18-.37,1.88-.37Zm.04,1.24c-.82,0-1.46,.24-1.93,.71s-.76,1.13-.87,1.96h5.23c0-.39-.05-.75-.16-1.08s-.27-.61-.47-.85-.46-.42-.76-.55-.64-.2-1.03-.2Z" style="fill: #fff;"/>
    <path d="M95.01,331.81v-9.62h1.01c.24,0,.39,.12,.46,.35l.13,1.05c.42-.46,.88-.84,1.4-1.12,.52-.29,1.11-.43,1.79-.43,.53,0,.99,.09,1.39,.26,.4,.17,.74,.42,1.01,.74,.27,.32,.47,.71,.61,1.15,.14,.45,.21,.95,.21,1.49v6.13h-1.69v-6.13c0-.73-.17-1.29-.5-1.7-.33-.4-.84-.6-1.53-.6-.5,0-.97,.12-1.4,.36-.43,.24-.83,.57-1.2,.98v7.09h-1.69Z" style="fill: #fff;"/>
    <path d="M112.29,322.91c0,.12-.02,.24-.07,.35-.04,.11-.1,.21-.17,.3l-5.21,6.94h5.25v1.32h-7.25v-.7c0-.08,.02-.18,.06-.29,.04-.11,.1-.22,.18-.32l5.23-6.98h-5.18v-1.33h7.14v.72Z" style="fill: #fff;"/>
    <path d="M118.16,322.03c.58,0,1.11,.1,1.6,.29,.49,.19,.91,.47,1.26,.84s.63,.81,.83,1.35c.2,.54,.3,1.14,.3,1.83,0,.27-.03,.44-.09,.53-.06,.09-.16,.13-.32,.13h-6.4c.01,.61,.09,1.14,.25,1.59,.15,.45,.36,.83,.63,1.13s.58,.53,.95,.67c.37,.15,.78,.22,1.23,.22,.42,0,.79-.05,1.1-.15,.31-.1,.57-.2,.79-.32,.22-.11,.41-.22,.56-.32,.15-.1,.28-.15,.38-.15,.14,0,.25,.05,.32,.16l.48,.62c-.21,.25-.46,.47-.75,.66s-.6,.34-.94,.46c-.33,.12-.68,.21-1.03,.27-.35,.06-.71,.09-1.05,.09-.66,0-1.28-.11-1.84-.34s-1.04-.55-1.45-.99c-.41-.43-.73-.97-.96-1.61-.23-.64-.34-1.37-.34-2.2,0-.67,.1-1.3,.31-1.88,.21-.58,.5-1.09,.89-1.51,.39-.43,.86-.76,1.42-1.01,.56-.24,1.18-.37,1.88-.37Zm.04,1.24c-.82,0-1.46,.24-1.93,.71s-.76,1.13-.87,1.96h5.23c0-.39-.05-.75-.16-1.08s-.27-.61-.47-.85-.46-.42-.76-.55-.64-.2-1.03-.2Z" style="fill: #fff;"/>
    <path d="M124.31,331.81v-9.62h1.01c.24,0,.39,.12,.46,.35l.13,1.05c.42-.46,.88-.84,1.4-1.12,.52-.29,1.11-.43,1.79-.43,.53,0,.99,.09,1.39,.26,.4,.17,.74,.42,1.01,.74,.27,.32,.47,.71,.61,1.15,.14,.45,.21,.95,.21,1.49v6.13h-1.69v-6.13c0-.73-.17-1.29-.5-1.7-.33-.4-.84-.6-1.53-.6-.5,0-.97,.12-1.4,.36-.43,.24-.83,.57-1.2,.98v7.09h-1.69Z" style="fill: #fff;"/>
  </g>
  <g>
    <polygon points="273.55 291.1 273.95 302.08 271.61 313.22 260.29 317.88 254.74 303.42 261.53 288.19 274.36 281.86 273.55 291.1" style="fill: none; stroke: #fff; stroke-width: 1.58px;"/>
    <polygon points="192.11 242.09 196.04 249.33 190.12 246.88 189.39 248.64 200.8 253.37 201.53 251.61 198.76 250.46 197.32 247.84 203.53 246.78 204.39 244.71 196.32 246.01 193 239.93 192.11 242.09" style="fill: #4b1f0d;"/>
    <g style="clip-path: url(#b);">
      <path d="M206.24,231.63l-1.3-.88c-2.15-1.45-3.73-1.12-4.79,.46-1.06,1.58-.76,3.16,1.42,4.63l1.27,.86,3.4-5.07Zm-.35-2.51l5.89,3.96-1.05,1.57-2.96-1.99-3.4,5.07,2.96,1.99-1.05,1.57-5.89-3.96c-2.81-1.89-3.48-4.57-1.75-7.13,1.72-2.56,4.45-2.96,7.27-1.07" style="fill: #4b1f0d;"/>
    </g>
    <polygon points="218.62 223.02 219.84 224.39 215.09 229.26 206.26 220.65 207.59 219.29 215.11 226.62 218.62 223.02" style="fill: #4b1f0d;"/>
    <g style="clip-path: url(#c);">
      <path d="M226.29,212.63l-.91-1.28c-1.5-2.12-3.09-2.37-4.64-1.27-1.55,1.1-1.84,2.69-.31,4.83l.89,1.25,4.98-3.53Zm.56-2.47l4.1,5.78-1.54,1.09-2.06-2.91-4.98,3.53,2.06,2.91-1.54,1.09-4.1-5.78c-1.96-2.76-1.63-5.51,.88-7.29,2.52-1.79,5.21-1.19,7.17,1.57" style="fill: #4b1f0d;"/>
    </g>
    <polygon points="248.52 195.55 252.06 207.39 250.23 207.93 248.65 202.64 243.32 204.23 244.9 209.52 243.08 210.07 239.54 198.23 241.37 197.68 242.8 202.47 248.13 200.88 246.7 196.09 248.52 195.55" style="fill: #4b1f0d;"/>
    <polygon points="255.8 194.23 257.07 206.51 264.6 205.73 264.29 203.92 258.78 204.49 258.34 200.3 261.92 199.93 261.73 198.11 258.15 198.48 257.88 195.86 263.3 195.3 262.97 193.49 255.8 194.23" style="fill: #4b1f0d;"/>
    <rect x="264.14" y="198.69" width="12.35" height="1.91" transform="translate(62.23 463.52) rotate(-88.19)" style="fill: #4b1f0d;"/>
    <polygon points="283.45 205.52 283.04 207.32 276.32 206.23 278.29 194.04 280.17 194.34 278.49 204.72 283.45 205.52" style="fill: #4b1f0d;"/>
    <g style="clip-path: url(#d);">
      <path d="M296.39,205.85l.53-1.48c.87-2.44,.17-3.89-1.62-4.53-1.79-.64-3.25,.04-4.14,2.51l-.52,1.45,5.75,2.06Zm2.35-.96l-2.39,6.68-1.78-.64,1.2-3.36-5.75-2.06-1.2,3.36-1.78-.64,2.39-6.68c1.14-3.19,3.57-4.49,6.48-3.45,2.91,1.04,3.96,3.59,2.82,6.78" style="fill: #4b1f0d;"/>
      <path d="M305.12,210.36l2.43,1.47c1.52,.93,2.78,.21,3.53-1.02,.74-1.22,.8-2.67-.73-3.6l-2.43-1.47-2.8,4.61Zm3.12,3.69l.3,4.41-1.95-1.18-.28-4.09-2.13-1.29-1.74,2.86-1.63-.99,6.41-10.55,4.1,2.49c2.5,1.52,2.71,3.89,1.37,6.1-1.04,1.72-2.62,2.66-4.46,2.24" style="fill: #4b1f0d;"/>
      <path d="M319.17,216.54l1.88,1.71c.81,.73,1.45,.58,1.93,.06,.33-.37,.56-1.11-.06-1.67l-2.1-1.91-1.65,1.81Zm1.17,6.66c1.06-1.16,1.08-2.5-.21-3.67l-2.01-1.83-3.2,3.52,2.04,1.85c1.33,1.21,2.48,1.13,3.39,.13m1.45,1.32c-1.41,1.55-3.38,2.27-5.97,0l-3.55-3.23,8.3-9.14,3.71,3.37c1.6,1.46,.95,3.1,.26,3.86-.59,.65-1.41,.79-1.92,.85,.63,1.46,.3,3.03-.83,4.27" style="fill: #4b1f0d;"/>
    </g>
    <polygon points="326.6 236.87 321.99 230.86 331.81 223.35 336.19 229.08 334.82 230.31 331.51 225.98 329.42 227.58 331.61 230.44 330.15 231.55 327.96 228.69 324.61 231.26 327.98 235.66 326.6 236.87" style="fill: #4b1f0d;"/>
    <rect x="328.58" y="237.59" width="12.35" height="1.91" transform="translate(-74.16 196.67) rotate(-29.63)" style="fill: #4b1f0d;"/>
    <polygon points="341.66 242.18 342.96 245.42 333.2 249.34 333.91 251.11 343.67 247.19 344.97 250.42 346.62 249.62 343.41 241.61 341.66 242.18" style="fill: #4b1f0d;"/>
    <g style="clip-path: url(#e);">
      <path d="M199.39,304.97c3.09-1.02,4.73-3.62,3.55-7.19l-1.06-3.2-10.69,3.54,1.06,3.2c1.18,3.58,4.07,4.67,7.14,3.65m.43,1.3c-3.86,1.28-7.37-.17-8.83-4.59l-1.48-4.46,13.18-4.37,1.48,4.46c1.47,4.42-.48,7.68-4.34,8.96" style="fill: #4b1f0d;"/>
      <path d="M203.21,311.45l5.29,8.5c2.33-1.73,3.36-4.28,1.79-6.81-1.47-2.36-4.5-2.92-7.08-1.69m4.91,10.3l-6-9.65c-2.4,1.7-3.53,4.39-1.67,7.37,.96,1.55,2.62,2.53,4.03,2.72l-.28,1.2c-1.64-.24-3.59-1.23-4.84-3.25-2.37-3.81-.89-7.43,2.48-9.53,3.38-2.1,7.56-1.36,9.55,1.84,2.09,3.37,.58,6.9-2.81,9.01l-.45,.28Z" style="fill: #4b1f0d;"/>
      <path d="M222.04,327.13l-1.24,.22c-.12-.9-.48-1.68-1.05-2.28-1.52-1.6-3.93-1.19-6.27,1.03l-5.46,5.19-.94-.99,10.06-9.56,.94,.99-1.48,1.41c1.54-.42,2.99-.11,4.1,1.06,.75,.79,1.19,1.74,1.34,2.94" style="fill: #4b1f0d;"/>
    </g>
    <polygon points="231.71 333.81 230.11 344.7 238.17 336.8 238.33 336.88 236.94 348.09 244.63 340.23 245.95 340.88 235.5 351.4 235.34 351.32 236.73 339.93 228.47 347.91 228.33 347.84 230.42 333.17 231.71 333.81" style="fill: #4b1f0d;"/>
    <g style="clip-path: url(#f);">
      <path d="M248.08,347.62l9.81,2.04c.35-2.88-.79-5.39-3.7-5.99-2.72-.57-5.22,1.24-6.11,3.96m10.85,3.55l-11.13-2.31c-.42,2.91,.75,5.58,4.18,6.29,1.79,.37,3.64-.16,4.75-1.04l.68,1.03c-1.31,1.03-3.36,1.75-5.69,1.27-4.39-.91-6-4.48-5.19-8.37,.81-3.9,4.23-6.41,7.92-5.65,3.88,.81,5.4,4.34,4.59,8.24l-.11,.52Z" style="fill: #4b1f0d;"/>
      <path d="M275.94,356.38c-1.01,.82-2.56,1.52-4.82,1.58-4.3,.12-7.25-2.97-7.36-6.94-.11-3.96,2.81-7.22,6.94-7.34,1.88-.05,3.51,.6,4.78,1.55l-.7,1.07c-1.12-.86-2.56-1.36-4.05-1.31-3.21,.09-5.64,2.7-5.55,5.99,.09,3.31,2.5,5.74,5.89,5.65,1.35-.04,2.57-.39,3.45-.87l-.13-4.82-2.93,.08,.06-1.33,4.22-.12,.19,6.8Z" style="fill: #4b1f0d;"/>
    </g>
    <polygon points="295.03 338.49 293.37 352.35 299.21 350.19 299.57 351.45 291.86 354.31 291.8 354.16 293.44 340.31 287.69 342.44 287.35 341.17 294.98 338.34 295.03 338.49" style="fill: #4b1f0d;"/>
    <g style="clip-path: url(#g);">
      <path d="M307.19,331.38l7.26,11.83-1.17,.72-.91-1.49c-.04,1.45-.89,2.83-2.48,3.8-2.62,1.61-5.27,1.19-6.97-1.58l-4.75-7.74,1.17-.72,4.55,7.4c1.45,2.36,3.55,2.63,5.34,1.54,1.66-1.02,2.86-3.18,1.65-5.16l-4.85-7.89,1.17-.72Z" style="fill: #4b1f0d;"/>
      <path d="M328.58,319.19c-2.55-2.02-5.62-1.98-7.96,.97l-2.1,2.64,8.83,7,2.1-2.64c2.34-2.95,1.67-5.97-.86-7.98m.85-1.07c3.19,2.53,3.9,6.26,1,9.91l-2.92,3.68-10.88-8.63,2.92-3.68c2.9-3.65,6.69-3.81,9.88-1.28" style="fill: #4b1f0d;"/>
    </g>
    <rect x="331.63" y="305.93" width="1.39" height="13.88" transform="translate(-102.4 451.96) rotate(-61.02)" style="fill: #4b1f0d;"/>
    <g style="clip-path: url(#h);">
      <path d="M332.52,297.45l.73,1.03c-.77,.49-1.32,1.15-1.62,1.92-.8,2.05,.59,4.06,3.6,5.23l7.02,2.74-.5,1.27-12.93-5.04,.5-1.27,1.9,.74c-1.04-1.21-1.37-2.66-.78-4.16,.39-1.02,1.07-1.82,2.09-2.46" style="fill: #4b1f0d;"/>
      <path d="M344.37,299.65c-.51-.14-.82-.66-.67-1.21,.14-.52,.68-.82,1.2-.68,.55,.15,.84,.69,.69,1.2-.15,.55-.67,.84-1.22,.69" style="fill: #4b1f0d;"/>
      <path d="M286.02,254.01c-.31,2.93-2.18,5.43-4.38,7.39-1.93,1.71-4.27,3.14-6.37,4.59,.59-1.31,.75-2.42,.56-3.56-.23-1.37-.88-2.36-1.21-3.71-.55-2.27,.05-4.8,1.38-6.72,2.79-4.05,8.05-5.11,10.99-8.9-.73,2.35-1.22,4.37-1.16,6.89,.03,1.27,.33,2.77,.2,4.03m-17.7,9c-.32-.44-.61-1-1-1.43-.68-.76-1.56-1.31-2.33-1.98-2.09-1.84-3.55-4.56-3.42-7.33,.18-3.88,2.33-7.11,1.71-10.8,.61,1.09,.95,1.57,1.66,2.57,.67,.94,1.52,1.74,2.32,2.59,1.32,1.4,2.61,2.96,3.18,4.8,1,3.29,.11,8.91-2.13,11.59m1.44,36.24c-.34,2.55-2.12,4.78-4.19,6.3-1.83,1.36-4.25,2.57-6.5,2.99-.18-1.04-.24-2-.61-3.05-1.13-3.21-.71-7.04,1.45-9.67,1.21-1.48,2.93-2.48,4.26-3.86,1.41-1.46,2.22-3.17,2.21-5.07,1.25,4.25,3.96,8.1,3.39,12.36m-24.02-9.33c-4.73-.87-9.07-3.75-13.94-3.69,2.69-1.15,4.26-3.37,6.11-5.43,3.47-3.86,8.97-6.22,13.96-4.79,2.15,.61,3.95,1.64,5.87,2.79,1.91,1.14,4.67,2.76,6,4.44-2.05,.65-3.54,2.02-5.17,3.36-3.57,2.82-8.34,4.15-12.82,3.33m8.26-35.31c2.51,1.48,4.31,4.12,5.58,6.75,1.27,2.63,2.18,5.42,2.66,8.3,.21,1.26,.05,5.06,.05,5.06,0,0-1.71-1.21-2.27-1.45-.84-.36-1.78-.54-2.68-.69-3.11-.52-6.49-1.22-8.63-3.53-2.33-2.51-2.73-6.1-3.34-9.47-.61-3.37-2.1-6.98-5.02-8.51,4.65,1.19,9.62,1.15,13.65,3.53m14.7-34.8c-29.33,0-53.1,23.78-53.1,53.1s23.78,53.1,53.1,53.1,53.1-23.78,53.1-53.1-23.78-53.1-53.1-53.1" style="fill: #009594;"/>
    </g>
  </g>
</svg>