<?xml version="1.0" encoding="UTF-8"?>
<svg id="a" data-name="Ebene 1" xmlns="http://www.w3.org/2000/svg" viewBox="0 0 448.61 133.06">
  <path d="M51.47,27.57S60.24,4.78,31.74,0c0,0,2.45,4.17,2.17,7.73-.19,2.37-.05,19.03,17.56,19.84Z" style="fill: #4b1f0d;"/>
  <path d="M80.48,46.27c2.84-3.73,7.55-6.13,12.21-5.64,2.62,.27,5.06,1.49,7.65,1.98,2.74,.52,3.75,1.04,6.17-.13-3.93,4.65-4.99,9.5-10.32,12.07-3.19,1.53-7.09,1.17-10.41-.05-2.94-1.08-6.17-2.94-8.34-5.21,1.05-.99,2.12-1.79,3.05-3.01Z" style="fill: #4b1f0d;"/>
  <path d="M75.04,52.84c.93,.24,1.91,.22,2.87,.36,2.61,.37,5.17,1.76,6.52,4.03,1.87,3.16,1.85,6.84,4.26,9.44-1.05-.55-1.57-.75-2.65-1.17-1.02-.39-2.11-.59-3.18-.84-1.77-.42-3.61-.98-5.01-2.15-2.5-2.08-4.72-6.99-4.34-10.28,.48,.18,1,.48,1.54,.61Z" style="fill: #4b1f0d;"/>
  <g>
    <path d="M99.75,99.06l1.24,1.53c-1.61,1.64-4.67,3.65-8.94,3.65-9.12,0-13.29-7.88-14.56-13.03l-4.05,4.96v7.67h-2.55v-25.55h2.55v14.12l11.57-14.12h3.03l-8.76,10.73c1.02,5.04,4.67,13.1,12.77,13.1,3.58,0,5.91-1.42,7.7-3.07Zm10.66-9.89v14.67h-2.52v-9.71h-15.4v3.83h-2.52v-8.8c0-7.01,3.87-11.24,10.22-11.24s10.22,4.23,10.22,11.24Zm-2.52,2.56v-2.3c0-6.06-3.07-9.09-7.7-9.09s-7.7,3.03-7.7,9.16v2.23h15.4Z" style="fill: #4b1f0d;"/>
    <path d="M123.11,80.7v23.14h-2.56v-23.14h-7.77l.18-2.41h17.7l.18,2.41h-7.74Z" style="fill: #4b1f0d;"/>
    <path d="M154.21,78.3v25.55h-2.55v-12.12h-13.98v12.12h-2.55v-25.55h2.55v11.02h13.98v-11.02h2.55Z" style="fill: #4b1f0d;"/>
    <path d="M180.56,88.77v15.07h-2.52v-8.07h-15.07v8.07h-2.52v-15.07c0-6.86,3.65-10.84,10.04-10.84s10.07,3.98,10.07,10.84Zm-2.52,4.6v-4.42c0-5.99-2.99-8.61-7.56-8.61s-7.52,2.63-7.52,8.65v4.38h15.07Z" style="fill: #4b1f0d;"/>
    <path d="M198.66,96.29l5.8,7.56h-3.1l-5.58-7.26h-6.39v7.26h-2.55v-25.55h9.31c6.02,0,8.91,4.34,8.91,9.16,0,4.05-2.08,7.81-6.39,8.83Zm-9.27-2.08h6.61c4.6,0,6.53-3.47,6.53-6.75s-1.93-6.79-6.53-6.79h-6.61v13.54Z" style="fill: #4b1f0d;"/>
    <path d="M210.53,78.3h2.55v25.55h-2.55v-25.55Z" style="fill: #4b1f0d;"/>
    <path d="M240.13,78.3v25.91h-.33l-17.67-19.89v19.53h-2.52v-25.91h.33l17.67,19.89v-19.53h2.52Z" style="fill: #4b1f0d;"/>
    <path d="M266.52,88.77v15.07h-2.52v-8.07h-15.07v8.07h-2.52v-15.07c0-6.86,3.65-10.84,10.04-10.84s10.07,3.98,10.07,10.84Zm-2.52,4.6v-4.42c0-5.99-2.99-8.61-7.56-8.61s-7.52,2.63-7.52,8.65v4.38h15.07Z" style="fill: #4b1f0d;"/>
    <path d="M306.48,101.55c-1.9,1.46-4.78,2.66-8.94,2.66-7.92,0-13.18-5.84-13.18-13.14s5.55-13.14,13.14-13.14c3.47,0,6.42,1.28,8.72,3.1l-1.35,1.93c-2.01-1.64-4.63-2.63-7.37-2.63-5.91,0-10.51,4.67-10.51,10.73s4.31,10.69,10.55,10.69c2.48,0,4.75-.58,6.39-1.42v-8.87h-5.4l.18-2.45h7.77v12.52Z" style="fill: #4b1f0d;"/>
    <path d="M324.51,96.29l5.8,7.56h-3.1l-5.58-7.26h-6.39v7.26h-2.55v-25.55h9.31c6.02,0,8.91,4.34,8.91,9.16,0,4.05-2.08,7.81-6.39,8.83Zm-9.27-2.08h6.61c4.6,0,6.53-3.47,6.53-6.75s-1.93-6.79-6.53-6.79h-6.61v13.54Z" style="fill: #4b1f0d;"/>
    <path d="M351.85,103.85h-15.48v-25.55h14.75l.18,2.41h-12.37v7.15h8.65v2.41h-8.65v11.17h12.74l.18,2.41Z" style="fill: #4b1f0d;"/>
    <path d="M356.38,78.3h2.55v15.26c0,5.48,3.1,8.14,7.48,8.14s7.52-2.66,7.52-8.14v-15.26h2.56v15.44c0,6.68-3.72,10.48-10.07,10.48s-10.04-3.8-10.04-10.48v-15.44Z" style="fill: #4b1f0d;"/>
    <path d="M403.28,78.3v25.91h-.33l-17.67-19.89v19.53h-2.52v-25.91h.33l17.67,19.89v-19.53h2.52Z" style="fill: #4b1f0d;"/>
    <path d="M425.32,103.85h-15.48v-25.55h14.75l.18,2.41h-12.37v7.15h8.65v2.41h-8.65v11.17h12.74l.18,2.41Z" style="fill: #4b1f0d;"/>
    <path d="M442.22,96.29l5.8,7.56h-3.1l-5.58-7.26h-6.39v7.26h-2.55v-25.55h9.31c6.02,0,8.91,4.34,8.91,9.16,0,4.05-2.08,7.81-6.39,8.83Zm-9.27-2.08h6.61c4.6,0,6.53-3.47,6.53-6.75s-1.93-6.79-6.53-6.79h-6.61v13.54Z" style="fill: #4b1f0d;"/>
  </g>
  <g>
    <path d="M77.17,121.25c0,2.16-1.32,3.69-3.8,3.69h-2.5v-7.38h2.5c2.48,0,3.8,1.53,3.8,3.69Zm-.73,0c0-1.73-1.03-2.99-3.04-2.99h-1.79v5.99h1.79c2,0,3.04-1.28,3.04-3Z" style="fill: #4b1f0d;"/>
    <path d="M79.84,117.56h.74v7.38h-.74v-7.38Z" style="fill: #4b1f0d;"/>
    <path d="M88.74,120.24c0,1.35-.8,2.67-2.53,2.67h-1.95v2.04h-.74v-7.38h2.69c1.73,0,2.53,1.32,2.53,2.68Zm-.75,0c0-1.05-.62-1.98-1.82-1.98h-1.91v3.95h1.91c1.2,0,1.82-.93,1.82-1.97Z" style="fill: #4b1f0d;"/>
    <path d="M95.38,124.25l-.05,.7h-3.94v-7.38h.74v6.69h3.26Z" style="fill: #4b1f0d;"/>
    <path d="M96.95,121.25c0-2.11,1.66-3.8,3.77-3.8s3.78,1.69,3.78,3.8-1.67,3.8-3.78,3.8-3.77-1.69-3.77-3.8Zm6.78,0c0-1.74-1.31-3.1-3.02-3.1s-3.02,1.36-3.02,3.1,1.31,3.1,3.02,3.1,3.02-1.36,3.02-3.1Z" style="fill: #4b1f0d;"/>
    <path d="M114.32,117.45v7.49h-.73v-5.49l-2.83,3.87h-.06l-2.83-3.85v5.47h-.73v-7.49h.1l3.49,4.69,3.48-4.69h.11Z" style="fill: #4b1f0d;"/>
    <path d="M122.49,120.24c0,1.35-.8,2.67-2.53,2.67h-1.95v2.04h-.74v-7.38h2.69c1.73,0,2.53,1.32,2.53,2.68Zm-.75,0c0-1.05-.62-1.98-1.82-1.98h-1.91v3.95h1.91c1.2,0,1.82-.93,1.82-1.97Z" style="fill: #4b1f0d;"/>
    <path d="M124.46,124.16l.42-.59c.42,.38,1.19,.75,1.94,.75,.92,0,1.58-.48,1.58-1.19,0-.62-.5-1.11-1.88-1.83-1.42-.76-1.88-1.2-1.88-2.09,0-1,.9-1.75,2.2-1.75,.64,0,1.37,.24,1.87,.56l-.38,.59c-.37-.23-.99-.45-1.5-.45-.84,0-1.41,.46-1.41,1.04,0,.54,.33,.8,1.62,1.52,1.73,.96,2.14,1.49,2.14,2.42,0,1.15-.96,1.92-2.38,1.92-.93,0-1.86-.42-2.35-.89Z" style="fill: #4b1f0d;"/>
    <path d="M134.01,121.63v3.31h-.74v-3.29l-2.64-4.09h.84l2.16,3.34,2.15-3.34h.84l-2.63,4.07Z" style="fill: #4b1f0d;"/>
    <path d="M141.82,117.45c.89,0,1.75,.31,2.48,.88l-.37,.57c-.62-.5-1.34-.76-2.11-.76-1.71,0-3.06,1.38-3.06,3.11s1.36,3.11,3.06,3.11c.81,0,1.55-.28,2.11-.8l.38,.57c-.66,.58-1.56,.92-2.49,.92-2.11,0-3.79-1.68-3.79-3.8s1.68-3.8,3.79-3.8Z" style="fill: #4b1f0d;"/>
    <path d="M152.35,117.56v7.38h-.74v-3.5h-4.04v3.5h-.74v-7.38h.74v3.19h4.04v-3.19h.74Z" style="fill: #4b1f0d;"/>
    <path d="M155.01,121.25c0-2.11,1.66-3.8,3.77-3.8s3.78,1.69,3.78,3.8-1.67,3.8-3.78,3.8-3.77-1.69-3.77-3.8Zm6.78,0c0-1.74-1.31-3.1-3.02-3.1s-3.02,1.36-3.02,3.1,1.31,3.1,3.02,3.1,3.02-1.36,3.02-3.1Z" style="fill: #4b1f0d;"/>
    <path d="M169.2,124.25l-.05,.7h-3.94v-7.38h.74v6.69h3.26Z" style="fill: #4b1f0d;"/>
    <path d="M170.77,121.25c0-2.11,1.66-3.8,3.77-3.8s3.78,1.69,3.78,3.8-1.67,3.8-3.78,3.8-3.77-1.69-3.77-3.8Zm6.78,0c0-1.74-1.31-3.1-3.02-3.1s-3.02,1.36-3.02,3.1,1.31,3.1,3.02,3.1,3.02-1.36,3.02-3.1Z" style="fill: #4b1f0d;"/>
    <path d="M187.01,124.28c-.55,.42-1.38,.77-2.58,.77-2.29,0-3.81-1.69-3.81-3.8s1.6-3.8,3.8-3.8c1,0,1.86,.37,2.52,.9l-.39,.56c-.58-.47-1.34-.76-2.13-.76-1.71,0-3.04,1.35-3.04,3.1s1.24,3.09,3.05,3.09c.72,0,1.37-.17,1.85-.41v-2.56h-1.56l.05-.71h2.25v3.62Z" style="fill: #4b1f0d;"/>
    <path d="M189.86,117.56h.74v7.38h-.74v-7.38Z" style="fill: #4b1f0d;"/>
    <path d="M199.47,117.56v7.49h-.09l-5.1-5.75v5.64h-.73v-7.49h.1l5.1,5.75v-5.64h.73Z" style="fill: #4b1f0d;"/>
    <path d="M206.59,121.39c0-.46,.36-.82,.84-.82,.45,0,.8,.36,.8,.82s-.35,.82-.8,.82c-.49,0-.84-.35-.84-.82Z" style="fill: #4b1f0d;"/>
    <path d="M220.86,117.56v7.38h-.74v-3.5h-4.04v3.5h-.74v-7.38h.74v3.19h4.04v-3.19h.74Z" style="fill: #4b1f0d;"/>
    <path d="M228.28,124.94h-4.47v-7.38h4.26l.05,.7h-3.58v2.07h2.5v.7h-2.5v3.23h3.68l.05,.7Z" style="fill: #4b1f0d;"/>
    <path d="M230.81,117.56h.74v7.38h-.74v-7.38Z" style="fill: #4b1f0d;"/>
    <path d="M238.49,124.25l-.05,.7h-3.94v-7.38h.74v6.69h3.26Z" style="fill: #4b1f0d;"/>
    <path d="M246.02,120.24c0,1.35-.8,2.67-2.53,2.67h-1.95v2.04h-.74v-7.38h2.69c1.73,0,2.53,1.32,2.53,2.68Zm-.75,0c0-1.05-.62-1.98-1.82-1.98h-1.91v3.95h1.91c1.2,0,1.82-.93,1.82-1.97Z" style="fill: #4b1f0d;"/>
    <path d="M252.08,122.76l1.68,2.18h-.9l-1.61-2.1h-1.85v2.1h-.74v-7.38h2.69c1.74,0,2.57,1.26,2.57,2.65,0,1.17-.6,2.26-1.85,2.55Zm-2.68-.6h1.91c1.33,0,1.89-1,1.89-1.95s-.56-1.96-1.89-1.96h-1.91v3.91Z" style="fill: #4b1f0d;"/>
    <path d="M262.27,120.59v4.36h-.73v-2.33h-4.36v2.33h-.73v-4.36c0-1.98,1.05-3.13,2.9-3.13s2.91,1.15,2.91,3.13Zm-.73,1.33v-1.28c0-1.73-.86-2.49-2.18-2.49s-2.17,.76-2.17,2.5v1.27h4.36Z" style="fill: #4b1f0d;"/>
    <path d="M267.14,121.39l-1.26,1.54v2.01h-.74v-7.38h.74v4.24l3.48-4.24h.9l-2.63,3.23,2.74,4.16h-.86l-2.37-3.55Z" style="fill: #4b1f0d;"/>
    <path d="M275,118.26v6.69h-.74v-6.69h-2.25l.05-.7h5.12l.05,.7h-2.24Z" style="fill: #4b1f0d;"/>
    <path d="M279.53,117.56h.74v7.38h-.74v-7.38Z" style="fill: #4b1f0d;"/>
    <path d="M285.2,121.39l-1.26,1.54v2.01h-.74v-7.38h.74v4.24l3.48-4.24h.9l-2.63,3.23,2.74,4.16h-.86l-2.37-3.55Z" style="fill: #4b1f0d;"/>
    <path d="M295.32,124.94h-4.47v-7.38h4.26l.05,.7h-3.58v2.07h2.5v.7h-2.5v3.23h3.68l.05,.7Z" style="fill: #4b1f0d;"/>
    <path d="M301.26,122.76l1.68,2.18h-.9l-1.61-2.1h-1.85v2.1h-.74v-7.38h2.69c1.74,0,2.57,1.26,2.57,2.65,0,1.17-.6,2.26-1.85,2.55Zm-2.68-.6h1.91c1.33,0,1.89-1,1.89-1.95s-.56-1.96-1.89-1.96h-1.91v3.91Z" style="fill: #4b1f0d;"/>
    <path d="M305.75,117.56h.74v7.38h-.74v-7.38Z" style="fill: #4b1f0d;"/>
    <path d="M315.36,117.56v7.49h-.09l-5.1-5.75v5.64h-.73v-7.49h.1l5.1,5.75v-5.64h.73Z" style="fill: #4b1f0d;"/>
    <path d="M322.48,121.39c0-.46,.36-.82,.84-.82,.45,0,.8,.36,.8,.82s-.35,.82-.8,.82c-.49,0-.84-.35-.84-.82Z" style="fill: #4b1f0d;"/>
    <path d="M333.4,121.63v3.31h-.74v-3.29l-2.64-4.09h.84l2.16,3.34,2.15-3.34h.84l-2.63,4.07Z" style="fill: #4b1f0d;"/>
    <path d="M337.42,121.25c0-2.11,1.66-3.8,3.77-3.8s3.78,1.69,3.78,3.8-1.67,3.8-3.78,3.8-3.77-1.69-3.77-3.8Zm6.78,0c0-1.74-1.31-3.1-3.02-3.1s-3.02,1.36-3.02,3.1,1.31,3.1,3.02,3.1,3.02-1.36,3.02-3.1Z" style="fill: #4b1f0d;"/>
    <path d="M353.66,124.28c-.55,.42-1.38,.77-2.58,.77-2.29,0-3.81-1.69-3.81-3.8s1.6-3.8,3.8-3.8c1,0,1.86,.37,2.52,.9l-.39,.56c-.58-.47-1.34-.76-2.13-.76-1.71,0-3.04,1.35-3.04,3.1s1.24,3.09,3.05,3.09c.72,0,1.37-.17,1.85-.41v-2.56h-1.56l.05-.71h2.25v3.62Z" style="fill: #4b1f0d;"/>
    <path d="M362.24,120.59v4.36h-.73v-2.33h-4.36v2.33h-.73v-4.36c0-1.98,1.05-3.13,2.9-3.13s2.91,1.15,2.91,3.13Zm-.73,1.33v-1.28c0-1.73-.87-2.49-2.18-2.49s-2.17,.76-2.17,2.5v1.27h4.36Z" style="fill: #4b1f0d;"/>
    <path d="M369.11,124.25l-.05,.7h-3.94v-7.38h.74v6.69h3.26Z" style="fill: #4b1f0d;"/>
    <path d="M375.89,124.94h-4.47v-7.38h4.26l.05,.7h-3.58v2.07h2.5v.7h-2.5v3.23h3.68l.05,.7Z" style="fill: #4b1f0d;"/>
    <path d="M383.93,117.56v7.38h-.74v-3.5h-4.04v3.5h-.74v-7.38h.74v3.19h4.04v-3.19h.74Z" style="fill: #4b1f0d;"/>
    <path d="M390.3,122.76l1.68,2.18h-.9l-1.61-2.1h-1.85v2.1h-.74v-7.38h2.69c1.74,0,2.57,1.26,2.57,2.65,0,1.17-.6,2.26-1.85,2.55Zm-2.68-.6h1.91c1.33,0,1.89-1,1.89-1.95s-.56-1.96-1.89-1.96h-1.91v3.91Z" style="fill: #4b1f0d;"/>
    <path d="M399.26,124.94h-4.47v-7.38h4.26l.05,.7h-3.58v2.07h2.5v.7h-2.5v3.23h3.68l.05,.7Z" style="fill: #4b1f0d;"/>
    <path d="M405.2,122.76l1.68,2.18h-.9l-1.61-2.1h-1.85v2.1h-.74v-7.38h2.69c1.74,0,2.57,1.26,2.57,2.65,0,1.17-.6,2.26-1.85,2.55Zm-2.68-.6h1.91c1.33,0,1.89-1,1.89-1.95s-.56-1.96-1.89-1.96h-1.91v3.91Z" style="fill: #4b1f0d;"/>
    <path d="M409.68,117.56h.74v7.38h-.74v-7.38Z" style="fill: #4b1f0d;"/>
    <path d="M419.29,117.56v7.49h-.09l-5.1-5.75v5.64h-.73v-7.49h.1l5.1,5.75v-5.64h.73Z" style="fill: #4b1f0d;"/>
    <path d="M432.39,122.54c0,1.25-.67,2.36-2.64,2.4h-2.81v-7.38h2.91c1.3,0,1.64,.9,1.64,1.49,0,.54-.34,.98-.72,1.19,1,.3,1.6,1.15,1.6,2.3Zm-4.7-4.31v1.85h1.88c.85,0,1.22-.44,1.22-.95,0-.36-.2-.9-1-.9h-2.1Zm3.96,4.31c0-1.04-.56-1.85-1.9-1.85h-2.06v3.55h1.98c1.38,0,1.97-.75,1.97-1.71Z" style="fill: #4b1f0d;"/>
    <path d="M441.21,121.25c0,2.16-1.32,3.69-3.8,3.69h-2.5v-7.38h2.5c2.48,0,3.8,1.53,3.8,3.69Zm-.73,0c0-1.73-1.03-2.99-3.04-2.99h-1.79v5.99h1.79c2,0,3.04-1.28,3.04-3Z" style="fill: #4b1f0d;"/>
    <path d="M445.98,121.63v3.31h-.74v-3.29l-2.64-4.09h.84l2.16,3.34,2.15-3.34h.84l-2.63,4.07Z" style="fill: #4b1f0d;"/>
  </g>
  <path d="M38.79,25.65c-2.84-3.73-7.55-6.13-12.21-5.64-2.62,.27-5.06,1.49-7.65,1.98-2.74,.52-5.32,.15-7.49-1.29,3.93,4.65,6.31,10.67,11.64,13.23,3.19,1.53,7.09,1.17,10.41-.05,2.94-1.08,6.17-2.94,8.34-5.21-1.05-.99-2.12-1.79-3.05-3.01Z" style="fill: #4b1f0d;"/>
  <path d="M31.49,52.5s-.6-13.93-16.6-9.94c0,0,2.23,1.63,2.9,3.55,.44,1.29,4.31,9.97,13.71,6.39Z" style="fill: #4b1f0d;"/>
  <path d="M67.77,32.89s1.93-29.36,36.1-10.89c0,0-2.66,.15-5.01,1.39-5.71,3.01-8.69,16.35-31.09,9.51Z" style="fill: #009594;"/>
  <path d="M34.92,61.88S17.69,39.24,0,72.37c0,0,2.22-1.3,4.78-1.55,6.21-.62,15.74,8.55,30.14-8.94Z" style="fill: #4b1f0d;"/>
  <path d="M77.5,109.5c-2.93-3.66-7.24-3-8.34-3s-4.76,.8-9.88,0-5.85-2.32-5.85-2.32c-2.82-12.09-2.64-18.82-.94-29.18h.01s.01-.09,.04-.25c.21-1.03,.44-2.1,.68-3.22,1.74-6.78,6.26-21.24,21.94-22.19,0,0-14.13-2.65-20.49,3.06-.02-.45-.04-.9-.08-1.33,.02-13.37,11.31-17.83,11.31-17.83-8.1,.29-10.13,1.41-14.12,6.31-3.13-7.13-7.63-10.21-7.63-10.21,0,0,8.41,17.58,.13,35.12-2.77-7.72-11.15-10.34-11.15-10.34,8.01,9.46,8.19,18.73,7.45,22.33-3.33,13.77-1.41,27.72-1.41,27.72,0,0-3.41,7.41-18.44,7.02S0,117.64,0,117.64c0,0,8.58-4.73,20.92-4.29,8.44,.3,16.39-2.34,18.24-5.46,1.85-3.12-3.8,9.95-9.66,11.32-5.85,1.37-7.9,5.85-7.9,5.85,0,0,3.17-2.63,9.07-3.71,7.42-1.35,11.95-11.51,13.66-17.17,0,0,3.32,4.07,3.42,6.1,.11,2.21-2.24,6.83-1.85,9.17s1.27,4.63,5.02,7.32,4.93,6.29,4.93,6.29c0,0,.02-4.04-1.54-6.18-1.56-2.15-5.35-4.26-5.6-6.7s1.96-7.61,1.87-10.1c-.09-2.26-2.24-4.68-2.24-4.68,0,0,4.59,1.85,4.78,4.2,.2,2.34,.85,3.85,2.22,5.32,1.37,1.46,7.62,2.63,8.45,2.73,0,0-6.39-2.7-7.61-4.89-1.22-2.2-.55-3.51-1.54-5.3-.09-.16-.21-.33-.36-.5,2.14,1.05,5.47,2,10.57,1.97,5.83-.04,6.59-2.19,12.66,2.6,4.32,3.4,10.54-1.21,10.54-1.21,0,0-7.61,2.86-10.54-.8Z" style="fill: #4b1f0d;"/>
  <g>
    <path d="M186.03,57.38l4.6,7.45h-2.4l-3.59-5.71-2.01,2.5v3.22h-2.04v-13.24h2.04v6.87l5.56-6.87h2.5l-4.65,5.79Z" style="fill: #009594;"/>
    <path d="M203.17,57.23v7.6h-2.02v-3.82h-6.55v3.82h-2.02v-7.6c0-3.63,1.99-5.83,5.3-5.83s5.3,2.19,5.3,5.83Zm-2.02,1.82v-1.68c0-2.78-1.23-3.99-3.27-3.99s-3.27,1.21-3.27,4.03v1.65h6.55Z" style="fill: #009594;"/>
    <path d="M217.74,62.24l1,1.36c-.62,.64-2.01,1.42-3.78,1.42-2.38,0-5.01-.59-6.62-.59-.7,0-1.31,.09-1.76,.28l-.25,.11h-.23v-13.24h2.04v10.95c.3-.04,.64-.06,.98-.06,1.74,0,3.63,.61,5.83,.61,1.25,0,2.14-.3,2.78-.85Zm5.56-5.01v7.6h-2.02v-4.8h-6.54v1.59h-2.02v-4.39c0-3.63,1.99-5.83,5.3-5.83s5.3,2.19,5.3,5.83Zm-2.02,.87v-.74c0-2.78-1.23-3.99-3.27-3.99s-3.27,1.21-3.27,4.03v.7h6.54Z" style="fill: #009594;"/>
    <path d="M241.8,51.59v13.24h-1.32v-6.28h-7.24v6.28h-1.32v-13.24h1.32v5.71h7.24v-5.71h1.32Z" style="fill: #009594;"/>
    <path d="M257.03,58.72h-10.84c.17,2.8,1.78,5.07,5.13,5.07,1.74,0,3.37-.85,4.24-1.89l.83,.83c-1.02,1.21-2.8,2.29-5.07,2.29-4.28,0-6.47-3.03-6.47-6.81s2.7-6.81,6.3-6.81c3.78,0,5.88,3.01,5.88,6.81v.51Zm-10.82-1.21h9.55c-.23-2.76-1.78-4.88-4.61-4.88-2.65,0-4.64,2.18-4.94,4.88Z" style="fill: #009594;"/>
    <path d="M260.1,51.59h1.32v13.24h-1.32v-13.24Z" style="fill: #009594;"/>
    <path d="M272.17,63.58l-.09,1.25h-7.07v-13.24h1.32v11.99h5.84Z" style="fill: #009594;"/>
    <path d="M284.11,56.15v8.68h-1.29v-1.74c-.89,1.14-2.31,1.93-4.09,1.93-3.46,0-5.26-2.33-5.26-4.82s1.8-4.82,5.26-4.82c1.85,0,3.22,.78,4.09,1.91v-1.14c0-2.21-1.83-3.46-3.86-3.46-1.48,0-3.01,.59-3.73,1.04l-.62-1.1c.87-.55,2.4-1.23,4.35-1.23,2.84,0,5.14,1.7,5.14,4.75Zm-1.29,4.35v-.7c-.32-1.68-1.95-3.22-4.09-3.22-2.5,0-3.95,1.7-3.95,3.61s1.46,3.61,3.95,3.61,4.09-1.89,4.09-3.31Z" style="fill: #009594;"/>
    <path d="M295.2,52.4l-.66,1c-.7-.51-1.48-.78-2.27-.78-2.1,0-3.41,1.93-3.41,5.01v7.19h-1.31v-13.24h1.31v1.95c.72-1.34,1.89-2.14,3.42-2.14,1.04,0,1.99,.32,2.91,1Z" style="fill: #009594;"/>
    <path d="M307.33,60.52c0,2.25-1.21,4.24-4.73,4.31h-5.03v-13.24h5.22c2.33,0,2.95,1.61,2.95,2.67,0,.96-.61,1.76-1.29,2.14,1.8,.53,2.88,2.06,2.88,4.12Zm-8.44-7.74v3.31h3.37c1.53,0,2.19-.79,2.19-1.7,0-.64-.36-1.61-1.8-1.61h-3.76Zm7.09,7.74c0-1.87-1-3.31-3.41-3.31h-3.69v6.37h3.56c2.48,0,3.54-1.34,3.54-3.06Z" style="fill: #009594;"/>
    <path d="M321.76,58.72h-10.84c.17,2.8,1.78,5.07,5.13,5.07,1.74,0,3.37-.85,4.24-1.89l.83,.83c-1.02,1.21-2.8,2.29-5.07,2.29-4.28,0-6.47-3.03-6.47-6.81s2.7-6.81,6.3-6.81c3.78,0,5.88,3.01,5.88,6.81v.51Zm-10.82-1.21h9.55c-.23-2.76-1.78-4.88-4.62-4.88-2.65,0-4.63,2.18-4.94,4.88Z" style="fill: #009594;"/>
    <path d="M324.83,51.59h1.32v13.24h-1.32v-13.24Z" style="fill: #009594;"/>
    <path d="M333.9,52.84v11.99h-1.33v-11.99h-4.03l.09-1.25h9.17l.09,1.25h-4.01Z" style="fill: #009594;"/>
  </g>
</svg>