<?xml version="1.0" encoding="UTF-8"?>
<svg id="a" data-name="Ebene 1" xmlns="http://www.w3.org/2000/svg" xmlns:xlink="http://www.w3.org/1999/xlink" viewBox="0 0 732.95 67.24">
  <defs>
    <clipPath id="b">
      <rect x="0" width="732.95" height="67.24" style="fill: none;"/>
    </clipPath>
    <clipPath id="c">
      <rect x="0" width="732.95" height="67.24" style="fill: none;"/>
    </clipPath>
    <clipPath id="d">
      <rect x="0" width="732.95" height="67.24" style="fill: none;"/>
    </clipPath>
    <clipPath id="e">
      <rect x="0" width="732.95" height="67.24" style="fill: none;"/>
    </clipPath>
    <clipPath id="f">
      <rect x="0" width="732.95" height="67.24" style="fill: none;"/>
    </clipPath>
    <clipPath id="g">
      <rect x="0" width="732.95" height="67.24" style="fill: none;"/>
    </clipPath>
  </defs>
  <g style="clip-path: url(#b);">
    <path d="M33.62,62.25c15.69,0,28.41-12.72,28.41-28.41S49.31,5.43,33.62,5.43,5.21,18.15,5.21,33.84s12.72,28.41,28.41,28.41" style="fill: #fff;"/>
    <path d="M199.99,62.41c15.69,0,28.41-12.72,28.41-28.41s-12.72-28.41-28.41-28.41-28.41,12.72-28.41,28.41,12.72,28.41,28.41,28.41" style="fill: #fff;"/>
    <path d="M366.48,61.54c15.69,0,28.41-12.72,28.41-28.41s-12.72-28.41-28.41-28.41-28.41,12.72-28.41,28.41,12.72,28.41,28.41,28.41" style="fill: #fff;"/>
    <path d="M532.89,62.13c15.69,0,28.41-12.72,28.41-28.41s-12.72-28.41-28.41-28.41-28.41,12.72-28.41,28.41,12.72,28.41,28.41,28.41" style="fill: #fff;"/>
    <path d="M699.47,63.04c15.69,0,28.41-12.72,28.41-28.41s-12.72-28.41-28.41-28.41-28.41,12.72-28.41,28.41,12.72,28.41,28.41,28.41" style="fill: #fff;"/>
  </g>
  <polygon points="37.2 27.3 36.2 21.43 37.2 15.34 45.2 12.3 50.2 19.8 46.2 28.3 37.2 32.3 37.2 27.3" style="fill: #009594;"/>
  <g style="clip-path: url(#c);">
    <path d="M44.58,21.64c-.2,1.86-1.38,3.44-2.78,4.68-1.22,1.08-2.7,1.99-4.03,2.9,.37-.83,.47-1.53,.35-2.26-.15-.87-.56-1.49-.77-2.35-.35-1.43,.03-3.04,.87-4.25,1.77-2.56,5.09-3.23,6.96-5.64-.46,1.49-.77,2.77-.73,4.36,.02,.8,.21,1.76,.13,2.55m-11.21,5.7c-.2-.28-.39-.64-.63-.91-.43-.48-.99-.83-1.47-1.25-1.32-1.16-2.25-2.88-2.16-4.64,.12-2.45,1.48-4.5,1.08-6.84,.38,.69,.6,.99,1.05,1.63,.42,.6,.96,1.1,1.47,1.64,.83,.89,1.66,1.88,2.01,3.04,.64,2.08,.07,5.64-1.35,7.34m.91,22.94c-.22,1.61-1.35,3.02-2.65,3.99-1.16,.86-2.69,1.63-4.11,1.89-.11-.66-.15-1.27-.39-1.93-.72-2.03-.45-4.45,.92-6.12,.77-.94,1.85-1.57,2.69-2.44,.89-.92,1.4-2.01,1.4-3.21,.79,2.69,2.51,5.13,2.14,7.83m-15.21-5.9c-3-.55-5.74-2.37-8.82-2.34,1.7-.73,2.7-2.13,3.87-3.43,2.2-2.44,5.68-3.94,8.83-3.03,1.36,.39,2.5,1.04,3.71,1.76,1.21,.72,2.96,1.75,3.8,2.81-1.3,.41-2.24,1.28-3.27,2.12-2.26,1.79-5.28,2.63-8.12,2.11m5.23-22.35c1.59,.94,2.73,2.61,3.53,4.27,.81,1.66,1.38,3.43,1.68,5.26,.13,.8,.03,3.21,.03,3.21,0,0-1.08-.77-1.44-.92-.53-.23-1.13-.34-1.7-.43-1.97-.33-4.11-.77-5.46-2.23-1.47-1.59-1.73-3.86-2.12-6s-1.33-4.42-3.18-5.39c2.94,.76,6.09,.73,8.64,2.24M33.62,0C15.05,0,0,15.05,0,33.62s15.05,33.62,33.62,33.62,33.62-15.05,33.62-33.62S52.18,0,33.62,0" style="fill: #fdc300;"/>
  </g>
  <polygon points="196.07 27.97 194.42 22.29 193.99 16.18 198.45 12.32 202.87 19.15 201.85 27.96 196.93 32.89 196.07 27.97" style="fill: #009594;"/>
  <g style="clip-path: url(#d);">
    <path d="M210.96,21.64c-.2,1.86-1.38,3.44-2.78,4.68-1.22,1.08-2.7,1.99-4.03,2.9,.37-.83,.47-1.53,.35-2.26-.15-.87-.56-1.49-.77-2.35-.35-1.43,.03-3.04,.87-4.25,1.77-2.56,5.09-3.23,6.96-5.64-.46,1.49-.77,2.77-.73,4.36,.02,.8,.21,1.76,.13,2.55m-11.21,5.7c-.2-.28-.39-.64-.63-.91-.43-.48-.99-.83-1.47-1.25-1.32-1.16-2.24-2.88-2.16-4.64,.12-2.45,1.48-4.5,1.08-6.84,.38,.69,.6,.99,1.05,1.63,.43,.6,.96,1.1,1.47,1.64,.83,.89,1.65,1.88,2.01,3.04,.64,2.08,.07,5.64-1.35,7.34m.91,22.94c-.22,1.61-1.35,3.02-2.65,3.99-1.16,.86-2.69,1.63-4.11,1.89-.12-.66-.15-1.27-.39-1.93-.72-2.03-.45-4.45,.92-6.12,.77-.94,1.85-1.57,2.7-2.44,.89-.92,1.4-2.01,1.4-3.21,.79,2.69,2.51,5.13,2.14,7.83m-15.21-5.9c-3-.55-5.74-2.37-8.82-2.34,1.7-.73,2.7-2.13,3.87-3.43,2.2-2.44,5.68-3.94,8.84-3.03,1.36,.39,2.5,1.04,3.71,1.76,1.21,.72,2.96,1.75,3.8,2.81-1.3,.41-2.24,1.28-3.27,2.12-2.26,1.79-5.28,2.63-8.12,2.11m5.23-22.35c1.59,.94,2.73,2.61,3.54,4.27,.81,1.66,1.38,3.43,1.68,5.26,.13,.8,.03,3.21,.03,3.21,0,0-1.08-.77-1.44-.92-.53-.23-1.13-.34-1.7-.43-1.97-.33-4.11-.77-5.46-2.23-1.47-1.59-1.73-3.86-2.12-6-.39-2.13-1.33-4.42-3.18-5.39,2.94,.76,6.09,.73,8.64,2.24M199.99,0C181.42,0,166.37,15.05,166.37,33.62s15.05,33.62,33.62,33.62,33.62-15.05,33.62-33.62S218.56,0,199.99,0" style="fill: #fdc300;"/>
  </g>
  <polygon points="357.4 34.58 351.83 30.4 347.29 24.82 349.5 17.39 358.83 20.41 363.62 29.82 361.62 38.66 357.4 34.58" style="fill: #009594;"/>
  <g style="clip-path: url(#e);">
    <path d="M377.4,21.64c-.2,1.86-1.38,3.44-2.78,4.68-1.22,1.08-2.7,1.99-4.03,2.9,.37-.83,.47-1.53,.35-2.26-.15-.87-.56-1.49-.77-2.35-.35-1.43,.03-3.04,.87-4.25,1.77-2.56,5.09-3.23,6.95-5.64-.46,1.49-.77,2.77-.73,4.36,.02,.8,.21,1.76,.13,2.55m-11.21,5.7c-.2-.28-.39-.64-.63-.91-.43-.48-.99-.83-1.47-1.25-1.32-1.16-2.24-2.88-2.16-4.64,.12-2.45,1.48-4.5,1.08-6.84,.38,.69,.6,.99,1.05,1.63,.43,.6,.96,1.1,1.47,1.64,.83,.89,1.65,1.88,2.01,3.04,.64,2.08,.07,5.64-1.35,7.34m.91,22.94c-.22,1.61-1.35,3.02-2.65,3.99-1.16,.86-2.69,1.63-4.11,1.89-.11-.66-.15-1.27-.39-1.93-.72-2.03-.45-4.45,.92-6.12,.77-.94,1.85-1.57,2.7-2.44,.89-.92,1.4-2.01,1.4-3.21,.79,2.69,2.51,5.13,2.14,7.83m-15.21-5.9c-3-.55-5.74-2.37-8.83-2.34,1.7-.73,2.7-2.13,3.87-3.43,2.2-2.44,5.68-3.94,8.84-3.03,1.36,.39,2.5,1.04,3.71,1.76,1.21,.72,2.96,1.75,3.8,2.81-1.3,.41-2.24,1.28-3.27,2.12-2.26,1.79-5.28,2.63-8.12,2.11m5.23-22.35c1.59,.94,2.73,2.61,3.54,4.27,.81,1.66,1.38,3.43,1.68,5.26,.13,.8,.03,3.21,.03,3.21,0,0-1.08-.77-1.44-.92-.53-.23-1.13-.34-1.7-.43-1.97-.33-4.11-.77-5.46-2.23-1.47-1.59-1.73-3.86-2.12-6-.39-2.13-1.33-4.42-3.18-5.39,2.94,.76,6.09,.73,8.64,2.24M366.44,0C347.87,0,332.82,15.05,332.82,33.62s15.05,33.62,33.62,33.62,33.62-15.05,33.62-33.62S385.01,0,366.44,0" style="fill: #fdc300;"/>
  </g>
  <polygon points="525.82 43.42 518.28 44.94 510.32 44.78 505.8 38.26 515.13 33.13 526.44 35.59 532.29 42.86 525.82 43.42" style="fill: #009594;"/>
  <g style="clip-path: url(#f);">
    <path d="M543.85,21.64c-.2,1.86-1.38,3.44-2.78,4.68-1.22,1.08-2.7,1.99-4.03,2.9,.37-.83,.47-1.53,.35-2.26-.15-.87-.56-1.49-.77-2.35-.35-1.43,.03-3.04,.87-4.25,1.77-2.56,5.09-3.23,6.96-5.64-.46,1.49-.77,2.77-.73,4.36,.02,.8,.21,1.76,.13,2.55m-11.21,5.7c-.2-.28-.39-.64-.63-.91-.43-.48-.99-.83-1.47-1.25-1.32-1.16-2.24-2.88-2.16-4.64,.12-2.45,1.48-4.5,1.08-6.84,.38,.69,.6,.99,1.05,1.63,.43,.6,.97,1.1,1.47,1.64,.83,.89,1.66,1.88,2.01,3.04,.64,2.08,.07,5.64-1.35,7.34m.91,22.94c-.22,1.61-1.34,3.02-2.65,3.99-1.16,.86-2.69,1.63-4.11,1.89-.11-.66-.15-1.27-.39-1.93-.72-2.03-.45-4.45,.92-6.12,.77-.94,1.85-1.57,2.7-2.44,.89-.92,1.4-2.01,1.4-3.21,.79,2.69,2.51,5.13,2.14,7.83m-15.21-5.9c-3-.55-5.74-2.37-8.83-2.34,1.7-.73,2.7-2.13,3.87-3.43,2.2-2.44,5.68-3.94,8.84-3.03,1.36,.39,2.5,1.04,3.71,1.76,1.21,.72,2.96,1.75,3.8,2.81-1.3,.41-2.24,1.28-3.27,2.12-2.26,1.79-5.28,2.63-8.12,2.11m5.23-22.35c1.59,.94,2.73,2.61,3.54,4.27,.81,1.66,1.38,3.43,1.68,5.26,.13,.8,.03,3.21,.03,3.21,0,0-1.08-.77-1.44-.92-.53-.23-1.13-.34-1.7-.43-1.97-.33-4.11-.77-5.46-2.23-1.47-1.59-1.73-3.86-2.12-6s-1.33-4.42-3.18-5.39c2.94,.76,6.09,.73,8.64,2.24M532.89,0c-18.57,0-33.62,15.05-33.62,33.62s15.05,33.62,33.62,33.62,33.62-15.05,33.62-33.62S551.45,0,532.89,0" style="fill: #fdc300;"/>
  </g>
  <polygon points="702.41 45.13 702.66 52.08 701.18 59.13 694.02 62.08 690.5 52.93 694.8 43.28 702.92 39.28 702.41 45.13" style="fill: #009594;"/>
  <polygon points="702.41 45.13 702.66 52.08 701.18 59.13 694.02 62.08 690.5 52.93 694.8 43.28 702.92 39.28 702.41 45.13" style="fill: none; stroke: #fff;"/>
  <g style="clip-path: url(#g);">
    <path d="M710.3,21.64c-.2,1.86-1.38,3.44-2.78,4.68-1.22,1.08-2.7,1.99-4.03,2.9,.37-.83,.47-1.53,.35-2.26-.15-.87-.56-1.49-.77-2.35-.35-1.43,.03-3.04,.87-4.25,1.77-2.56,5.09-3.23,6.96-5.64-.46,1.49-.77,2.77-.73,4.36,.02,.8,.21,1.76,.13,2.55m-11.21,5.7c-.2-.28-.39-.64-.63-.91-.43-.48-.99-.83-1.47-1.25-1.32-1.16-2.24-2.88-2.16-4.64,.12-2.45,1.48-4.5,1.08-6.84,.38,.69,.6,.99,1.05,1.63,.43,.6,.97,1.1,1.47,1.64,.83,.89,1.66,1.88,2.01,3.04,.64,2.08,.07,5.64-1.35,7.34m.91,22.94c-.22,1.61-1.34,3.02-2.65,3.99-1.16,.86-2.69,1.63-4.11,1.89-.12-.66-.15-1.27-.39-1.93-.72-2.03-.45-4.45,.92-6.12,.77-.94,1.85-1.57,2.7-2.44,.89-.92,1.4-2.01,1.4-3.21,.79,2.69,2.51,5.13,2.14,7.83m-15.21-5.9c-3-.55-5.74-2.37-8.83-2.34,1.7-.73,2.7-2.13,3.87-3.43,2.2-2.44,5.68-3.94,8.84-3.03,1.36,.39,2.5,1.04,3.71,1.76,1.21,.72,2.96,1.75,3.8,2.81-1.3,.41-2.24,1.28-3.27,2.12-2.26,1.79-5.28,2.63-8.11,2.11m5.23-22.35c1.59,.94,2.73,2.61,3.54,4.27,.81,1.66,1.38,3.43,1.68,5.26,.13,.8,.03,3.21,.03,3.21,0,0-1.08-.77-1.44-.92-.53-.23-1.13-.34-1.7-.43-1.97-.33-4.11-.77-5.46-2.23-1.47-1.59-1.73-3.86-2.12-6s-1.33-4.42-3.18-5.39c2.94,.76,6.09,.73,8.64,2.24M699.34,0c-18.57,0-33.62,15.05-33.62,33.62s15.05,33.62,33.62,33.62,33.62-15.05,33.62-33.62S717.9,0,699.34,0" style="fill: #fdc300;"/>
  </g>
  <rect x="76.8" y="33.13" width="80" height="3" style="fill: #fdc300;"/>
  <rect x="243.3" y="33.13" width="80" height="3" style="fill: #fdc300;"/>
  <rect x="409.8" y="33.13" width="80" height="3" style="fill: #fdc300;"/>
  <rect x="576.3" y="33.13" width="80" height="3" style="fill: #fdc300;"/>
</svg>