<?xml version="1.0" encoding="UTF-8"?>
<svg id="a" data-name="Ebene 1" xmlns="http://www.w3.org/2000/svg" viewBox="0 0 67.24 67.24">
  <path d="M30.19,13.7c.01,.08,0,.15,.02,.23l.08-.07c-.03-.06-.06-.1-.09-.16Z" style="fill: none;"/>
  <path d="M30.75,45.67c-.84,.87-1.93,1.5-2.7,2.44-1.37,1.67-1.64,4.09-.92,6.12,.23,.66,.27,1.28,.39,1.93,1.42-.26,2.95-1.03,4.11-1.89,1.31-.97,2.44-2.38,2.66-3.99,.36-2.7-1.35-5.14-2.14-7.83,0,1.2-.51,2.28-1.4,3.21Z" style="fill: none;"/>
  <path d="M18.85,25.18c.39,2.13,.64,4.41,2.12,5.99,1.36,1.46,3.5,1.91,5.46,2.23,.57,.1,1.16,.21,1.7,.43,.35,.15,1.44,.92,1.44,.92,0,0,.1-2.41-.03-3.21-.3-1.82-.87-3.59-1.68-5.26-.81-1.66-1.94-3.33-3.53-4.27-2.56-1.51-5.7-1.48-8.64-2.24,1.85,.97,2.79,3.26,3.18,5.39Z" style="fill: none;"/>
  <path d="M38.23,20.37c-.84,1.22-1.22,2.82-.87,4.25,.21,.85,.62,1.48,.77,2.35,.12,.72,.02,1.42-.35,2.26,1.33-.91,2.81-1.82,4.03-2.9,1.4-1.24,2.58-2.82,2.77-4.68,.08-.8-.11-1.75-.13-2.55-.04-1.59,.27-2.87,.73-4.36-1.86,2.4-5.19,3.07-6.96,5.64Z" style="fill: none;"/>
  <path d="M30.47,40.15c-.84-1.06-2.59-2.09-3.8-2.81-1.21-.73-2.36-1.38-3.71-1.77-3.16-.9-6.64,.59-8.84,3.04-1.17,1.3-2.17,2.71-3.87,3.43,3.08-.04,5.83,1.78,8.83,2.33,2.83,.52,5.85-.32,8.12-2.11,1.03-.85,1.98-1.71,3.27-2.12Z" style="fill: none;"/>
  <path d="M29.11,20.54c-.08,1.76,.84,3.48,2.16,4.64,.48,.43,1.04,.78,1.47,1.25,.25,.27,.43,.63,.63,.91,1.42-1.7,1.98-5.26,1.35-7.34-.36-1.17-1.18-2.15-2.01-3.04-.5-.53-1.04-1.04-1.47-1.64-.41-.58-.63-.89-.96-1.46l-.08,.07c.27,2.24-.99,4.24-1.1,6.61Z" style="fill: #009594;"/>
  <path d="M33.62,0C15.05,0,0,15.05,0,33.62s15.05,33.62,33.62,33.62,33.62-15.05,33.62-33.62S52.18,0,33.62,0Zm-3.33,13.86c.33,.57,.55,.89,.96,1.46,.42,.59,.96,1.1,1.47,1.64,.83,.89,1.65,1.88,2.01,3.04,.64,2.08,.07,5.64-1.35,7.34-.2-.28-.39-.64-.63-.91-.43-.48-.99-.83-1.47-1.25-1.32-1.17-2.24-2.88-2.16-4.64,.11-2.37,1.37-4.36,1.1-6.61,0-.08,0-.15-.02-.23,.03,.06,.06,.11,.09,.16Zm-5.98,8.16c1.59,.94,2.73,2.61,3.53,4.27,.81,1.66,1.38,3.43,1.68,5.26,.13,.8,.03,3.21,.03,3.21,0,0-1.08-.77-1.44-.92-.53-.23-1.13-.34-1.7-.43-1.97-.33-4.11-.77-5.46-2.23-1.47-1.59-1.73-3.86-2.12-5.99-.39-2.13-1.33-4.42-3.18-5.39,2.94,.76,6.09,.73,8.64,2.24Zm-5.23,22.35c-3-.55-5.74-2.37-8.83-2.33,1.7-.73,2.7-2.13,3.87-3.43,2.2-2.44,5.68-3.94,8.84-3.04,1.36,.39,2.5,1.04,3.71,1.77,1.21,.72,2.96,1.75,3.8,2.81-1.3,.41-2.24,1.28-3.27,2.12-2.26,1.79-5.28,2.63-8.12,2.11Zm15.21,5.91c-.22,1.61-1.35,3.02-2.66,3.99-1.16,.86-2.69,1.63-4.11,1.89-.11-.66-.15-1.27-.39-1.93-.72-2.04-.45-4.45,.92-6.12,.77-.94,1.85-1.57,2.7-2.44,.89-.92,1.4-2.01,1.4-3.21,.79,2.69,2.51,5.13,2.14,7.83Zm10.29-28.64c-.2,1.86-1.38,3.44-2.77,4.68-1.22,1.08-2.7,1.99-4.03,2.9,.37-.83,.47-1.53,.35-2.26-.15-.87-.56-1.49-.77-2.35-.35-1.43,.03-3.04,.87-4.25,1.77-2.56,5.09-3.23,6.96-5.64-.46,1.49-.77,2.77-.73,4.36,.02,.8,.21,1.76,.13,2.55Z" style="fill: #fdc300;"/>
</svg>