<?xml version="1.0" encoding="UTF-8"?>
<svg id="a" data-name="Ebene 1" xmlns="http://www.w3.org/2000/svg" xmlns:xlink="http://www.w3.org/1999/xlink" viewBox="0 0 99.54 104.15">
  <defs>
    <clipPath id="b">
      <rect y="0" width="99.54" height="104.15" style="fill: none;"/>
    </clipPath>
    <clipPath id="c">
      <rect y="0" width="99.54" height="104.15" style="fill: none;"/>
    </clipPath>
    <clipPath id="d">
      <rect y="0" width="99.54" height="104.15" style="fill: none;"/>
    </clipPath>
    <clipPath id="e">
      <rect y="0" width="99.54" height="104.15" style="fill: none;"/>
    </clipPath>
    <clipPath id="f">
      <rect y="0" width="99.54" height="104.15" style="fill: none;"/>
    </clipPath>
    <clipPath id="g">
      <rect y="0" width="99.54" height="104.15" style="fill: none;"/>
    </clipPath>
    <clipPath id="h">
      <rect y="0" width="99.54" height="104.15" style="fill: none;"/>
    </clipPath>
  </defs>
  <polygon points="53.28 61.82 53.53 68.78 52.05 75.82 44.88 78.77 41.37 69.62 45.67 59.98 53.79 55.97 53.28 61.82" style="fill: none; stroke: #fff;"/>
  <polygon points="1.72 30.79 4.21 35.38 .46 33.83 0 34.94 7.22 37.93 7.68 36.82 5.93 36.09 5.02 34.43 8.95 33.77 9.49 32.46 4.39 33.28 2.28 29.43 1.72 30.79" style="fill: #4b1f0d;"/>
  <g style="clip-path: url(#b);">
    <path d="M10.67,24.17l-.82-.55c-1.36-.92-2.36-.71-3.03,.29-.67,1-.48,2,.9,2.93l.81,.54,2.15-3.21Zm-.22-1.59l3.73,2.5-.67,.99-1.87-1.26-2.15,3.21,1.87,1.26-.67,.99-3.73-2.5c-1.78-1.2-2.2-2.89-1.11-4.51,1.09-1.62,2.82-1.87,4.6-.68" style="fill: #4b1f0d;"/>
  </g>
  <polygon points="18.5 18.72 19.28 19.59 16.27 22.68 10.68 17.22 11.52 16.36 16.28 21 18.5 18.72" style="fill: #4b1f0d;"/>
  <g style="clip-path: url(#c);">
    <path d="M23.36,12.14l-.58-.81c-.95-1.34-1.95-1.5-2.94-.8-.98,.7-1.16,1.7-.2,3.06l.56,.79,3.15-2.24Zm.35-1.57l2.6,3.66-.97,.69-1.31-1.84-3.15,2.24,1.3,1.84-.97,.69-2.6-3.66c-1.24-1.75-1.03-3.49,.56-4.61,1.59-1.13,3.3-.75,4.54,.99" style="fill: #4b1f0d;"/>
  </g>
  <polygon points="37.43 1.33 39.67 8.83 38.51 9.17 37.51 5.82 34.14 6.83 35.14 10.18 33.99 10.52 31.75 3.03 32.9 2.68 33.81 5.71 37.18 4.71 36.28 1.68 37.43 1.33" style="fill: #4b1f0d;"/>
  <polygon points="42.04 .5 42.84 8.27 47.61 7.78 47.41 6.63 43.92 6.99 43.65 4.34 45.92 4.1 45.8 2.95 43.53 3.19 43.36 1.53 46.79 1.17 46.58 .03 42.04 .5" style="fill: #4b1f0d;"/>
  <rect x="47.32" y="3.32" width="7.82" height="1.21" transform="translate(45.68 55.01) rotate(-88.19)" style="fill: #4b1f0d;"/>
  <polygon points="59.55 7.65 59.29 8.78 55.03 8.09 56.28 .38 57.47 .57 56.41 7.14 59.55 7.65" style="fill: #4b1f0d;"/>
  <g style="clip-path: url(#d);">
    <path d="M67.73,7.85l.33-.94c.55-1.55,.11-2.46-1.03-2.87-1.14-.41-2.06,.02-2.62,1.59l-.33,.92,3.64,1.3Zm1.49-.61l-1.51,4.23-1.12-.4,.76-2.12-3.64-1.3-.76,2.12-1.12-.4,1.51-4.23c.72-2.02,2.26-2.85,4.1-2.19,1.84,.66,2.51,2.27,1.79,4.29" style="fill: #4b1f0d;"/>
    <path d="M73.26,10.71l1.54,.93c.96,.59,1.76,.13,2.23-.64,.47-.77,.5-1.69-.46-2.28l-1.54-.93-1.77,2.92Zm1.98,2.34l.19,2.79-1.23-.75-.18-2.59-1.35-.82-1.1,1.81-1.03-.63,4.06-6.68,2.6,1.58c1.58,.96,1.72,2.47,.87,3.86-.66,1.09-1.66,1.68-2.82,1.42" style="fill: #4b1f0d;"/>
    <path d="M82.15,14.62l1.19,1.08c.51,.46,.92,.37,1.22,.04,.21-.23,.35-.7-.04-1.06l-1.33-1.21-1.04,1.15Zm.74,4.22c.67-.74,.68-1.58-.13-2.33l-1.27-1.16-2.03,2.23,1.29,1.17c.84,.77,1.57,.72,2.15,.08m.92,.83c-.89,.98-2.14,1.44-3.78,0l-2.25-2.04,5.26-5.78,2.35,2.13c1.02,.92,.6,1.96,.16,2.44-.38,.41-.89,.5-1.22,.54,.4,.92,.19,1.92-.53,2.7" style="fill: #4b1f0d;"/>
  </g>
  <polygon points="86.86 27.49 83.94 23.69 90.16 18.93 92.93 22.56 92.06 23.34 89.97 20.6 88.64 21.61 90.03 23.42 89.11 24.12 87.72 22.31 85.6 23.94 87.73 26.72 86.86 27.49" style="fill: #4b1f0d;"/>
  <rect x="88.12" y="27.94" width="7.82" height="1.21" transform="translate(-2.08 49.22) rotate(-29.63)" style="fill: #4b1f0d;"/>
  <polygon points="96.39 30.85 97.22 32.9 91.04 35.38 91.49 36.5 97.67 34.02 98.49 36.07 99.54 35.56 97.5 30.49 96.39 30.85" style="fill: #4b1f0d;"/>
  <g style="clip-path: url(#e);">
    <path d="M6.33,70.6c1.95-.65,3-2.29,2.25-4.55l-.67-2.03-6.77,2.24,.67,2.03c.75,2.26,2.58,2.96,4.52,2.31m.27,.82c-2.44,.81-4.66-.11-5.59-2.91l-.94-2.82,8.34-2.76,.94,2.82c.93,2.8-.31,4.86-2.75,5.67" style="fill: #4b1f0d;"/>
    <path d="M8.75,74.7l3.35,5.38c1.48-1.09,2.13-2.71,1.13-4.31-.93-1.49-2.85-1.85-4.48-1.07m3.11,6.52l-3.8-6.11c-1.52,1.08-2.23,2.78-1.06,4.67,.61,.98,1.66,1.6,2.55,1.73l-.18,.76c-1.04-.15-2.27-.78-3.07-2.06-1.5-2.41-.56-4.71,1.57-6.03,2.14-1.33,4.78-.86,6.04,1.16,1.33,2.13,.37,4.37-1.78,5.7l-.29,.18Z" style="fill: #4b1f0d;"/>
    <path d="M20.67,84.63l-.79,.14c-.07-.57-.3-1.06-.66-1.45-.96-1.01-2.49-.76-3.97,.66l-3.46,3.29-.6-.63,6.37-6.05,.6,.63-.94,.89c.97-.27,1.89-.07,2.59,.67,.48,.5,.75,1.1,.85,1.86" style="fill: #4b1f0d;"/>
  </g>
  <polygon points="26.79 88.86 25.78 95.75 30.88 90.75 30.98 90.8 30.1 97.9 34.97 92.92 35.8 93.34 29.19 100 29.09 99.95 29.97 92.73 24.74 97.79 24.65 97.74 25.97 88.45 26.79 88.86" style="fill: #4b1f0d;"/>
  <g style="clip-path: url(#f);">
    <path d="M37.15,97.6l6.21,1.29c.22-1.83-.5-3.41-2.34-3.79-1.72-.36-3.31,.79-3.87,2.51m6.87,2.25l-7.04-1.46c-.27,1.84,.47,3.53,2.65,3.98,1.13,.24,2.3-.1,3.01-.66l.43,.65c-.83,.65-2.13,1.11-3.6,.8-2.78-.58-3.8-2.84-3.29-5.3,.51-2.47,2.68-4.06,5.01-3.58,2.46,.51,3.42,2.75,2.9,5.22l-.07,.33Z" style="fill: #4b1f0d;"/>
    <path d="M54.79,103.15c-.64,.52-1.62,.96-3.05,1-2.72,.08-4.59-1.88-4.66-4.39-.07-2.51,1.78-4.57,4.39-4.65,1.19-.03,2.22,.38,3.03,.98l-.44,.68c-.71-.55-1.62-.86-2.56-.83-2.03,.06-3.57,1.71-3.51,3.79,.06,2.1,1.58,3.64,3.73,3.58,.85-.02,1.63-.25,2.18-.55l-.08-3.05-1.86,.05,.04-.84,2.67-.07,.12,4.3Z" style="fill: #4b1f0d;"/>
  </g>
  <polygon points="66.88 91.82 65.83 100.59 69.52 99.23 69.75 100.02 64.87 101.83 64.83 101.74 65.87 92.97 62.23 94.32 62.01 93.52 66.84 91.73 66.88 91.82" style="fill: #4b1f0d;"/>
  <g style="clip-path: url(#g);">
    <path d="M74.57,87.32l4.6,7.49-.74,.45-.58-.94c-.03,.91-.56,1.79-1.57,2.41-1.66,1.02-3.34,.75-4.42-1l-3.01-4.9,.74-.45,2.88,4.69c.92,1.5,2.25,1.67,3.38,.97,1.05-.64,1.81-2.01,1.04-3.26l-3.07-4.99,.74-.45Z" style="fill: #4b1f0d;"/>
    <path d="M88.11,79.6c-1.61-1.28-3.56-1.25-5.04,.62l-1.33,1.67,5.59,4.43,1.33-1.67c1.48-1.87,1.06-3.78-.55-5.05m.54-.68c2.02,1.6,2.47,3.96,.63,6.27l-1.85,2.33-6.89-5.46,1.85-2.33c1.83-2.31,4.24-2.41,6.25-.81" style="fill: #4b1f0d;"/>
  </g>
  <rect x="90.04" y="71.21" width=".88" height="8.79" transform="translate(-19.5 118.12) rotate(-61.02)" style="fill: #4b1f0d;"/>
  <g style="clip-path: url(#h);">
    <path d="M90.61,65.84l.46,.65c-.49,.31-.83,.73-1.03,1.22-.51,1.3,.37,2.57,2.28,3.31l4.44,1.73-.32,.81-8.18-3.19,.31-.81,1.2,.47c-.66-.77-.86-1.69-.5-2.63,.25-.64,.68-1.15,1.32-1.56" style="fill: #4b1f0d;"/>
    <path d="M98.11,67.23c-.33-.09-.52-.42-.42-.77,.09-.33,.43-.52,.76-.43,.35,.1,.53,.44,.44,.76-.1,.35-.42,.53-.77,.44" style="fill: #4b1f0d;"/>
  </g>
  <g>
    <path d="M47.06,56.85c-.84-1.06-2.59-2.09-3.8-2.81-1.21-.73-2.36-1.38-3.71-1.77-3.16-.9-6.64,.59-8.84,3.03-1.17,1.3-2.17,2.71-3.87,3.43,3.08-.04,5.83,1.78,8.83,2.34,2.83,.52,5.85-.32,8.12-2.11,1.03-.85,1.98-1.71,3.27-2.12Z" style="fill: none;"/>
    <path d="M54.82,37.06c-.84,1.22-1.22,2.82-.87,4.25,.21,.86,.62,1.48,.77,2.35,.12,.72,.02,1.42-.35,2.26,1.33-.91,2.81-1.82,4.03-2.9,1.4-1.24,2.58-2.82,2.77-4.68,.08-.8-.11-1.75-.13-2.55-.04-1.59,.27-2.87,.73-4.36-1.86,2.4-5.19,3.07-6.96,5.64Z" style="fill: none;"/>
    <path d="M35.43,41.88c.39,2.13,.64,4.41,2.12,6,1.36,1.46,3.5,1.91,5.46,2.23,.57,.09,1.16,.21,1.7,.43,.35,.15,1.44,.92,1.44,.92,0,0,.1-2.41-.03-3.21-.3-1.82-.87-3.59-1.68-5.26s-1.94-3.33-3.53-4.27c-2.56-1.51-5.7-1.48-8.64-2.24,1.85,.97,2.79,3.26,3.18,5.39Z" style="fill: none;"/>
    <path d="M47.86,41.88c.48,.43,1.04,.78,1.47,1.25,.25,.27,.43,.63,.63,.91,1.42-1.7,1.98-5.26,1.35-7.34-.36-1.16-1.18-2.15-2.01-3.04-.5-.53-1.04-1.04-1.47-1.64-.45-.63-.67-.94-1.05-1.63,.39,2.34-.97,4.38-1.08,6.84-.08,1.76,.84,3.48,2.16,4.64Z" style="fill: none;"/>
    <path d="M47.34,62.36c-.84,.87-1.93,1.5-2.7,2.44-1.37,1.67-1.64,4.09-.92,6.12,.23,.67,.27,1.28,.39,1.93,1.42-.26,2.95-1.03,4.11-1.89,1.31-.97,2.44-2.38,2.66-3.99,.36-2.7-1.35-5.14-2.14-7.82,0,1.2-.51,2.28-1.4,3.21Z" style="fill: #009594;"/>
    <path d="M50.21,16.7c-18.57,0-33.62,15.05-33.62,33.62s15.05,33.62,33.62,33.62,33.62-15.05,33.62-33.62-15.05-33.62-33.62-33.62Zm-3.42,13.7c.38,.69,.6,.99,1.05,1.63,.42,.59,.96,1.1,1.47,1.64,.83,.89,1.65,1.88,2.01,3.04,.64,2.08,.07,5.64-1.35,7.34-.2-.28-.39-.64-.63-.91-.43-.48-.99-.83-1.47-1.25-1.32-1.16-2.24-2.88-2.16-4.64,.12-2.45,1.48-4.5,1.08-6.84Zm4.1,36.58c-.22,1.61-1.35,3.02-2.66,3.99-1.16,.86-2.69,1.63-4.11,1.89-.11-.66-.15-1.27-.39-1.93-.72-2.03-.45-4.45,.92-6.12,.77-.94,1.85-1.57,2.7-2.44,.89-.92,1.4-2.01,1.4-3.21,.79,2.69,2.51,5.13,2.14,7.82Zm-9.98-28.26c1.59,.94,2.73,2.61,3.53,4.27s1.38,3.43,1.68,5.26c.13,.8,.03,3.21,.03,3.21,0,0-1.08-.77-1.44-.92-.53-.23-1.13-.34-1.7-.43-1.97-.33-4.11-.77-5.46-2.23-1.47-1.59-1.73-3.86-2.12-6-.39-2.13-1.33-4.42-3.18-5.39,2.94,.76,6.09,.73,8.64,2.24Zm-5.23,22.35c-3-.55-5.74-2.37-8.83-2.34,1.7-.73,2.7-2.13,3.87-3.43,2.2-2.44,5.68-3.94,8.84-3.03,1.36,.39,2.5,1.04,3.71,1.77,1.21,.72,2.96,1.75,3.8,2.81-1.3,.41-2.24,1.28-3.27,2.12-2.26,1.79-5.28,2.63-8.12,2.11Zm25.5-22.74c-.2,1.86-1.38,3.44-2.77,4.68-1.22,1.08-2.7,1.99-4.03,2.9,.37-.83,.47-1.53,.35-2.26-.15-.87-.56-1.49-.77-2.35-.35-1.43,.03-3.04,.87-4.25,1.77-2.56,5.09-3.23,6.96-5.64-.46,1.49-.77,2.77-.73,4.36,.02,.8,.21,1.76,.13,2.55Z" style="fill: #fdc300;"/>
  </g>
</svg>