<?xml version="1.0" encoding="UTF-8"?>
<svg id="a" data-name="Ebene 1" xmlns="http://www.w3.org/2000/svg" viewBox="0 0 67.24 67.24">
  <path d="M32.71,16.96c-.5-.53-1.04-1.04-1.47-1.64-.45-.63-.67-.94-1.05-1.63,.39,2.34-.97,4.38-1.08,6.84-.08,1.76,.84,3.48,2.16,4.64,.48,.43,1.04,.78,1.47,1.25,.25,.27,.43,.63,.63,.91,1.42-1.7,1.98-5.26,1.35-7.34-.36-1.16-1.18-2.15-2.01-3.04Z" style="fill: none;"/>
  <path d="M30.75,45.67c-.84,.87-1.93,1.5-2.7,2.44-1.37,1.67-1.64,4.09-.92,6.12,.23,.66,.27,1.28,.39,1.93,1.42-.26,2.95-1.03,4.11-1.89,1.31-.97,2.44-2.38,2.66-3.99,.36-2.7-1.35-5.14-2.14-7.83,0,1.2-.51,2.28-1.4,3.21Z" style="fill: none;"/>
  <path d="M30.47,40.15c-.84-1.06-2.59-2.09-3.8-2.81-1.21-.72-2.36-1.38-3.71-1.76-3.16-.9-6.64,.59-8.84,3.03-1.17,1.3-2.17,2.71-3.87,3.43,3.08-.04,5.83,1.78,8.83,2.34,2.83,.52,5.85-.32,8.12-2.11,1.03-.85,1.98-1.71,3.27-2.12Z" style="fill: none;"/>
  <path d="M15.67,19.79c.09,.05,.17,.11,.25,.16l.03-.1c-.09-.02-.19-.04-.28-.06Z" style="fill: none;"/>
  <path d="M38.23,20.37c-.84,1.22-1.22,2.82-.87,4.25,.21,.86,.62,1.48,.77,2.35,.12,.72,.02,1.42-.35,2.26,1.33-.91,2.81-1.82,4.03-2.9,1.4-1.24,2.58-2.82,2.77-4.68,.08-.8-.11-1.75-.13-2.55-.04-1.59,.27-2.87,.73-4.36-1.86,2.4-5.19,3.07-6.96,5.64Z" style="fill: none;"/>
  <path d="M18.85,25.18c.39,2.13,.64,4.41,2.12,5.99,1.36,1.46,3.5,1.91,5.46,2.24,.57,.09,1.16,.2,1.7,.43,.35,.15,1.44,.92,1.44,.92,0,0,.1-2.41-.03-3.21-.3-1.82-.87-3.59-1.68-5.26s-1.94-3.33-3.53-4.27c-2.48-1.46-5.5-1.49-8.36-2.17l-.03,.1c1.68,1.04,2.56,3.2,2.93,5.23Z" style="fill: #009594;"/>
  <path d="M33.62,0C15.05,0,0,15.05,0,33.62s15.05,33.62,33.62,33.62,33.62-15.05,33.62-33.62S52.18,0,33.62,0ZM15.95,19.86c2.86,.69,5.89,.71,8.36,2.17,1.59,.94,2.73,2.61,3.53,4.27s1.38,3.43,1.68,5.26c.13,.8,.03,3.21,.03,3.21,0,0-1.08-.77-1.44-.92-.53-.23-1.13-.34-1.7-.43-1.97-.33-4.11-.77-5.46-2.24-1.47-1.59-1.73-3.86-2.12-5.99-.37-2.03-1.25-4.18-2.93-5.23-.08-.05-.16-.12-.25-.16,.09,.02,.19,.04,.28,.06Zm3.14,24.52c-3-.55-5.74-2.37-8.83-2.34,1.7-.73,2.7-2.13,3.87-3.43,2.2-2.44,5.68-3.94,8.84-3.03,1.36,.39,2.5,1.04,3.71,1.76,1.21,.72,2.96,1.75,3.8,2.81-1.3,.41-2.24,1.28-3.27,2.12-2.26,1.79-5.28,2.63-8.12,2.11Zm15.21,5.9c-.22,1.61-1.35,3.02-2.66,3.99-1.16,.86-2.69,1.63-4.11,1.89-.11-.66-.15-1.27-.39-1.93-.72-2.03-.45-4.45,.92-6.12,.77-.94,1.85-1.57,2.7-2.44,.89-.92,1.4-2.01,1.4-3.21,.79,2.69,2.51,5.13,2.14,7.83Zm-.91-22.94c-.2-.28-.39-.64-.63-.91-.43-.48-.99-.83-1.47-1.25-1.32-1.16-2.24-2.88-2.16-4.64,.12-2.45,1.48-4.5,1.08-6.84,.38,.69,.6,.99,1.05,1.63,.42,.6,.96,1.1,1.47,1.64,.83,.89,1.65,1.88,2.01,3.04,.64,2.08,.07,5.64-1.35,7.34Zm11.21-5.7c-.2,1.86-1.38,3.44-2.77,4.68-1.22,1.08-2.7,1.99-4.03,2.9,.37-.83,.47-1.53,.35-2.26-.15-.87-.56-1.49-.77-2.35-.35-1.43,.03-3.04,.87-4.25,1.77-2.56,5.09-3.23,6.96-5.64-.46,1.49-.77,2.77-.73,4.36,.02,.8,.21,1.76,.13,2.55Z" style="fill: #fdc300;"/>
</svg>